<?xml version="1.0" standalone="no"?>
<!DOCTYPE svg PUBLIC "-//W3C//DTD SVG 20010904//EN"
 "http://www.w3.org/TR/2001/REC-SVG-20010904/DTD/svg10.dtd">
<svg version="1.0" xmlns="http://www.w3.org/2000/svg"
 width="432.000000pt" height="432.000000pt" viewBox="0 0 432.000000 432.000000"
 preserveAspectRatio="xMidYMid meet">
<metadata>
Created by potrace 1.14, written by Peter Selinger 2001-2017
</metadata>
<g transform="translate(0.000000,432.000000) scale(0.100000,-0.100000)"
fill="#000000" stroke="none">
<path d="M490 4091 c-227 -62 -388 -218 -460 -446 -40 -130 -31 -304 23 -427
23 -52 216 -389 707 -1238 97 -168 188 -325 202 -350 137 -241 654 -1129 677
-1163 42 -62 131 -141 204 -181 102 -57 195 -80 317 -79 173 2 310 52 430 160
47 42 130 143 130 158 0 3 11 22 24 43 13 20 178 305 366 632 189 327 517 897
730 1265 213 369 399 693 412 720 69 138 82 323 34 470 -68 212 -207 350 -436
433 -41 15 -195 17 -1670 19 -1527 2 -1629 1 -1690 -16z m3326 -34 c151 -41
269 -123 354 -248 140 -204 145 -454 12 -677 -22 -37 -150 -258 -285 -492
-572 -993 -841 -1459 -877 -1520 -147 -253 -190 -324 -190 -315 0 6 6 19 13
30 8 11 62 114 122 230 59 116 127 246 150 290 23 44 82 157 130 250 48 94
102 197 120 230 18 33 79 150 135 260 56 110 119 232 140 270 21 39 77 147
125 240 49 94 130 250 181 349 158 303 177 355 175 496 -2 259 -155 480 -398
578 -67 27 -71 27 -288 26 -196 0 -421 -6 -730 -19 -55 -2 -179 -7 -275 -10
-96 -3 -229 -7 -295 -10 -121 -5 -338 -13 -585 -20 -74 -3 -193 -7 -265 -9
-71 -3 -209 -8 -305 -11 -393 -13 -407 -15 -517 -66 -151 -71 -253 -184 -316
-354 -28 -73 -30 -91 -31 -205 0 -95 4 -137 18 -173 27 -74 13 -66 -28 16
-150 301 -27 667 277 817 51 25 110 46 153 53 53 9 471 12 1645 11 1425 -1
1580 -2 1635 -17z m-136 -56 c239 -75 397 -289 405 -546 4 -116 -22 -193 -144
-429 -105 -203 -130 -251 -282 -543 -38 -73 -101 -195 -140 -270 -39 -76 -100
-192 -134 -258 -34 -66 -93 -178 -130 -250 -89 -171 -176 -337 -240 -460 -29
-55 -76 -146 -104 -203 -29 -56 -54 -102 -56 -102 -6 0 35 92 164 364 28 59
51 109 51 111 0 2 34 73 75 160 41 86 75 158 75 160 0 3 48 106 141 304 27 57
49 105 49 106 0 2 32 69 70 150 39 81 70 148 70 150 0 2 26 59 59 127 32 68
83 177 114 243 30 66 73 158 95 205 22 47 51 111 65 142 156 343 -15 730 -368
833 -50 15 -83 16 -205 11 -80 -4 -161 -8 -180 -10 -19 -2 -87 -7 -150 -10
-63 -4 -131 -9 -150 -11 -19 -2 -75 -7 -125 -10 -49 -3 -117 -8 -150 -10 -33
-3 -96 -7 -140 -10 -44 -3 -107 -7 -140 -10 -68 -6 -174 -13 -290 -20 -44 -3
-109 -7 -145 -10 -86 -7 -176 -13 -280 -20 -47 -3 -105 -8 -130 -10 -25 -2
-90 -7 -145 -10 -55 -3 -120 -8 -145 -10 -25 -3 -85 -7 -135 -10 -86 -5 -129
-8 -277 -20 -284 -24 -502 -263 -512 -563 -3 -68 13 -173 34 -227 17 -45 -5
-18 -36 44 -51 102 -64 165 -60 286 2 81 9 127 25 174 49 139 160 268 284 328
110 54 140 59 427 68 102 3 235 7 295 10 61 3 189 7 285 10 96 3 227 8 290 10
106 4 174 6 570 20 294 10 459 16 555 20 55 2 199 6 320 10 121 4 221 8 223
10 12 11 198 -7 252 -24z m-149 -51 c222 -66 383 -301 374 -543 -5 -120 -21
-163 -219 -581 -31 -65 -56 -119 -56 -121 0 -2 -26 -59 -59 -126 -32 -68 -86
-185 -121 -259 -34 -74 -77 -166 -95 -205 -18 -38 -79 -169 -135 -290 -56
-121 -123 -265 -149 -320 -26 -55 -78 -166 -116 -248 -37 -81 -70 -146 -71
-144 -2 2 17 53 42 113 25 60 54 129 63 154 10 25 25 61 34 80 15 34 113 271
376 910 67 162 126 304 131 315 12 24 202 488 218 530 37 98 37 243 1 360 -64
209 -266 375 -459 379 -79 1 -77 14 3 18 103 5 169 -1 238 -22z m-437 0 c-5
-5 -43 -11 -84 -15 -41 -3 -86 -7 -100 -10 -14 -2 -56 -7 -95 -11 -38 -3 -81
-7 -95 -9 -14 -1 -59 -6 -100 -10 -41 -4 -82 -9 -91 -10 -8 -2 -49 -6 -90 -10
-41 -3 -81 -8 -89 -10 -8 -2 -46 -6 -85 -10 -78 -7 -140 -13 -200 -20 -86 -11
-122 -14 -185 -20 -36 -3 -101 -10 -145 -15 -44 -5 -105 -12 -135 -15 -30 -3
-71 -7 -90 -10 -35 -5 -91 -11 -187 -20 -103 -10 -158 -16 -183 -20 -14 -2
-56 -6 -95 -10 -38 -3 -81 -7 -95 -10 -14 -2 -52 -7 -85 -10 -159 -15 -216
-32 -307 -92 -188 -124 -279 -355 -231 -588 8 -38 19 -79 25 -90 7 -14 4 -13
-11 5 -11 14 -31 52 -45 85 -58 145 -60 296 -4 429 71 169 217 294 378 325 53
10 129 17 286 26 42 3 101 7 132 10 78 6 214 15 292 20 186 11 258 16 290 20
31 4 74 7 270 20 109 7 246 17 285 20 22 2 87 7 145 10 58 4 119 8 135 10 17
2 82 6 145 10 63 3 129 8 145 10 17 2 82 7 145 10 63 4 116 8 117 9 1 1 12 2
24 3 13 1 18 -2 13 -7z m74 3 c-10 -2 -28 -2 -40 0 -13 2 -5 4 17 4 22 1 32
-1 23 -4z m272 -76 c94 -45 138 -82 195 -161 67 -95 97 -181 101 -296 2 -52
-1 -115 -7 -139 -8 -35 -191 -489 -264 -656 -8 -16 -140 -337 -296 -713 -155
-375 -284 -681 -286 -679 -2 2 6 26 16 53 26 64 311 845 316 864 2 8 32 89 65
180 188 505 329 900 335 940 36 215 -57 440 -228 553 -70 47 -168 79 -242 80
-57 0 -58 0 -20 8 22 4 85 6 140 5 93 -2 107 -5 175 -39z m-474 14 c-3 -5 -32
-12 -63 -16 -83 -9 -124 -15 -153 -20 -14 -3 -43 -7 -65 -10 -36 -5 -110 -16
-205 -30 -19 -2 -114 -16 -210 -30 -96 -14 -184 -27 -196 -29 -12 -2 -45 -7
-75 -11 -30 -3 -61 -8 -69 -10 -8 -2 -40 -7 -70 -10 -30 -3 -62 -8 -70 -10 -8
-2 -36 -6 -62 -9 -41 -5 -84 -11 -208 -31 -14 -2 -45 -6 -70 -10 -48 -6 -116
-16 -140 -20 -8 -2 -37 -6 -65 -9 -27 -4 -93 -13 -145 -21 -52 -8 -113 -17
-135 -20 -22 -3 -53 -7 -70 -10 -16 -3 -48 -7 -70 -11 -191 -29 -339 -171
-399 -382 -20 -70 -16 -239 8 -301 23 -63 14 -61 -22 6 -88 166 -79 380 23
539 89 138 209 209 390 229 28 3 70 7 95 10 25 3 153 16 285 30 132 14 256 28
275 30 19 2 60 7 90 10 30 3 71 8 90 10 19 2 64 7 100 10 36 3 101 10 145 15
44 5 105 12 135 15 30 3 71 7 90 10 35 4 88 10 190 20 135 13 157 16 190 20
19 3 60 7 90 10 30 3 71 7 90 10 19 2 58 7 85 9 28 3 79 8 115 12 36 3 67 8
69 10 8 7 12 4 7 -5z m47 2 c-7 -2 -19 -2 -25 0 -7 3 -2 5 12 5 14 0 19 -2 13
-5z m260 -53 c51 -19 157 -90 182 -122 93 -116 134 -236 130 -374 -3 -88 9
-53 -365 -1074 -106 -289 -205 -559 -220 -600 -15 -41 -47 -128 -70 -193 -24
-64 -45 -116 -46 -114 -2 1 29 102 67 222 39 121 104 324 144 450 40 127 108
338 150 470 42 132 92 287 110 345 18 58 52 164 75 235 67 209 66 342 -5 491
-72 150 -222 260 -370 270 -56 4 -57 6 -5 14 71 11 161 3 223 -20z m-376 -6
c-3 -3 -12 -4 -19 -1 -8 3 -5 6 6 6 11 1 17 -2 13 -5z m-44 -11 c-7 -2 -21 -2
-30 0 -10 3 -4 5 12 5 17 0 24 -2 18 -5z m-93 -13 c-19 -5 -87 -18 -150 -30
-285 -52 -827 -151 -950 -174 -75 -14 -151 -28 -170 -31 -19 -3 -141 -26 -272
-50 -130 -25 -249 -47 -265 -49 -105 -19 -139 -28 -186 -50 -156 -74 -259
-247 -261 -436 -1 -98 6 -149 29 -203 25 -61 1 -35 -32 35 -40 82 -57 156 -55
243 3 141 61 276 157 363 51 46 147 97 200 106 40 7 218 33 275 41 25 3 56 8
70 10 14 2 45 7 70 10 49 6 115 15 142 21 10 1 84 12 165 24 82 11 159 23 173
25 62 9 104 15 143 20 23 3 53 7 67 10 14 3 49 8 79 11 30 3 58 7 61 9 3 2 33
6 65 10 33 3 67 8 75 10 14 4 60 11 127 20 142 18 409 58 412 61 2 2 18 4 35
3 l31 -1 -35 -8z m422 -38 c129 -64 224 -191 252 -339 13 -72 12 -168 -3 -218
-30 -96 -136 -431 -156 -490 -13 -38 -49 -151 -80 -250 -165 -523 -314 -983
-314 -970 -1 6 4 26 9 45 6 19 37 132 70 250 61 223 255 930 342 1245 46 170
49 185 45 275 -5 109 -29 187 -82 266 -73 111 -187 188 -297 201 -79 10 -31
23 69 20 67 -3 92 -9 145 -35z m-479 -19 c-7 -2 -19 -2 -25 0 -7 3 -2 5 12 5
14 0 19 -2 13 -5z m327 -19 c170 -64 293 -260 284 -452 -2 -46 -38 -204 -65
-287 -8 -26 -63 -227 -129 -470 -10 -38 -55 -203 -100 -365 -45 -162 -100
-362 -122 -445 -23 -82 -47 -170 -53 -195 -7 -25 -41 -146 -75 -270 -34 -124
-74 -247 -88 -274 -117 -215 -387 -265 -565 -104 -64 59 -1415 1757 -1441
1813 -91 190 -51 418 96 551 70 63 79 66 638 191 36 8 76 16 89 19 13 3 92 21
175 40 83 19 160 36 171 38 11 2 124 28 250 56 127 29 239 54 250 56 11 2 137
31 280 63 276 62 323 66 405 35z m-375 11 c-5 -2 -64 -16 -130 -31 -66 -14
-126 -28 -135 -29 -8 -2 -157 -36 -330 -75 -173 -39 -328 -74 -345 -76 -16 -3
-36 -7 -44 -10 -14 -4 -173 -41 -216 -50 -11 -2 -141 -31 -290 -64 -302 -68
-365 -92 -438 -165 -51 -52 -111 -162 -126 -235 -14 -63 -7 -217 12 -270 24
-67 11 -61 -23 11 -89 192 -55 421 83 560 74 75 155 109 312 133 47 8 365 66
550 101 72 14 290 54 485 90 195 35 369 67 385 70 17 3 73 14 125 24 86 17
150 25 125 16z m-2345 -895 c6 -11 8 -20 6 -20 -3 0 -10 9 -16 20 -6 11 -8 20
-6 20 3 0 10 -9 16 -20z m207 -340 c99 -162 267 -437 373 -610 106 -173 235
-382 285 -465 619 -1015 565 -933 670 -1012 96 -73 196 -110 318 -119 165 -12
337 51 457 168 51 50 59 55 35 23 -47 -64 -77 -95 -126 -131 -53 -38 -150 -88
-194 -99 -16 -4 -41 -10 -55 -13 -14 -4 -74 -6 -135 -6 -93 1 -121 6 -185 29
-93 34 -195 100 -250 163 -23 26 -65 88 -94 137 -63 107 -418 720 -448 773
-11 20 -37 66 -58 102 -21 36 -47 81 -58 100 -11 19 -76 132 -144 250 -160
277 -579 1002 -586 1015 -3 7 -2 7 5 0 5 -5 91 -143 190 -305z m-42 154 c9
-15 12 -23 6 -20 -11 7 -35 46 -28 46 3 0 12 -12 22 -26z m56 -86 c49 -78 368
-572 474 -733 50 -77 108 -167 128 -200 21 -33 123 -190 227 -350 104 -159
245 -378 314 -485 128 -198 185 -268 264 -322 135 -93 316 -117 480 -62 93 31
143 62 215 136 32 32 53 49 46 36 -7 -13 -44 -55 -83 -94 -114 -114 -246 -167
-411 -163 -123 3 -234 44 -330 122 -87 71 -69 45 -528 797 -39 63 -80 131 -93
150 -12 19 -65 105 -116 190 -52 85 -206 337 -342 560 -137 223 -257 420 -268
438 -33 53 -13 36 23 -20z m249 -294 c63 -93 163 -238 221 -324 283 -415 788
-1154 838 -1224 72 -101 136 -158 225 -201 187 -89 414 -52 562 91 60 59 61
54 2 -18 -111 -134 -322 -203 -496 -163 -175 41 -252 113 -455 430 -200 311
-822 1269 -927 1430 -167 254 -150 243 30 -21z m-9 89 c13 -16 12 -17 -3 -4
-10 7 -18 15 -18 17 0 8 8 3 21 -13z m30 -40 c13 -16 12 -17 -3 -4 -10 7 -18
15 -18 17 0 8 8 3 21 -13z m116 -163 c445 -623 1034 -1431 1067 -1462 189
-181 473 -177 660 8 34 34 37 35 19 9 -116 -168 -350 -244 -538 -174 -119 44
-182 101 -291 259 -36 52 -125 183 -199 290 -74 107 -195 285 -270 395 -75
110 -192 281 -260 380 -166 241 -278 405 -289 424 -20 36 15 -10 101 -129z
m24 43 c13 -16 12 -17 -3 -4 -10 7 -18 15 -18 17 0 8 8 3 21 -13z m99 -133
c40 -52 130 -171 201 -265 654 -862 774 -1017 813 -1051 166 -142 411 -139
572 8 43 38 46 40 26 11 -32 -46 -98 -100 -158 -129 -158 -77 -346 -47 -477
77 -35 34 -225 289 -506 679 -509 707 -476 661 -516 714 -35 47 -54 77 -38 61
6 -5 43 -53 83 -105z m31 33 c13 -16 12 -17 -3 -4 -17 13 -22 21 -14 21 2 0
10 -8 17 -17z m30 -40 c13 -16 12 -17 -3 -4 -10 7 -18 15 -18 17 0 8 8 3 21
-13z m71 -90 c29 -38 61 -77 70 -88 9 -11 190 -238 403 -505 212 -267 410
-508 440 -536 77 -75 160 -110 280 -118 38 -3 140 25 184 51 24 14 62 42 84
62 l42 36 -34 -43 c-136 -175 -406 -195 -569 -43 -41 39 -88 99 -569 735 -67
88 -126 166 -131 171 -30 36 -261 345 -258 345 2 0 28 -30 58 -67z m1701 -903
c-3 -12 -8 -19 -11 -16 -5 6 5 36 12 36 2 0 2 -9 -1 -20z m-32 -173 c-10 -9
-11 -8 -5 6 3 10 9 15 12 12 3 -3 0 -11 -7 -18z m-21 -137 c-6 -11 -13 -20
-16 -20 -2 0 0 9 6 20 6 11 13 20 16 20 2 0 0 -9 -6 -20z"/>
</g>
</svg>
