<?xml version="1.0" standalone="no"?>
<!DOCTYPE svg PUBLIC "-//W3C//DTD SVG 20010904//EN"
 "http://www.w3.org/TR/2001/REC-SVG-20010904/DTD/svg10.dtd">
<svg version="1.0" xmlns="http://www.w3.org/2000/svg"
 width="3027.000000pt" height="3027.000000pt" viewBox="0 0 3027.000000 3027.000000"
 preserveAspectRatio="xMidYMid meet">
<metadata>
Created by potrace 1.14, written by Peter Selinger 2001-2017
</metadata>
<g transform="translate(0.000000,3027.000000) scale(0.100000,-0.100000)"
fill="#000000" stroke="none">
<path d="M25396 26069 c5 -8 -5 -10 -30 -7 -21 2 -36 0 -36 -7 0 -5 -5 -3 -10
5 -7 11 -10 11 -10 2 0 -8 -5 -10 -12 -6 -19 12 -48 12 -48 0 0 -6 -5 -4 -10
4 -5 8 -10 10 -10 4 0 -7 -17 -8 -50 -4 -33 4 -50 3 -50 -4 0 -6 -5 -4 -10 4
-5 8 -10 11 -10 5 0 -10 -79 -11 -105 -1 -8 3 -15 0 -15 -7 0 -8 -3 -8 -9 2
-7 11 -10 11 -15 0 -5 -11 -7 -11 -12 -1 -3 6 -10 9 -16 6 -15 -9 -228 -10
-228 -1 0 5 -5 5 -10 2 -6 -4 -8 -10 -5 -15 3 -5 -7 -3 -21 5 -15 8 -32 11
-37 8 -15 -9 -172 -7 -187 2 -8 5 -11 4 -7 -2 4 -6 -34 -9 -104 -7 -75 2 -107
-1 -103 -8 5 -7 2 -8 -7 -2 -18 12 -161 13 -176 2 -6 -5 -14 -5 -16 -1 -7 11
-208 10 -226 -1 -9 -6 -12 -5 -8 1 8 13 -52 11 -72 -1 -8 -6 -12 -5 -8 0 6 11
-163 11 -181 0 -7 -4 -12 -2 -12 3 0 13 -42 10 -52 -4 -5 -6 -8 -6 -8 2 0 12
-30 10 -52 -3 -7 -4 -8 -3 -4 4 4 7 3 12 -3 12 -5 0 -13 -5 -16 -10 -5 -8 -11
-7 -21 1 -11 9 -14 8 -14 -2 0 -12 -2 -12 -9 0 -6 10 -13 11 -29 2 -11 -6 -23
-7 -26 -2 -6 9 -49 7 -67 -5 -8 -5 -9 -3 -4 5 6 10 3 11 -13 2 -15 -8 -21 -8
-24 1 -3 8 -10 8 -26 -1 -17 -9 -22 -9 -22 0 0 8 -4 8 -15 -1 -12 -10 -15 -10
-15 1 0 11 -2 11 -10 -1 -9 -13 -10 -13 -10 0 0 13 -1 13 -10 0 -9 -13 -10
-13 -10 0 0 13 -1 13 -10 0 -8 -12 -10 -12 -10 -1 0 11 -3 11 -15 1 -12 -10
-15 -10 -15 0 0 9 -4 9 -12 2 -19 -15 -30 -15 -38 -2 -5 8 -13 9 -21 4 -19
-12 -49 -12 -49 -1 0 5 -7 4 -15 -3 -12 -10 -15 -10 -15 1 0 11 -2 11 -10 -1
-8 -12 -10 -12 -10 -1 0 11 -3 11 -15 1 -12 -10 -15 -10 -15 0 0 10 -3 10 -15
0 -11 -9 -15 -9 -15 -1 0 7 -5 9 -11 6 -17 -11 -59 -13 -59 -3 0 5 -6 6 -12 1
-22 -13 -50 -14 -42 -1 4 7 3 8 -4 4 -17 -10 -122 -15 -116 -5 3 5 -6 4 -20
-2 -19 -9 -29 -9 -40 0 -8 7 -17 8 -19 3 -3 -4 -31 -7 -62 -5 -41 2 -54 -1
-48 -10 4 -7 0 -7 -10 2 -9 7 -17 10 -17 6 0 -4 -8 -1 -17 6 -14 12 -16 12 -8
0 6 -11 4 -13 -7 -8 -9 3 -21 0 -28 -6 -10 -9 -11 -9 -6 1 7 11 -7 17 -29 12
-31 -7 -106 -6 -111 2 -3 5 -12 4 -20 -3 -11 -9 -18 -8 -31 2 -11 10 -14 10
-9 2 5 -9 -2 -13 -24 -13 -22 0 -29 4 -24 13 6 9 5 9 -7 0 -12 -10 -18 -10
-29 0 -10 10 -11 9 -5 -2 7 -11 1 -13 -28 -8 -22 3 -37 2 -37 -4 0 -6 -6 -7
-12 -2 -22 13 -50 14 -42 2 5 -8 2 -9 -11 -2 -10 6 -27 8 -37 5 -11 -3 -24 1
-29 9 -5 8 -9 9 -9 3 0 -15 -111 -16 -129 -1 -12 9 -13 9 -8 0 6 -9 -19 -12
-103 -10 -66 1 -112 -2 -114 -8 -3 -5 -5 -5 -5 2 -1 8 -10 9 -30 3 -16 -4 -32
-6 -34 -3 -11 10 -57 10 -57 -1 0 -6 -5 -4 -10 4 -6 9 -10 10 -10 3 0 -7 -9
-9 -25 -5 -14 4 -57 5 -96 2 -39 -3 -74 -1 -79 4 -7 7 -10 5 -10 -5 0 -12 -2
-12 -10 1 -5 8 -10 11 -10 5 0 -6 -34 -10 -82 -10 -46 0 -86 5 -90 10 -5 6 -8
6 -8 -1 0 -6 -13 -9 -30 -6 -17 2 -36 -1 -44 -7 -11 -9 -16 -9 -22 0 -5 8 -3
9 6 4 9 -5 11 -4 6 4 -4 6 -12 8 -18 5 -6 -4 -101 -7 -212 -7 -111 0 -206 -4
-212 -9 -8 -5 -18 -3 -28 7 -9 9 -16 12 -16 7 0 -5 -14 -8 -31 -6 -20 3 -28 0
-23 -8 5 -8 3 -8 -7 -2 -21 13 -100 13 -92 0 5 -8 3 -8 -8 0 -16 13 -68 13
-88 0 -9 -6 -12 -5 -8 1 4 6 -4 11 -18 11 -14 0 -22 -5 -18 -11 4 -6 1 -7 -8
-1 -23 14 -51 16 -43 2 5 -7 3 -8 -7 -2 -24 14 -51 16 -43 2 6 -10 5 -10 -7
-1 -12 10 -18 10 -29 0 -10 -9 -11 -9 -6 1 8 13 -19 13 -41 -1 -6 -4 -14 -3
-18 3 -4 6 -12 7 -18 3 -18 -11 -38 -12 -31 -2 8 13 -10 11 -24 -3 -7 -7 -12
-8 -12 -2 0 5 -9 10 -20 11 -11 1 -20 -3 -20 -9 0 -7 -4 -7 -13 1 -10 8 -17 7
-27 -2 -10 -9 -11 -9 -6 1 8 13 -19 13 -41 -1 -6 -4 -15 -3 -18 3 -5 8 -11 8
-20 0 -9 -8 -15 -8 -20 0 -3 6 -12 7 -18 3 -17 -10 -47 -11 -53 -1 -3 5 -12 4
-20 -3 -11 -9 -14 -9 -14 1 0 9 -3 10 -13 1 -10 -8 -17 -7 -25 1 -9 9 -12 9
-12 -3 0 -12 -2 -12 -10 1 -8 12 -10 12 -10 1 0 -11 -3 -11 -15 -1 -12 10 -15
10 -15 -1 0 -10 -3 -10 -12 -1 -8 8 -17 8 -31 1 -12 -7 -17 -7 -13 -1 7 11
-12 11 -31 -1 -8 -5 -13 -3 -13 4 0 8 -4 8 -15 -1 -12 -10 -15 -10 -15 1 0 11
-2 11 -10 -1 -8 -12 -10 -12 -10 -1 0 11 -3 11 -15 1 -12 -10 -15 -10 -15 1 0
11 -2 11 -10 -1 -9 -13 -10 -13 -10 0 0 12 -2 12 -9 1 -5 -7 -11 -9 -14 -4 -6
10 -67 10 -84 0 -6 -4 -14 -1 -16 5 -4 10 -6 9 -6 -1 -1 -11 -4 -11 -18 0 -11
10 -14 10 -9 2 4 -7 3 -13 -3 -13 -5 0 -13 5 -16 10 -5 8 -11 7 -21 -1 -11 -9
-14 -8 -14 2 0 10 -3 10 -12 1 -16 -16 -31 -15 -22 1 5 8 2 8 -9 -2 -14 -11
-17 -11 -17 0 0 10 -3 10 -12 1 -15 -15 -32 -16 -22 -1 4 7 -1 7 -16 -1 -18
-10 -24 -9 -31 1 -5 8 -9 9 -9 3 0 -6 -7 -11 -15 -11 -8 0 -15 4 -15 9 0 5 -6
6 -12 1 -21 -12 -38 -12 -38 0 0 8 -3 8 -8 2 -10 -15 -74 -16 -65 -1 4 6 0 5
-9 -2 -11 -9 -18 -10 -23 -2 -3 6 -12 7 -18 3 -21 -13 -47 -13 -47 0 0 7 -3 8
-8 2 -11 -16 -33 -17 -50 -3 -9 7 -13 8 -9 2 4 -8 -3 -11 -23 -10 -17 0 -30 5
-30 11 0 5 -5 3 -10 -5 -8 -13 -13 -13 -31 -2 -11 8 -18 9 -14 3 4 -7 -4 -11
-20 -11 -18 0 -24 4 -19 13 6 9 4 9 -7 1 -16 -13 -68 -13 -88 0 -9 6 -12 5 -8
-1 5 -7 -6 -11 -28 -11 -24 0 -33 4 -28 12 4 7 1 6 -9 -1 -8 -7 -29 -11 -46
-9 -19 2 -32 -1 -33 -8 0 -6 -4 -2 -9 9 -5 11 -9 15 -9 9 -1 -8 -46 -11 -146
-10 -88 1 -147 -3 -149 -9 -3 -7 -5 -7 -5 0 -1 9 -57 11 -177 5 -21 -1 -43 -1
-49 0 -23 4 -95 1 -104 -4 -5 -4 -13 -2 -16 4 -5 8 -11 7 -21 -1 -11 -9 -14
-8 -14 2 0 12 -2 12 -9 0 -7 -11 -9 -11 -14 0 -3 8 -6 9 -6 4 -1 -10 -71 -11
-98 -1 -7 3 -13 0 -13 -6 0 -7 -5 -6 -15 2 -12 10 -15 10 -15 -1 0 -11 -2 -11
-10 1 -7 11 -10 11 -10 2 0 -10 -5 -10 -20 -2 -11 6 -20 7 -20 2 0 -5 -22 -6
-50 -2 -31 4 -51 2 -54 -4 -2 -6 -5 -5 -5 3 -1 10 -4 11 -15 2 -9 -8 -16 -8
-20 -2 -4 6 -14 7 -23 4 -22 -9 -77 -8 -91 1 -8 4 -12 0 -12 -11 0 -14 -2 -15
-9 -4 -5 8 -18 12 -30 8 -12 -3 -21 0 -21 6 0 8 -3 8 -8 2 -8 -12 -181 -13
-200 -1 -6 4 -12 3 -12 -2 0 -4 -19 -7 -42 -6 -24 1 -48 -2 -54 -7 -7 -6 -16
-4 -24 6 -10 11 -15 13 -20 4 -6 -8 -13 -8 -30 1 -18 9 -21 9 -15 0 6 -10 1
-11 -18 -6 -14 3 -29 1 -32 -4 -4 -7 -11 -7 -18 -2 -7 5 -52 8 -102 7 -49 -1
-96 2 -103 8 -9 7 -11 6 -6 -8 6 -14 4 -16 -12 -8 -22 10 -44 10 -61 0 -6 -4
-15 -2 -19 4 -5 8 -3 9 6 4 9 -5 11 -4 6 4 -6 9 -11 9 -22 0 -8 -6 -14 -8 -14
-3 0 5 -5 2 -10 -6 -5 -8 -10 -10 -10 -5 0 6 -13 11 -30 11 -20 1 -27 -2 -23
-10 4 -6 0 -5 -9 2 -12 10 -18 10 -23 1 -6 -8 -10 -7 -16 2 -7 11 -9 11 -9 -1
0 -12 -2 -12 -9 -1 -7 10 -13 11 -30 2 -12 -7 -27 -9 -33 -4 -16 9 -50 9 -66
-1 -6 -4 -12 -3 -12 1 0 5 -9 9 -20 10 -13 1 -18 -2 -14 -9 5 -7 2 -8 -7 -3
-18 12 -49 14 -43 3 3 -4 0 -8 -5 -8 -6 0 -11 5 -11 11 0 8 -5 8 -15 -1 -8 -7
-15 -8 -15 -3 0 11 -30 11 -49 -1 -8 -5 -16 -4 -20 3 -6 8 -15 9 -34 2 -19 -8
-27 -7 -27 0 0 8 -5 7 -15 -1 -11 -9 -15 -9 -15 -1 0 9 -5 9 -20 1 -15 -8 -20
-8 -20 2 0 9 -3 9 -11 1 -8 -8 -20 -8 -35 -3 -15 6 -24 5 -28 -3 -3 -9 -6 -9
-13 0 -5 7 -14 9 -22 3 -8 -4 -24 -4 -37 0 -12 5 -25 6 -28 2 -10 -9 -36 -11
-36 -3 0 4 -7 8 -15 8 -8 0 -12 -4 -9 -9 3 -4 1 -8 -5 -8 -5 0 -13 5 -16 10
-4 7 -14 6 -28 -1 -16 -9 -22 -9 -25 0 -2 6 -8 11 -13 11 -6 0 -7 -5 -3 -11 4
-7 -1 -7 -16 1 -13 7 -20 8 -16 2 4 -6 -2 -10 -14 -9 -11 1 -20 5 -20 10 0 5
-7 4 -15 -3 -12 -10 -15 -10 -15 1 0 12 -2 12 -9 1 -9 -15 -17 -15 -45 0 -13
7 -16 7 -12 -1 8 -12 -21 -11 -40 2 -6 3 -14 3 -18 0 -11 -11 -86 -10 -86 1 0
6 -5 4 -10 -4 -9 -13 -11 -13 -20 0 -5 8 -10 10 -10 5 0 -6 -22 -11 -50 -11
-29 -1 -47 3 -44 8 4 6 -3 5 -15 -2 -17 -8 -26 -8 -36 0 -9 7 -15 8 -20 1 -8
-14 -55 -10 -55 4 0 7 -3 6 -8 -1 -9 -14 -95 -14 -104 0 -6 8 -8 8 -8 0 0 -7
-57 -10 -180 -10 -99 1 -180 -2 -180 -7 0 -4 -6 -5 -12 -1 -15 9 -302 9 -316
0 -6 -3 -13 0 -15 6 -4 10 -8 9 -16 -2 -8 -12 -11 -12 -11 -1 0 11 -3 11 -15
1 -8 -7 -15 -8 -15 -3 0 8 -32 10 -50 3 -3 -1 -9 -1 -15 0 -28 6 -65 5 -65 -1
0 -4 -13 -4 -30 1 -21 6 -30 5 -30 -3 0 -8 -3 -8 -8 -2 -11 15 -83 13 -77 -3
3 -8 -3 -7 -19 3 -13 9 -26 12 -28 7 -1 -5 -29 -6 -60 -2 -32 3 -58 4 -58 1 0
-4 -24 -5 -52 -4 -29 1 -64 2 -78 2 -98 2 -102 2 -95 -11 4 -7 -1 -4 -9 6 -9
11 -16 14 -16 7 0 -7 -5 -9 -10 -6 -6 4 -18 1 -27 -7 -14 -11 -16 -11 -8 1 6
11 2 13 -18 9 -15 -3 -28 0 -31 6 -3 7 -5 6 -5 -2 -1 -10 -6 -10 -22 -1 -16 8
-20 8 -14 0 5 -8 -1 -10 -21 -5 -21 6 -25 4 -19 -7 8 -12 6 -12 -8 -1 -9 8
-22 12 -29 9 -7 -2 -21 0 -32 5 -12 7 -16 7 -12 0 3 -6 2 -13 -4 -17 -5 -3
-10 -2 -10 3 0 12 -74 11 -82 -1 -4 -7 -11 -7 -20 0 -22 17 -50 24 -42 11 5
-7 2 -9 -8 -5 -9 3 -21 0 -28 -6 -10 -9 -11 -9 -5 2 6 11 4 13 -8 8 -9 -3 -19
-2 -23 4 -4 7 -10 6 -19 -1 -7 -6 -27 -8 -45 -5 -24 4 -30 2 -24 -7 6 -10 4
-11 -7 0 -16 15 -33 16 -23 0 5 -7 3 -8 -7 -2 -20 12 -39 14 -39 3 0 -6 -5 -7
-10 -4 -6 4 -7 12 -3 18 4 7 0 6 -10 -2 -9 -7 -17 -10 -17 -6 0 4 -7 2 -16 -6
-12 -10 -17 -10 -23 -1 -4 8 -15 10 -26 6 -14 -6 -16 -4 -11 7 4 8 0 5 -8 -5
-9 -11 -16 -14 -16 -8 0 14 -21 12 -32 -3 -5 -6 -8 -5 -8 3 0 10 -5 10 -20 2
-16 -9 -20 -8 -20 7 0 15 -2 15 -16 -3 -8 -10 -12 -13 -8 -5 6 11 3 13 -12 7
-28 -12 -67 -13 -81 -2 -9 5 -13 4 -13 -5 0 -12 -2 -12 -9 0 -6 9 -10 10 -16
2 -5 -9 -10 -9 -21 0 -11 9 -14 8 -14 -2 0 -12 -2 -12 -9 0 -5 8 -14 10 -22 5
-17 -10 -59 -12 -59 -2 0 4 -5 8 -11 8 -5 0 -7 -6 -3 -12 5 -10 4 -10 -6 -1
-8 7 -20 9 -35 3 -14 -5 -27 -4 -34 3 -8 8 -11 8 -11 -2 0 -11 -3 -11 -15 -1
-12 10 -15 10 -15 0 0 -10 -3 -10 -15 0 -10 9 -15 9 -15 1 0 -6 -5 -11 -11
-11 -5 0 -8 3 -6 8 6 8 -107 7 -122 -2 -5 -4 -12 -3 -15 2 -4 6 -81 8 -81 2 0
-1 -8 -3 -17 -5 -10 -2 -18 2 -18 8 0 7 -5 6 -10 -3 -9 -13 -11 -13 -20 0 -7
11 -10 11 -10 2 0 -9 -5 -10 -18 -3 -11 6 -24 6 -34 0 -11 -6 -19 -5 -24 2 -5
8 -9 7 -14 -2 -7 -10 -12 -10 -23 -1 -7 7 -17 9 -21 5 -12 -12 -36 -12 -36 0
0 8 -3 8 -8 2 -10 -14 -32 -17 -32 -4 0 8 -4 8 -13 0 -10 -8 -17 -7 -27 2 -10
9 -11 9 -6 -1 8 -13 -19 -13 -41 1 -7 5 -13 4 -13 -1 0 -13 -33 -10 -42 3 -5
7 -8 7 -8 0 0 -14 -90 -15 -90 -1 0 6 -4 5 -9 -3 -6 -9 -11 -10 -15 -2 -4 7
-14 8 -24 3 -21 -10 -53 -9 -71 2 -10 6 -12 5 -7 -2 8 -13 -58 -11 -70 1 -4 4
-13 2 -21 -5 -7 -6 -16 -8 -20 -5 -3 4 -13 1 -21 -6 -9 -7 -13 -7 -9 -1 4 8
-16 11 -71 9 -45 -1 -83 2 -91 9 -11 8 -13 8 -7 -1 4 -8 1 -13 -8 -13 -9 0
-16 6 -16 13 0 8 -3 9 -8 1 -5 -7 -55 -11 -150 -10 -78 1 -142 -3 -142 -8 0
-5 -7 -2 -17 5 -9 8 -18 13 -19 11 -8 -7 -64 -20 -60 -14 7 11 -148 8 -156 -3
-5 -6 -8 -4 -8 5 0 13 -1 13 -10 0 -5 -8 -10 -10 -10 -4 0 6 -7 11 -15 11 -8
0 -15 -4 -15 -9 0 -5 -9 -4 -20 2 -15 8 -20 8 -20 -2 0 -9 -3 -9 -10 2 -9 13
-10 13 -10 0 0 -13 -2 -13 -9 -1 -8 12 -12 12 -24 2 -12 -9 -16 -9 -20 1 -4
10 -6 10 -6 -1 -1 -11 -4 -11 -16 -1 -8 7 -15 9 -15 4 0 -12 -73 -11 -82 1 -5
6 -8 5 -8 -4 0 -11 -3 -11 -15 -1 -9 7 -15 8 -15 2 0 -12 -33 -10 -42 3 -5 6
-8 4 -8 -5 0 -13 -1 -13 -10 0 -5 8 -10 11 -10 5 0 -11 -72 -11 -91 0 -8 5
-10 4 -5 -3 4 -7 3 -12 -3 -12 -5 0 -12 6 -14 13 -4 10 -6 10 -6 0 -1 -7 -6
-13 -12 -13 -5 0 -7 5 -4 10 12 19 -70 -24 -97 -51 -14 -15 -29 -24 -33 -21
-4 4 -6 2 -5 -3 5 -21 0 -36 -10 -30 -6 4 -9 3 -8 -2 3 -12 -34 -86 -52 -101
-13 -11 -13 -12 0 -6 14 7 -14 -33 -33 -47 -5 -3 -9 -10 -9 -15 -1 -19 -21
-53 -29 -49 -4 3 -5 -5 -1 -17 3 -14 2 -19 -6 -14 -7 4 -12 1 -12 -8 0 -8 -7
-22 -16 -30 -8 -9 -16 -25 -17 -35 0 -11 -4 -18 -8 -15 -4 2 -10 -4 -14 -14
-3 -9 -5 -18 -3 -19 2 -1 -8 -14 -22 -29 -14 -15 -18 -24 -10 -20 9 5 8 2 -2
-7 -10 -8 -15 -17 -11 -20 3 -4 2 -7 -4 -7 -6 0 -14 -11 -17 -25 -4 -15 -14
-25 -24 -25 -15 0 -15 -2 -2 -10 10 -6 11 -10 3 -10 -7 0 -13 -7 -13 -15 0 -8
-4 -15 -9 -15 -5 0 -12 -11 -15 -25 -4 -16 -11 -23 -18 -19 -6 4 -8 3 -4 -4 3
-6 2 -13 -4 -17 -6 -4 -8 -11 -5 -16 4 -5 2 -9 -4 -9 -13 0 -42 -60 -34 -73 3
-5 1 -7 -4 -4 -6 4 -17 -1 -24 -10 -10 -12 -10 -14 -1 -9 20 12 14 -5 -10 -25
-11 -11 -17 -19 -12 -19 5 0 3 -4 -4 -9 -7 -4 -15 -17 -16 -27 -2 -10 -9 -18
-15 -17 -6 2 -10 0 -8 -5 6 -18 -19 -13 -29 7 -6 11 -14 18 -18 14 -4 -4 -4
-1 -1 8 3 8 -6 30 -19 48 -14 19 -23 37 -21 41 3 5 -2 10 -10 14 -8 3 -15 12
-15 21 0 8 -5 15 -11 15 -5 0 -7 5 -4 10 3 6 1 10 -5 10 -6 0 -8 5 -5 10 3 6
2 10 -3 10 -5 0 -17 18 -27 40 -10 22 -22 40 -28 40 -5 0 -7 6 -4 13 4 12 -17
40 -25 32 -2 -2 -5 6 -5 18 -1 11 -12 30 -25 40 -13 10 -17 16 -10 12 19 -10
14 9 -7 24 -11 8 -17 20 -15 26 3 7 -2 15 -11 19 -10 3 -15 12 -11 21 3 10 -1
15 -11 15 -9 0 -13 3 -10 7 4 3 -1 15 -10 26 -13 15 -14 18 -3 12 8 -4 5 2 -8
14 -12 12 -20 26 -17 32 4 5 -1 9 -9 9 -10 0 -16 9 -16 25 0 14 -7 28 -16 32
-8 3 -13 11 -11 18 3 6 -4 17 -14 24 -11 6 -17 16 -13 22 3 5 -4 18 -16 29
-12 10 -21 21 -21 24 3 20 0 26 -9 21 -6 -3 -7 1 -4 9 3 9 2 16 -2 16 -10 0
-40 60 -36 72 1 5 -1 7 -6 7 -20 -3 -32 2 -32 16 0 8 -3 15 -7 16 -26 2 -47 9
-52 16 -10 13 -71 14 -71 0 0 -8 -3 -8 -9 1 -5 9 -21 12 -44 9 -19 -2 -41 0
-48 7 -9 8 -10 7 -5 -8 5 -14 3 -16 -6 -9 -17 13 -79 13 -97 -1 -11 -8 -13 -8
-8 1 5 8 -5 11 -38 10 -25 -1 -45 -6 -45 -12 0 -5 -5 -3 -10 5 -5 8 -10 11
-10 5 0 -5 -5 -3 -10 5 -6 9 -10 11 -10 3 0 -7 -7 -10 -17 -6 -12 5 -14 3 -8
-7 6 -10 4 -11 -6 -4 -24 14 -51 16 -43 2 6 -10 4 -11 -7 0 -16 15 -33 16 -23
0 5 -7 3 -8 -7 -2 -20 12 -39 14 -39 3 0 -6 -5 -7 -10 -4 -6 4 -7 12 -3 18 4
7 0 6 -10 -2 -9 -7 -17 -10 -17 -6 0 4 -7 2 -16 -6 -10 -8 -18 -9 -22 -3 -8
12 -52 12 -70 1 -6 -5 -12 -4 -12 1 0 12 -53 10 -62 -3 -5 -6 -11 -6 -19 2 -8
8 -19 9 -36 2 -17 -6 -22 -6 -17 2 5 8 1 8 -14 0 -15 -8 -23 -8 -28 0 -4 8 -9
7 -15 -2 -7 -12 -9 -12 -9 0 0 10 -3 11 -14 2 -11 -9 -16 -9 -21 0 -6 8 -10 7
-16 -2 -7 -11 -9 -11 -9 -1 0 8 -5 10 -12 6 -18 -11 -48 -12 -54 -2 -3 5 -12
4 -20 -3 -11 -9 -14 -9 -14 1 0 10 -3 10 -15 0 -12 -10 -15 -10 -15 0 0 10 -3
10 -15 0 -11 -9 -15 -9 -15 -1 0 9 -5 9 -21 0 -16 -8 -20 -8 -14 1 6 9 2 9
-14 1 -14 -8 -21 -8 -21 -1 0 7 -7 7 -21 -1 -15 -8 -19 -8 -15 0 5 8 0 8 -18
1 -14 -5 -28 -6 -30 -1 -6 8 -90 6 -105 -4 -5 -3 -12 -1 -15 3 -6 10 -48 8
-65 -2 -5 -4 -13 -2 -16 4 -5 8 -11 7 -21 -1 -11 -9 -14 -9 -14 1 0 10 -3 10
-14 1 -10 -8 -16 -9 -21 -1 -3 6 -12 7 -18 3 -20 -12 -37 -12 -37 0 0 8 -3 7
-9 -2 -6 -9 -10 -10 -16 -2 -5 9 -11 9 -22 -1 -19 -15 -23 -15 -34 4 -6 9 -11
10 -16 2 -5 -5 -19 -10 -33 -10 -14 0 -28 5 -32 10 -5 8 -8 8 -8 0 0 -6 -7
-11 -15 -11 -8 0 -15 5 -15 10 0 5 -8 3 -17 -4 -14 -12 -16 -12 -8 0 6 11 5
12 -6 5 -20 -13 -70 -14 -62 -1 4 6 1 7 -8 1 -19 -11 -78 -13 -85 -3 -3 5 -11
6 -17 2 -19 -12 -61 -12 -76 1 -11 8 -13 8 -7 -1 4 -7 3 -13 -3 -13 -5 0 -13
5 -16 10 -4 6 -12 7 -18 3 -20 -12 -91 -12 -99 1 -5 6 -8 7 -8 1 0 -13 -139
-14 -159 -1 -10 6 -12 6 -7 -2 4 -7 1 -12 -9 -12 -10 0 -13 5 -9 13 6 9 5 9
-7 0 -9 -7 -38 -11 -69 -9 -30 2 -63 -1 -72 -6 -10 -5 -19 -4 -23 2 -5 8 -11
8 -19 1 -7 -6 -16 -8 -20 -4 -10 10 -156 10 -156 0 0 -5 -6 -5 -12 0 -16 9
-48 10 -69 1 -9 -4 -26 0 -39 9 -13 9 -20 12 -17 6 4 -6 0 -13 -8 -17 -8 -3
-15 -2 -15 2 0 4 -13 7 -30 7 -16 0 -30 -3 -30 -7 0 -4 -11 -3 -25 2 -16 6
-25 6 -25 -1 0 -6 -7 -6 -20 1 -14 8 -20 8 -20 0 0 -6 -5 -8 -13 -3 -18 11
-37 12 -37 2 0 -6 -8 -5 -20 1 -15 8 -20 8 -20 -2 0 -9 -3 -9 -10 2 -5 8 -10
11 -10 5 0 -5 -13 -10 -30 -10 -16 0 -30 5 -30 10 0 7 -3 7 -8 0 -4 -5 -20
-10 -37 -10 -16 0 -33 5 -37 10 -5 7 -8 7 -8 0 0 -5 -11 -10 -25 -10 -14 0
-25 2 -25 5 0 3 -9 6 -20 6 -14 0 -19 -5 -15 -15 4 -10 2 -11 -8 -3 -8 7 -51
10 -109 9 -53 -1 -94 2 -91 7 3 5 -2 4 -12 -2 -11 -5 -30 -6 -46 -2 -15 5 -30
5 -34 2 -10 -10 -99 -8 -107 3 -5 6 -8 5 -8 -4 0 -11 -3 -11 -17 0 -9 8 -14 9
-11 4 4 -7 -10 -11 -40 -11 -69 -1 -77 -5 -127 -50 -13 -12 -27 -19 -30 -15
-4 3 -6 2 -5 -4 4 -21 0 -36 -9 -31 -5 4 -8 -2 -7 -11 3 -18 -14 -44 -25 -37
-3 2 -6 -3 -7 -11 -1 -8 -3 -22 -4 -30 -1 -8 -7 -15 -14 -15 -8 0 -11 -6 -7
-15 3 -9 1 -15 -5 -13 -5 2 -10 1 -9 -2 1 -7 -35 -70 -53 -92 -8 -10 -15 -22
-16 -26 -2 -22 -18 -41 -28 -35 -6 3 -8 3 -4 -1 9 -11 -12 -67 -23 -60 -5 3
-9 -2 -9 -10 0 -8 -8 -22 -18 -32 -9 -10 -17 -20 -17 -23 0 -3 -3 -5 -7 -4 -4
2 -5 -4 -2 -12 6 -15 -29 -68 -39 -59 -3 3 -5 -1 -4 -8 1 -34 -4 -48 -19 -48
-8 0 -13 -4 -10 -9 3 -5 -1 -14 -9 -21 -8 -7 -12 -16 -9 -21 3 -5 0 -9 -6 -9
-6 0 -8 -4 -5 -10 3 -5 -1 -10 -9 -10 -8 0 -13 -6 -10 -13 2 -7 -4 -22 -15
-34 -11 -11 -18 -23 -15 -26 2 -2 -2 -10 -11 -17 -8 -7 -15 -19 -15 -27 0 -8
-4 -12 -8 -9 -4 2 -9 -5 -9 -17 -1 -12 -10 -27 -19 -34 -9 -6 -13 -16 -9 -22
3 -6 1 -11 -5 -11 -6 0 -15 -11 -22 -25 -6 -13 -16 -21 -22 -18 -6 4 -4 -2 4
-12 8 -10 10 -16 4 -12 -11 6 -29 -19 -26 -35 1 -5 -2 -8 -6 -8 -10 0 -37 -50
-34 -62 1 -5 -3 -8 -8 -8 -6 0 -10 -6 -10 -14 0 -8 -5 -18 -12 -22 -7 -5 -8
-3 -3 6 5 8 4 11 -3 6 -6 -4 -9 -13 -5 -21 3 -8 0 -15 -7 -15 -6 0 -8 -5 -5
-10 3 -6 -1 -13 -9 -16 -9 -3 -14 -10 -11 -14 3 -5 -1 -14 -8 -22 -7 -7 -15
-17 -16 -23 -2 -5 -7 -9 -12 -8 -5 2 -8 0 -7 -5 4 -15 -14 -52 -23 -47 -5 3
-6 -1 -3 -9 4 -9 -1 -18 -10 -22 -9 -3 -14 -9 -11 -13 2 -4 -7 -24 -20 -44
-14 -20 -25 -41 -25 -46 0 -6 -5 -11 -11 -11 -5 0 -7 -4 -4 -10 3 -5 1 -10 -4
-10 -6 0 -11 -7 -11 -15 0 -8 -8 -15 -17 -16 -10 0 -13 -3 -6 -5 7 -3 9 -12 6
-20 -3 -7 -10 -11 -16 -7 -6 4 -8 0 -4 -10 3 -9 0 -18 -9 -21 -9 -3 -12 -10
-9 -16 3 -5 1 -10 -4 -10 -6 0 -11 -7 -11 -15 0 -7 -8 -19 -17 -24 -10 -6 -14
-11 -9 -11 5 0 3 -7 -4 -15 -7 -8 -9 -15 -5 -15 5 0 -2 -9 -15 -20 -13 -11
-20 -20 -16 -20 4 0 -7 -20 -24 -45 -17 -25 -28 -45 -25 -45 4 0 -1 -7 -9 -16
-9 -8 -14 -19 -11 -24 3 -4 -2 -11 -11 -14 -9 -4 -14 -9 -11 -12 3 -4 -1 -13
-9 -21 -8 -8 -12 -19 -8 -24 3 -5 0 -8 -8 -7 -7 2 -12 -3 -11 -9 2 -7 -2 -13
-8 -13 -5 0 -7 -4 -4 -10 3 -5 1 -10 -5 -10 -6 0 -8 -4 -5 -10 3 -5 1 -10 -4
-10 -6 0 -11 -7 -11 -16 0 -9 -5 -12 -12 -8 -8 5 -9 2 -5 -9 4 -10 0 -20 -11
-26 -9 -5 -16 -12 -15 -15 3 -13 -10 -45 -17 -41 -7 5 -23 -32 -21 -47 1 -5
-4 -8 -9 -8 -6 0 -10 -7 -10 -15 0 -9 -7 -18 -15 -21 -8 -4 -12 -10 -9 -15 3
-5 0 -9 -5 -9 -6 0 -10 -3 -10 -7 4 -22 -2 -33 -13 -27 -8 5 -9 2 -5 -9 4 -11
1 -17 -9 -17 -9 0 -12 -5 -8 -11 3 -6 3 -14 -2 -18 -12 -8 -44 -61 -51 -83 -3
-10 -9 -18 -14 -18 -5 0 -9 -7 -9 -15 0 -8 -5 -15 -12 -15 -6 0 -8 -3 -5 -7 4
-3 1 -13 -7 -22 -8 -9 -16 -20 -18 -26 -2 -5 -7 -9 -11 -7 -5 1 -5 -3 -1 -9 3
-6 2 -14 -4 -18 -6 -3 -12 -13 -14 -21 -3 -14 -6 -19 -34 -52 -6 -8 -8 -20 -6
-27 3 -8 0 -11 -6 -7 -6 3 -14 -4 -18 -16 -4 -13 -20 -43 -37 -67 -17 -24 -24
-41 -16 -37 8 4 5 0 -6 -9 -11 -9 -19 -20 -18 -25 2 -5 -6 -14 -17 -20 -11 -6
-18 -15 -15 -21 4 -5 -3 -22 -14 -38 -12 -16 -21 -32 -21 -36 0 -3 -7 -13 -16
-22 -8 -9 -13 -22 -10 -30 3 -8 2 -11 -3 -8 -5 3 -12 -4 -16 -15 -3 -11 -11
-20 -16 -20 -6 0 -8 -4 -5 -8 3 -5 -4 -19 -15 -31 -11 -12 -18 -25 -15 -29 3
-5 -3 -14 -14 -22 -10 -7 -16 -19 -13 -27 3 -7 1 -13 -5 -13 -5 0 -17 -16 -26
-35 -9 -19 -21 -35 -27 -35 -6 0 -8 -4 -5 -9 3 -5 -1 -14 -9 -21 -8 -7 -12
-16 -10 -21 3 -4 -3 -12 -12 -18 -10 -6 -14 -11 -10 -11 5 0 -1 -13 -12 -29
-12 -16 -21 -32 -21 -36 0 -4 -9 -18 -20 -32 -11 -14 -17 -29 -14 -34 3 -5 1
-9 -5 -9 -6 0 -19 -18 -29 -40 -10 -22 -22 -37 -26 -33 -5 5 -3 -2 3 -14 7
-13 8 -23 2 -23 -11 0 -9 -19 3 -39 7 -10 5 -12 -5 -6 -11 6 -12 5 -2 -6 7 -7
13 -21 13 -31 0 -10 5 -18 11 -18 5 0 8 -4 5 -9 -3 -4 3 -19 14 -31 11 -12 18
-26 15 -29 -2 -4 5 -14 16 -21 10 -8 19 -23 19 -33 0 -10 4 -15 10 -12 5 3 7
0 4 -8 -3 -9 4 -22 16 -30 12 -9 19 -20 15 -26 -3 -6 -2 -11 3 -11 4 0 14 -16
22 -35 7 -19 18 -31 23 -28 6 4 8 0 4 -10 -4 -11 -1 -17 9 -17 8 0 13 -4 9 -9
-3 -5 2 -17 11 -25 8 -9 12 -16 7 -16 -4 0 1 -7 11 -15 11 -8 14 -15 7 -15 -6
0 0 -11 15 -25 15 -14 21 -25 14 -25 -8 0 -4 -8 8 -19 12 -10 19 -21 15 -25
-3 -3 -1 -6 6 -6 7 0 10 -4 6 -9 -3 -5 3 -16 13 -23 11 -7 18 -21 16 -31 -1
-9 2 -15 7 -11 5 3 9 -2 9 -10 0 -9 5 -16 11 -16 5 0 7 -4 4 -10 -3 -5 -1 -10
5 -10 6 0 8 -4 5 -10 -3 -5 -1 -10 4 -10 6 0 11 -7 11 -15 0 -8 5 -15 11 -15
5 0 7 -4 4 -10 -3 -5 -1 -10 5 -10 7 0 9 -7 6 -16 -3 -8 -2 -12 4 -9 5 3 14
-4 20 -15 6 -11 7 -20 3 -20 -4 0 0 -5 9 -11 10 -5 18 -21 18 -34 0 -14 7 -26
18 -29 10 -3 18 -15 19 -27 1 -11 10 -28 20 -37 10 -10 19 -23 21 -31 2 -8 11
-21 20 -29 9 -7 11 -11 5 -7 -18 9 -16 2 7 -25 11 -12 17 -27 13 -33 -3 -6 -1
-7 5 -3 7 4 12 1 12 -8 0 -9 5 -16 11 -16 5 0 8 -4 4 -9 -3 -5 2 -16 10 -24 8
-9 15 -19 15 -24 0 -4 9 -19 20 -33 11 -14 20 -33 20 -43 0 -10 5 -15 10 -12
9 6 14 -8 11 -27 0 -5 3 -8 8 -8 5 0 14 -13 21 -30 7 -16 17 -30 22 -30 5 0 6
-4 3 -10 -3 -5 -1 -10 5 -10 6 0 8 -4 5 -10 -3 -5 -1 -10 4 -10 6 0 11 -7 11
-15 0 -8 5 -15 10 -15 6 0 10 -7 10 -15 0 -8 5 -15 11 -15 5 0 7 -4 4 -10 -3
-5 -1 -10 5 -10 6 0 8 -4 5 -10 -3 -5 -1 -10 5 -10 6 0 8 -4 5 -10 -3 -5 -1
-10 5 -10 6 0 8 -4 5 -10 -3 -5 0 -10 8 -10 8 0 18 -7 21 -16 6 -15 4 -15 -11
-3 -14 11 -13 9 2 -13 11 -15 24 -28 28 -28 5 0 5 -4 2 -10 -3 -5 -1 -10 5
-10 6 0 8 -4 5 -10 -3 -5 0 -10 9 -10 8 0 13 -8 12 -17 -2 -10 7 -26 18 -36
12 -10 14 -16 6 -12 -8 4 -6 -2 6 -12 11 -10 19 -24 16 -31 -2 -6 5 -12 15
-12 15 0 16 -2 3 -10 -13 -9 -7 -14 12 -11 5 0 7 -2 6 -7 -2 -11 14 -45 34
-71 10 -13 16 -27 13 -31 -3 -4 2 -10 10 -14 8 -3 15 -15 15 -26 0 -12 5 -18
10 -15 6 3 10 -1 10 -9 0 -9 5 -16 12 -16 6 0 8 -3 5 -7 -4 -3 1 -12 11 -20 9
-8 11 -12 5 -8 -21 10 -15 -9 7 -25 14 -10 16 -16 7 -22 -8 -5 -7 -8 5 -8 9 0
20 -10 24 -22 4 -13 11 -26 16 -29 5 -3 10 -15 11 -27 0 -11 5 -18 9 -16 4 3
8 -2 8 -10 0 -9 5 -16 10 -16 6 0 10 -9 10 -19 0 -10 7 -22 16 -25 8 -3 12
-10 9 -16 -3 -5 -3 -10 2 -10 4 0 14 -14 21 -30 8 -17 17 -28 21 -25 4 2 8 -2
9 -10 1 -8 3 -22 4 -30 1 -8 5 -12 10 -9 4 3 8 -3 8 -12 0 -10 9 -27 19 -38
11 -12 21 -28 23 -36 2 -8 9 -21 16 -28 7 -8 9 -18 6 -24 -4 -7 -2 -8 4 -4 7
4 12 2 12 -4 0 -7 9 -23 20 -37 11 -14 20 -32 20 -39 0 -8 9 -23 21 -35 11
-11 18 -27 15 -35 -3 -8 -2 -13 2 -10 5 3 16 -4 25 -14 11 -13 12 -20 4 -24
-7 -2 -4 -5 5 -5 10 -1 17 -4 16 -8 -4 -16 14 -53 23 -48 5 4 9 -3 9 -15 0
-11 6 -23 14 -26 8 -3 12 -12 9 -20 -3 -8 0 -14 6 -14 6 0 11 -7 11 -15 0 -8
5 -15 11 -15 5 0 7 -4 4 -10 -3 -5 1 -10 9 -10 9 0 13 -7 11 -20 -2 -11 1 -20
6 -20 5 0 14 -10 19 -22 5 -13 18 -36 29 -52 11 -17 17 -34 14 -39 -3 -6 -2
-7 3 -4 6 3 16 -9 24 -26 8 -18 21 -39 30 -47 9 -8 10 -11 3 -6 -10 6 -12 4
-7 -8 3 -9 12 -16 20 -16 7 0 11 -6 8 -14 -3 -8 3 -19 15 -25 11 -6 18 -17 15
-25 -3 -7 2 -16 10 -19 9 -4 16 -18 16 -32 0 -16 6 -25 16 -25 8 0 13 -4 9 -9
-3 -5 1 -16 9 -24 8 -8 12 -17 9 -21 -4 -3 -1 -6 5 -6 7 0 12 -6 12 -14 0 -8
5 -16 10 -18 6 -2 12 -13 13 -25 0 -12 5 -19 9 -17 4 3 8 -2 8 -10 0 -9 5 -16
10 -16 6 0 10 -7 10 -15 0 -9 6 -18 14 -21 8 -3 12 -12 9 -20 -3 -8 0 -14 7
-14 7 0 10 -7 6 -16 -3 -8 -2 -13 3 -10 9 6 26 -22 23 -36 -1 -5 2 -8 7 -8 5
0 13 -9 16 -20 3 -11 12 -26 18 -33 19 -21 37 -56 37 -72 0 -9 4 -13 10 -10 5
3 10 -1 10 -9 0 -9 5 -16 11 -16 5 0 7 -4 4 -10 -3 -5 -1 -10 5 -10 7 0 9 -7
6 -15 -3 -9 1 -18 9 -21 8 -4 12 -10 9 -15 -3 -5 -1 -9 4 -9 5 0 15 -12 23
-27 8 -16 20 -34 27 -41 7 -8 10 -18 7 -23 -4 -5 -1 -9 4 -9 6 0 11 -6 11 -13
0 -7 9 -23 20 -35 11 -12 20 -24 20 -27 -1 -21 2 -25 15 -25 8 0 15 -5 15 -11
0 -5 -6 -7 -12 -3 -7 5 -3 -5 10 -20 12 -16 19 -33 15 -39 -3 -6 -1 -7 5 -3 7
4 12 2 12 -4 0 -6 9 -20 20 -32 11 -12 20 -30 20 -40 0 -10 5 -18 10 -18 6 0
10 -7 10 -16 0 -8 4 -13 8 -10 4 2 9 -5 9 -17 1 -12 7 -23 13 -25 5 -2 10 -9
10 -16 0 -7 9 -22 20 -34 11 -12 21 -25 22 -29 5 -28 12 -43 19 -43 5 0 9 -6
9 -13 0 -7 10 -23 23 -37 13 -14 22 -31 19 -38 -2 -6 2 -12 9 -12 7 0 10 -3 6
-6 -3 -3 3 -15 14 -27 10 -11 19 -29 19 -39 0 -10 7 -21 15 -24 8 -4 12 -10 9
-15 -3 -5 0 -9 5 -9 6 0 11 -7 11 -15 0 -9 7 -18 15 -21 8 -4 12 -10 9 -15 -3
-5 0 -9 6 -9 6 0 9 -4 5 -9 -3 -5 2 -16 10 -24 8 -9 15 -23 15 -32 0 -9 4 -14
8 -11 5 3 15 -10 22 -29 7 -19 16 -32 20 -30 3 2 6 -5 7 -15 1 -11 11 -29 22
-42 12 -12 21 -30 21 -39 0 -10 6 -22 14 -26 8 -4 16 -15 18 -23 2 -8 11 -23
21 -34 16 -18 22 -38 18 -59 -1 -5 3 -6 8 -3 12 8 34 -20 38 -47 2 -12 8 -23
13 -25 6 -2 10 -10 10 -17 0 -7 7 -16 16 -19 8 -3 12 -11 9 -16 -4 -6 3 -19
14 -29 23 -20 28 -36 9 -26 -7 4 -2 -3 12 -15 14 -12 18 -19 10 -15 -10 4 -9
2 2 -8 10 -8 15 -17 11 -20 -3 -4 -1 -7 5 -7 7 0 12 -7 12 -15 0 -8 5 -15 11
-15 6 0 8 -7 5 -16 -3 -8 -2 -12 4 -9 6 3 10 -1 10 -9 0 -9 5 -16 11 -16 5 0
7 -4 4 -10 -3 -5 -1 -10 5 -10 6 0 8 -4 5 -10 -3 -5 -1 -10 6 -10 7 0 9 -3 6
-6 -4 -4 1 -14 11 -23 9 -9 18 -23 20 -31 2 -8 8 -16 13 -18 5 -2 9 -10 9 -19
0 -8 6 -21 12 -28 29 -33 38 -45 33 -45 -3 0 1 -10 10 -23 8 -13 12 -27 8 -32
-5 -4 -2 -5 5 -1 7 4 12 1 12 -9 0 -10 5 -13 12 -9 6 4 8 3 5 -3 -4 -6 4 -27
17 -46 13 -19 22 -38 18 -41 -3 -3 1 -6 8 -6 7 0 11 -3 7 -6 -3 -4 1 -13 9
-21 8 -8 12 -19 9 -24 -4 -5 1 -9 10 -9 9 0 14 -4 11 -9 -3 -5 4 -19 17 -33
12 -13 21 -31 19 -40 -2 -9 6 -19 18 -23 11 -3 18 -10 15 -15 -8 -12 6 -41 16
-34 5 3 9 -3 9 -13 0 -10 9 -29 20 -43 11 -14 20 -29 20 -33 0 -5 7 -15 15
-24 8 -8 13 -19 10 -24 -4 -5 -1 -9 4 -9 6 0 11 -8 11 -18 0 -9 9 -23 20 -30
12 -7 18 -17 15 -22 -3 -5 3 -13 12 -19 10 -6 15 -11 10 -11 -7 0 21 -50 34
-60 4 -3 9 -14 11 -25 1 -11 11 -26 20 -33 10 -7 18 -22 18 -33 0 -11 5 -17
10 -14 6 3 10 -3 10 -14 0 -12 4 -21 8 -21 4 0 14 -16 21 -35 7 -19 16 -35 20
-35 8 0 35 -50 33 -61 -1 -4 8 -15 18 -24 11 -10 20 -26 20 -35 0 -10 7 -21
16 -24 8 -3 12 -10 9 -16 -3 -5 -1 -10 6 -10 7 0 10 -3 6 -6 -3 -4 1 -13 9
-21 8 -8 12 -19 9 -24 -4 -5 1 -9 10 -9 9 0 14 -4 10 -9 -3 -5 -1 -12 5 -16 6
-4 7 -11 4 -17 -5 -7 -2 -9 8 -5 11 4 15 0 14 -11 -2 -9 3 -23 11 -30 7 -8 11
-18 8 -23 -4 -5 1 -9 10 -9 11 0 15 -5 11 -15 -3 -8 -2 -15 2 -15 4 0 16 -14
25 -30 10 -17 15 -30 11 -30 -4 0 3 -8 14 -19 12 -10 19 -21 15 -25 -3 -3 -1
-6 6 -6 7 0 11 -6 8 -13 -3 -7 4 -19 14 -25 11 -7 19 -24 19 -40 0 -21 2 -24
10 -12 8 12 10 11 10 -7 0 -13 4 -23 8 -23 5 0 14 -16 22 -35 8 -19 17 -35 22
-35 4 0 8 -7 8 -15 0 -8 4 -15 10 -15 5 0 9 -3 9 -7 -4 -22 2 -33 13 -27 8 5
9 2 5 -9 -3 -10 -2 -17 4 -17 6 0 8 -4 5 -9 -3 -5 1 -11 9 -15 8 -3 15 -12 15
-21 0 -8 5 -15 11 -15 5 0 7 -4 4 -10 -3 -5 -1 -10 5 -10 6 0 8 -5 5 -10 -3
-6 1 -13 9 -16 9 -3 16 -15 16 -25 0 -11 6 -22 14 -25 8 -3 17 -17 20 -30 4
-14 11 -22 16 -19 5 3 7 -1 4 -9 -3 -8 3 -23 13 -34 10 -10 19 -25 21 -33 2
-8 8 -16 13 -17 5 -2 7 -8 3 -13 -3 -5 0 -9 5 -9 6 0 11 -7 11 -15 0 -8 5 -15
11 -15 5 0 7 -5 4 -10 -3 -6 1 -13 9 -16 9 -3 13 -10 10 -15 -3 -5 0 -9 6 -9
6 0 9 -4 6 -9 -3 -5 8 -27 24 -50 17 -22 30 -45 30 -51 0 -5 5 -10 10 -10 6 0
10 -9 10 -21 0 -13 4 -18 12 -13 8 5 9 2 5 -9 -3 -10 -2 -17 3 -17 15 0 42
-59 33 -73 -4 -7 2 -5 12 3 10 8 16 10 12 3 -5 -7 0 -24 9 -38 9 -14 12 -25 8
-25 -5 0 -1 -5 8 -11 10 -5 18 -17 18 -24 0 -8 5 -15 11 -15 5 0 8 -4 4 -9 -3
-6 0 -13 7 -18 17 -11 47 -49 31 -39 -19 11 -16 -4 4 -23 17 -16 29 -35 77
-126 12 -22 27 -44 34 -48 6 -4 12 -17 12 -28 0 -11 4 -17 10 -14 5 3 10 -3
10 -14 0 -12 5 -21 11 -21 5 0 7 -5 4 -10 -3 -6 1 -13 9 -16 9 -3 16 -17 16
-31 0 -13 4 -21 10 -18 6 3 10 -1 10 -9 0 -9 5 -16 11 -16 5 0 7 -4 4 -10 -3
-5 -1 -10 6 -10 7 0 10 -3 6 -6 -3 -4 1 -13 9 -21 8 -8 12 -19 9 -24 -4 -5 1
-9 9 -9 9 0 13 -7 11 -20 -2 -11 1 -19 8 -17 7 1 11 -4 10 -10 -2 -7 2 -13 7
-13 6 0 10 -9 10 -20 0 -12 7 -20 18 -20 14 0 15 -2 2 -10 -13 -8 -12 -10 3
-10 10 0 16 -4 12 -9 -3 -5 2 -16 10 -24 8 -9 15 -23 15 -32 0 -9 5 -13 10
-10 6 3 10 -3 10 -14 0 -11 5 -23 10 -26 6 -4 8 -11 4 -16 -3 -5 0 -8 6 -7 7
2 14 -5 15 -14 2 -9 12 -27 24 -39 12 -13 21 -30 21 -39 0 -9 9 -25 20 -35 11
-10 20 -27 20 -37 0 -11 4 -17 9 -14 11 7 23 -22 14 -36 -3 -7 -1 -8 5 -4 7 4
12 1 12 -7 0 -8 7 -20 15 -27 8 -7 12 -16 9 -21 -3 -5 0 -9 6 -9 6 0 8 -5 5
-10 -3 -5 1 -10 9 -10 9 0 16 -5 16 -11 0 -5 -6 -7 -12 -3 -7 4 -3 -3 10 -15
12 -12 22 -28 22 -36 0 -8 5 -15 10 -15 6 0 10 -7 10 -15 0 -8 5 -15 10 -15 6
0 10 -6 10 -13 0 -15 58 -108 75 -119 6 -5 5 -8 -4 -8 -9 0 -7 -6 7 -19 12
-10 19 -21 15 -25 -3 -3 0 -6 7 -6 7 0 11 -3 7 -6 -3 -3 5 -18 19 -33 13 -14
22 -32 19 -38 -2 -7 0 -13 5 -13 6 0 10 -7 10 -15 0 -8 4 -15 8 -15 5 0 17
-18 27 -40 10 -22 22 -40 27 -40 4 0 7 -3 6 -7 -3 -12 35 -83 44 -83 4 0 8 -9
8 -21 0 -11 5 -17 10 -14 9 6 14 -8 11 -27 0 -5 4 -8 9 -8 6 0 10 -7 10 -16 0
-8 5 -12 10 -9 6 3 10 0 10 -7 0 -19 23 -68 33 -68 4 0 7 -7 7 -15 0 -8 5 -15
10 -15 6 0 10 -9 10 -20 0 -11 6 -23 14 -26 9 -3 12 -12 9 -21 -4 -11 -2 -14
5 -9 11 6 17 -5 13 -26 0 -5 3 -8 8 -8 5 0 14 -13 21 -30 7 -16 16 -30 21 -30
5 0 9 -9 9 -19 0 -11 3 -21 8 -23 14 -6 53 -69 55 -88 1 -10 5 -16 9 -14 4 3
8 -4 8 -15 0 -11 9 -26 20 -34 11 -8 17 -17 13 -20 -3 -4 0 -7 8 -7 11 0 11
-2 -1 -10 -13 -8 -12 -10 3 -10 10 0 15 -4 12 -10 -3 -5 -1 -10 4 -10 6 0 11
-7 11 -15 0 -9 7 -18 16 -22 13 -5 13 -7 2 -14 -10 -7 -9 -9 5 -9 10 0 16 -3
14 -7 -2 -5 4 -21 14 -38 10 -16 24 -40 30 -52 7 -13 16 -23 21 -23 5 0 6 -4
3 -10 -3 -5 -1 -10 5 -10 7 0 10 -6 7 -13 -5 -15 18 -39 29 -29 4 4 4 -1 1
-10 -4 -11 -2 -18 5 -18 6 0 9 -3 5 -6 -3 -4 1 -13 9 -21 8 -8 12 -19 9 -24
-4 -5 -1 -9 4 -9 6 0 11 -5 11 -11 0 -6 7 -17 15 -26 8 -8 12 -19 9 -25 -4 -7
-2 -8 4 -4 7 4 12 1 12 -8 0 -9 5 -16 11 -16 5 0 7 -4 4 -10 -3 -5 -1 -10 6
-10 7 0 10 -3 6 -6 -3 -4 1 -13 9 -21 8 -8 12 -18 10 -22 -3 -4 4 -14 15 -21
10 -8 19 -20 19 -27 0 -7 4 -13 10 -13 5 0 7 -7 4 -15 -4 -8 -1 -15 5 -15 6 0
11 -7 11 -15 0 -9 7 -18 15 -21 8 -4 13 -10 10 -14 -3 -5 2 -16 11 -24 8 -9
12 -16 8 -16 -4 0 1 -9 11 -20 10 -11 14 -20 9 -20 -5 0 -1 -5 8 -11 10 -5 18
-17 18 -24 0 -8 4 -15 10 -15 5 0 9 -3 9 -7 -3 -21 2 -33 12 -27 7 4 10 1 7
-7 -3 -8 1 -19 9 -24 8 -6 15 -20 16 -32 0 -12 5 -19 9 -17 4 3 8 -2 8 -10 0
-9 5 -16 10 -16 6 0 10 -9 10 -21 0 -11 4 -17 10 -14 5 3 10 -3 10 -14 0 -12
5 -21 10 -21 6 0 10 -6 10 -14 0 -7 7 -19 15 -26 8 -7 12 -16 9 -21 -3 -5 -1
-9 4 -9 5 0 15 -13 22 -30 7 -16 17 -30 22 -30 5 0 7 -4 3 -9 -3 -6 3 -14 12
-20 14 -8 14 -10 3 -11 -10 0 -7 -5 8 -16 12 -8 22 -24 22 -35 0 -13 4 -18 12
-13 8 5 9 2 5 -9 -3 -9 0 -20 8 -24 7 -5 15 -15 17 -23 2 -8 5 -17 8 -20 12
-12 44 -66 43 -72 -2 -3 4 -12 12 -18 8 -7 15 -21 15 -32 0 -10 5 -16 10 -13
6 3 10 -1 10 -9 0 -9 5 -16 11 -16 5 0 8 -4 4 -9 -3 -5 -1 -12 5 -16 6 -4 8
-10 5 -15 -3 -5 1 -12 8 -17 8 -4 22 -23 31 -40 9 -18 21 -33 27 -33 8 0 8 -4
0 -14 -10 -11 -8 -16 8 -21 12 -3 21 -15 21 -25 0 -10 10 -26 22 -34 15 -11
18 -16 8 -16 -11 -1 -11 -3 3 -11 9 -6 15 -14 12 -20 -4 -5 -2 -9 3 -9 5 0 15
-13 22 -30 7 -16 17 -30 22 -30 5 0 7 -4 4 -9 -3 -5 3 -20 14 -33 11 -14 16
-28 13 -32 -3 -3 1 -6 10 -6 11 0 14 -5 10 -17 -4 -11 -3 -14 5 -9 8 5 12 0
12 -13 0 -11 7 -27 16 -35 8 -9 12 -16 8 -16 -4 0 2 -8 13 -17 11 -10 18 -24
16 -30 -3 -7 0 -13 6 -13 6 0 11 -7 11 -15 0 -8 5 -15 11 -15 5 0 7 -4 4 -10
-3 -5 -1 -10 4 -10 6 0 11 -7 11 -15 0 -9 6 -18 14 -21 9 -3 12 -12 9 -21 -4
-11 -2 -14 5 -9 8 5 12 0 12 -13 0 -12 5 -21 10 -21 6 0 10 -10 10 -22 0 -12
3 -19 6 -15 7 6 57 -81 57 -100 0 -7 4 -11 8 -10 4 1 7 -2 8 -6 0 -4 7 -15 16
-23 8 -9 13 -20 10 -25 -4 -5 -1 -9 4 -9 6 0 11 -7 11 -15 0 -8 5 -15 10 -15
6 0 10 -7 10 -15 0 -9 7 -18 15 -21 8 -4 13 -10 10 -14 -3 -5 1 -15 9 -23 8
-8 12 -17 9 -21 -4 -3 -1 -6 5 -6 7 0 12 -9 12 -21 0 -11 5 -17 10 -14 5 3 10
-3 10 -15 0 -11 7 -23 15 -26 8 -4 13 -10 10 -14 -3 -5 -1 -11 5 -15 6 -4 8
-10 5 -15 -3 -5 0 -12 6 -16 8 -5 9 -3 4 7 -5 10 -5 11 3 4 6 -5 12 -19 14
-30 1 -11 11 -27 21 -36 9 -9 17 -22 17 -28 0 -7 9 -21 20 -33 11 -12 20 -30
20 -40 0 -11 5 -16 10 -13 6 3 10 -1 10 -10 0 -9 7 -23 15 -32 8 -8 13 -19 10
-24 -4 -5 -1 -9 4 -9 6 0 11 -7 11 -16 0 -8 4 -12 10 -9 6 3 10 -3 10 -14 0
-12 5 -21 11 -21 5 0 8 -4 4 -9 -3 -5 -1 -12 5 -16 5 -3 17 -21 26 -40 9 -19
21 -35 26 -35 5 0 6 -4 3 -10 -3 -5 -1 -10 5 -10 6 0 8 -5 5 -10 -3 -6 -1 -10
4 -10 6 0 11 -6 11 -13 0 -7 9 -23 19 -34 11 -12 18 -23 15 -26 -2 -2 2 -10
11 -17 8 -7 15 -21 15 -32 0 -12 4 -17 12 -12 7 5 9 2 6 -8 -4 -8 2 -21 12
-28 11 -8 17 -17 14 -21 -2 -4 3 -14 12 -23 8 -9 12 -22 8 -28 -4 -7 -4 -10 1
-6 4 4 14 1 21 -7 17 -17 18 -29 2 -19 -7 4 -2 -6 12 -22 14 -16 28 -30 32
-32 4 -2 4 -10 1 -18 -3 -8 0 -14 6 -14 7 0 17 -14 22 -30 6 -17 16 -30 22
-30 7 0 5 -5 -3 -10 -13 -8 -13 -10 1 -10 18 0 33 -26 23 -41 -3 -5 2 -9 10
-9 18 0 40 -36 31 -50 -3 -6 -1 -10 4 -10 6 0 11 -5 11 -11 0 -6 7 -17 15 -26
8 -8 13 -19 10 -24 -4 -5 -1 -9 4 -9 6 0 11 -6 11 -14 0 -8 7 -17 16 -20 8 -3
12 -10 9 -16 -3 -5 -2 -10 4 -10 5 0 15 -16 22 -34 7 -19 16 -33 21 -30 4 3 8
-4 8 -15 0 -12 4 -21 10 -21 5 0 9 -3 9 -7 -3 -20 2 -34 11 -28 5 3 10 -1 10
-9 0 -9 5 -16 12 -16 6 0 8 -3 5 -6 -7 -7 15 -52 45 -93 10 -13 15 -27 12 -32
-3 -5 2 -9 10 -9 9 0 15 -3 15 -7 -3 -20 2 -34 11 -28 5 3 10 -2 10 -13 0 -10
9 -28 20 -40 12 -12 16 -22 9 -22 -7 0 -2 -8 9 -19 12 -10 19 -21 15 -25 -3
-3 -1 -6 6 -6 7 0 9 -4 6 -10 -3 -5 -2 -10 3 -10 5 0 15 -13 22 -30 7 -16 17
-30 22 -30 5 0 6 -4 3 -10 -3 -5 -1 -10 5 -10 6 0 8 -4 5 -10 -3 -5 -1 -10 5
-10 6 0 9 -4 6 -9 -3 -5 1 -12 10 -15 9 -4 14 -13 10 -22 -3 -8 -2 -13 3 -10
5 3 14 -8 21 -25 7 -17 19 -37 27 -45 8 -7 15 -23 16 -33 0 -11 5 -17 9 -15 4
3 8 -2 8 -10 0 -9 5 -16 11 -16 5 0 7 -5 4 -10 -3 -6 -1 -10 5 -10 6 0 8 -4 5
-10 -3 -5 -1 -10 4 -10 6 0 11 -5 11 -11 0 -6 7 -17 15 -26 8 -8 13 -19 10
-24 -4 -5 -1 -9 4 -9 6 0 11 -7 11 -15 0 -8 5 -15 10 -15 6 0 10 -9 10 -21 0
-11 3 -18 8 -15 4 2 16 -16 27 -40 11 -24 23 -44 27 -44 5 0 8 -7 8 -15 0 -7
8 -19 18 -24 9 -6 11 -11 5 -11 -8 0 -4 -10 10 -26 12 -14 22 -31 22 -37 1 -7
7 -11 15 -9 8 2 12 0 8 -3 -4 -4 -2 -17 4 -29 7 -11 12 -24 13 -28 0 -4 9 -14
20 -23 11 -9 13 -13 5 -9 -12 6 -12 4 1 -12 9 -10 19 -27 22 -37 4 -9 12 -17
19 -17 9 0 8 -3 -2 -10 -13 -8 -13 -10 2 -10 12 0 15 -5 11 -17 -4 -10 -2 -14
4 -10 5 3 20 -16 33 -43 13 -28 27 -50 32 -50 5 0 7 -4 4 -9 -3 -5 1 -14 9
-21 8 -7 12 -16 9 -21 -3 -5 -1 -9 5 -9 6 0 13 -11 17 -25 3 -14 10 -22 15
-19 5 3 9 -1 9 -10 0 -8 6 -17 13 -19 9 -4 9 -6 0 -6 -9 -1 -7 -7 5 -20 38
-43 43 -51 31 -51 -7 0 -2 -8 9 -19 12 -10 22 -21 22 -25 0 -11 34 -42 53 -49
11 -4 15 -12 11 -19 -4 -7 -4 -10 1 -6 4 4 15 2 23 -5 13 -10 14 -9 8 1 -7 11
-4 11 12 1 15 -9 18 -18 12 -29 -5 -9 -4 -23 1 -33 6 -9 7 -17 3 -17 -3 0 0
-8 7 -17 8 -9 9 -14 2 -10 -8 5 -8 1 0 -18 7 -14 16 -25 20 -25 5 0 5 -5 2
-10 -3 -6 -1 -10 5 -10 6 0 8 -4 5 -10 -3 -5 1 -10 10 -10 11 0 15 -5 11 -15
-3 -8 -1 -15 4 -15 6 0 10 -7 10 -15 0 -8 5 -15 11 -15 5 0 7 -4 4 -10 -3 -5
-1 -10 6 -10 7 0 9 -3 6 -6 -4 -4 1 -14 11 -23 9 -9 18 -23 20 -31 2 -8 8 -17
13 -18 5 -2 7 -8 3 -13 -3 -5 0 -9 6 -9 6 0 8 -4 5 -10 -3 -5 -1 -10 4 -10 6
0 11 -7 11 -15 0 -8 5 -15 10 -15 6 0 10 -8 10 -18 0 -10 9 -28 20 -40 11 -12
20 -26 20 -31 0 -6 7 -14 16 -19 9 -5 15 -13 15 -18 -1 -17 10 -44 20 -44 5 0
9 -7 9 -16 0 -8 7 -22 15 -31 8 -8 12 -19 9 -25 -4 -7 -2 -8 4 -4 7 4 12 1 12
-8 0 -9 5 -16 11 -16 5 0 7 -4 4 -10 -3 -5 -2 -10 2 -10 9 0 23 -25 43 -73 7
-15 16 -27 22 -27 5 0 6 -4 3 -10 -3 -5 -1 -10 5 -10 6 0 9 -4 5 -9 -3 -6 1
-13 8 -18 7 -4 19 -23 26 -40 8 -18 18 -33 23 -33 6 0 7 -7 4 -15 -3 -9 1 -18
9 -21 8 -4 15 -12 15 -20 0 -8 5 -14 10 -14 6 0 10 -7 10 -15 0 -8 5 -15 11
-15 5 0 8 -4 5 -9 -3 -5 1 -14 9 -21 8 -7 12 -16 9 -21 -3 -5 2 -9 12 -9 11 0
15 -6 11 -20 -3 -11 -1 -20 4 -20 5 0 16 -15 25 -32 9 -18 22 -36 28 -40 7 -5
6 -8 -4 -8 -10 -1 -8 -5 7 -13 12 -7 23 -16 24 -22 7 -30 24 -65 31 -65 4 0 8
-6 8 -13 0 -7 9 -23 19 -34 11 -12 17 -24 14 -27 -4 -3 -1 -6 6 -6 7 0 9 -4 6
-10 -3 -5 -1 -10 5 -10 6 0 8 -4 5 -10 -3 -5 -1 -10 5 -10 6 0 9 -4 6 -9 -3
-5 1 -12 10 -15 8 -3 12 -10 9 -16 -3 -5 -1 -10 5 -10 6 0 16 -12 23 -27 6
-16 16 -31 22 -35 6 -5 4 -8 -5 -8 -10 0 -7 -5 8 -16 12 -8 22 -22 22 -30 0
-8 5 -14 11 -14 5 0 7 -4 4 -10 -3 -5 -1 -10 5 -10 7 0 10 -7 6 -15 -3 -9 0
-15 9 -15 7 0 17 -5 21 -12 5 -7 3 -8 -7 -3 -8 5 -1 -8 15 -30 16 -21 23 -35
15 -31 -9 5 -8 3 2 -6 9 -7 17 -17 18 -23 2 -5 6 -9 10 -8 4 1 8 -7 8 -19 1
-11 10 -27 21 -36 10 -10 17 -23 15 -29 -3 -7 2 -16 11 -19 9 -3 16 -13 16
-22 0 -9 10 -27 23 -40 12 -14 15 -21 7 -17 -13 8 -13 7 0 -11 8 -10 20 -22
25 -26 6 -5 6 -8 1 -8 -6 0 -2 -6 8 -13 9 -7 18 -22 19 -34 0 -12 4 -20 7 -18
4 2 14 -9 24 -26 9 -16 14 -29 9 -29 -4 0 0 -5 10 -11 9 -6 15 -14 12 -20 -4
-5 -1 -9 4 -9 6 0 11 -7 11 -15 0 -8 5 -15 11 -15 5 0 8 -4 5 -8 -3 -5 4 -16
15 -26 12 -9 18 -23 16 -30 -3 -7 3 -19 14 -27 10 -7 19 -21 19 -31 0 -10 5
-18 10 -18 6 0 10 -7 10 -15 0 -9 7 -18 15 -21 8 -4 13 -10 10 -14 -3 -5 1
-15 9 -23 8 -8 12 -17 9 -21 -4 -3 -1 -6 5 -6 7 0 12 -7 12 -15 0 -8 4 -15 10
-15 5 0 7 -6 4 -14 -3 -7 2 -16 10 -19 9 -4 16 -13 16 -22 0 -8 5 -15 11 -15
5 0 7 -4 4 -10 -3 -5 -2 -10 3 -10 5 0 17 -18 27 -40 10 -22 22 -40 27 -40 5
0 7 -4 4 -9 -3 -5 1 -14 9 -21 8 -7 15 -19 15 -26 0 -8 5 -14 10 -14 6 0 10
-9 10 -20 0 -10 8 -23 17 -29 10 -5 15 -13 11 -16 -4 -4 2 -16 13 -28 10 -11
19 -27 19 -34 0 -7 5 -13 10 -13 6 0 10 -7 10 -15 0 -8 5 -15 11 -15 5 0 7 -5
4 -10 -3 -6 1 -13 9 -16 9 -3 16 -11 16 -17 0 -6 8 -19 17 -30 10 -11 12 -17
5 -13 -11 7 -12 4 -3 -13 7 -11 16 -21 22 -21 6 0 7 -4 4 -10 -3 -5 -3 -10 2
-10 4 0 16 -18 27 -40 10 -21 25 -41 33 -44 8 -3 12 -10 8 -15 -3 -5 -1 -12 5
-16 6 -4 8 -11 5 -16 -4 -5 -1 -9 4 -9 6 0 11 -7 11 -16 0 -8 5 -12 10 -9 6 4
10 -5 10 -20 0 -14 4 -24 8 -21 4 2 14 -4 21 -16 9 -15 9 -18 0 -13 -6 4 -1
-7 12 -26 13 -19 27 -36 32 -37 4 -2 5 -8 1 -13 -3 -5 0 -9 6 -9 7 0 10 -5 8
-12 -2 -6 7 -22 20 -35 12 -13 20 -28 17 -33 -3 -6 -1 -10 5 -10 7 0 10 -7 6
-15 -3 -8 0 -15 7 -15 7 0 23 -23 36 -50 14 -28 29 -50 33 -50 4 0 8 -8 8 -18
0 -10 9 -24 19 -32 11 -7 18 -17 15 -21 -7 -12 69 -52 99 -52 15 0 27 -4 27
-10 0 -5 6 -4 14 2 11 9 15 9 19 -1 4 -10 6 -10 6 1 1 11 4 11 16 1 12 -10 15
-10 15 0 0 10 3 10 15 0 12 -10 15 -10 15 0 0 10 3 10 15 0 12 -10 18 -10 29
-1 11 9 16 9 21 0 6 -8 10 -7 16 2 7 12 9 12 9 0 0 -10 3 -11 13 -2 8 6 17 8
21 4 12 -12 36 -12 36 0 0 9 2 9 8 0 8 -13 29 -12 51 1 9 6 12 5 7 -2 -8 -14
34 -12 53 2 11 8 13 8 7 -1 -9 -16 42 -15 63 1 11 8 13 8 8 0 -9 -16 82 -17
101 -2 10 8 13 9 9 2 -4 -7 0 -14 8 -18 8 -3 15 0 15 7 0 8 4 6 10 -3 9 -13
10 -13 10 0 0 13 1 13 10 0 7 -11 10 -11 10 -2 0 7 5 10 11 6 6 -3 63 -7 128
-7 69 0 122 -4 130 -11 11 -8 13 -8 8 0 -9 15 165 14 176 -1 5 -7 10 -7 15 0
11 15 46 19 37 5 -5 -9 -1 -8 16 0 17 10 24 10 27 1 2 -6 8 -9 13 -5 19 11 49
12 49 1 0 -7 4 -6 10 3 5 8 10 10 10 3 0 -12 17 -12 38 0 7 5 12 3 12 -3 0 -7
6 -8 19 -1 10 6 21 8 24 4 10 -9 88 -10 94 0 3 4 11 0 17 -9 7 -9 16 -13 19
-7 6 9 318 9 343 -1 8 -3 14 0 14 7 0 8 4 6 10 -3 5 -8 10 -10 10 -5 0 7 24 8
65 5 40 -3 67 -2 69 5 3 7 5 7 5 0 1 -11 103 -11 120 -1 5 4 12 2 16 -3 3 -5
14 -8 25 -6 11 2 20 -2 20 -8 0 -8 3 -8 9 1 11 17 21 17 32 0 6 -8 9 -9 9 -1
0 13 18 12 39 -1 10 -6 12 -5 7 2 -9 16 7 15 22 0 7 -7 12 -8 12 -2 0 5 9 10
20 11 13 1 18 -2 14 -9 -5 -7 -2 -8 7 -2 21 13 39 14 39 1 0 -8 3 -8 8 -2 9
13 35 13 44 1 4 -6 13 -4 22 3 13 11 16 11 16 0 0 -11 2 -11 10 1 5 8 10 10
10 3 0 -13 18 -12 39 1 10 6 12 5 7 -2 -9 -16 7 -15 22 0 7 7 12 8 12 2 0 -6
16 -11 35 -11 19 0 32 5 28 10 -3 5 4 4 15 -2 14 -8 23 -8 27 -1 4 7 12 7 18
2 17 -12 80 -15 72 -2 -3 6 0 7 9 4 9 -3 13 -11 9 -17 -4 -6 -1 -7 7 -2 19 12
132 13 148 2 7 -6 12 -6 12 1 0 7 10 8 30 2 17 -5 30 -5 30 0 0 5 13 5 30 0
19 -5 30 -5 30 1 0 6 5 7 11 3 15 -9 124 -8 140 2 8 5 9 3 4 -6 -6 -10 -4 -12
10 -7 9 4 25 2 33 -5 10 -8 13 -9 9 -2 -4 7 0 15 9 18 10 4 13 2 8 -6 -5 -7 0
-9 14 -6 13 4 22 1 22 -5 0 -8 3 -8 8 1 7 10 15 10 37 2 26 -10 27 -9 14 6
-13 16 -12 16 8 6 12 -7 29 -9 39 -5 13 5 15 3 9 -7 -5 -9 -4 -11 3 -6 19 12
52 16 52 6 0 -4 9 -6 20 -3 11 3 17 10 14 17 -3 6 1 4 8 -6 10 -12 19 -13 31
-7 11 7 17 7 17 0 0 -10 19 -9 38 2 6 5 12 4 12 -1 0 -10 30 -10 46 1 6 3 14
3 18 0 4 -4 64 -7 134 -8 70 0 132 -4 139 -8 6 -4 14 -3 17 2 7 10 31 9 42 -2
4 -4 13 -2 21 4 10 9 13 8 13 -2 0 -11 2 -11 9 -1 4 7 12 12 17 11 17 -4 64
13 64 24 0 6 3 8 6 4 7 -7 38 24 47 46 3 9 11 17 17 17 6 0 8 5 5 10 -3 6 -1
10 5 10 7 0 10 6 8 12 -3 7 1 19 9 26 7 8 10 18 7 24 -4 6 -2 8 3 5 11 -7 27
20 24 39 -1 7 6 15 15 18 9 3 14 13 11 21 -4 9 -1 12 9 8 9 -3 12 0 9 9 -3 8
3 25 15 38 11 13 20 27 20 32 0 6 9 23 21 39 11 16 17 29 14 29 -4 0 1 7 9 16
9 8 14 19 11 24 -3 4 2 11 11 14 8 3 12 10 9 16 -3 5 -2 10 3 10 5 0 12 8 16
18 3 9 14 31 25 47 10 17 16 33 14 38 -2 4 0 7 5 7 9 0 37 50 34 63 -1 4 2 7
7 7 5 0 12 11 15 25 4 14 10 25 15 25 5 0 12 13 16 30 4 16 10 30 15 30 4 0
13 13 19 30 5 16 15 30 21 30 6 0 9 4 6 8 -7 12 29 63 39 55 5 -5 4 -1 -2 7
-8 11 -8 18 2 27 7 6 15 9 19 6 3 -3 4 4 1 15 -2 12 2 25 9 29 15 9 40 53 31
53 -4 0 1 7 9 16 9 8 13 21 9 27 -3 7 -3 9 2 5 11 -10 38 29 30 42 -3 6 -1 10
5 10 10 0 35 48 32 63 -1 4 3 7 9 7 5 0 15 13 20 30 6 16 15 30 21 30 5 0 6 5
3 10 -3 6 -1 10 4 10 6 0 11 9 11 20 0 11 5 20 11 20 6 0 8 7 5 16 -3 8 -2 12
3 9 9 -5 27 32 23 48 -1 5 2 6 7 3 5 -3 15 9 22 27 7 17 15 34 18 37 4 3 13
19 21 35 8 17 23 41 35 54 11 13 14 21 6 16 -9 -5 -7 2 5 18 10 15 22 27 26
27 4 0 5 7 2 15 -4 8 1 17 10 21 9 3 14 10 11 14 -3 5 2 15 11 24 8 9 13 20
10 25 -3 5 1 11 9 15 8 3 15 12 15 21 0 8 5 15 11 15 5 0 7 5 4 10 -3 6 -1 10
5 10 6 0 9 4 6 9 -4 5 -1 11 4 13 6 2 12 13 12 25 2 14 7 19 17 15 8 -3 12 -1
8 5 -3 5 3 24 14 42 11 18 17 36 14 42 -4 5 1 9 10 9 12 0 15 5 11 17 -4 10
-4 14 0 10 8 -8 44 55 37 66 -2 4 3 7 11 7 9 0 15 3 15 8 -1 4 0 10 1 15 1 4
3 13 4 20 1 6 7 11 14 10 7 -2 11 0 10 5 -4 12 24 72 34 72 5 0 6 5 3 10 -3 6
-1 10 4 10 6 0 10 6 8 12 -1 7 4 12 11 10 8 -1 11 2 8 7 -8 13 15 62 26 55 5
-3 7 -2 6 3 -4 16 14 53 23 48 5 -3 6 1 3 9 -4 9 1 18 10 22 9 3 16 10 16 16
0 5 -6 6 -12 2 -7 -4 -3 3 10 15 12 12 23 26 23 31 1 6 2 15 3 20 0 6 6 14 11
18 6 4 17 21 25 37 8 17 23 41 35 54 11 13 14 21 7 17 -10 -6 15 38 45 79 5 6
9 17 11 25 2 8 9 20 16 25 7 6 11 15 9 20 -2 6 7 22 19 35 13 14 22 27 20 30
-1 3 5 13 13 23 8 9 15 24 15 32 0 8 5 15 10 15 6 0 10 9 10 21 0 13 4 18 12
13 7 -5 9 -2 6 8 -4 8 2 21 12 28 11 8 16 18 13 23 -3 6 2 16 11 23 10 7 17
15 17 18 -2 18 1 25 19 46 11 12 17 27 14 31 -3 5 2 12 10 15 9 3 13 10 10 15
-3 5 0 9 6 9 6 0 9 4 6 9 -4 5 -1 11 4 13 6 2 12 13 13 25 0 12 3 20 5 18 5
-5 32 21 32 30 0 3 -6 3 -12 0 -7 -4 -5 0 5 8 9 8 17 19 17 26 0 6 5 11 11 11
5 0 7 5 4 10 -3 6 -1 10 5 10 6 0 8 4 5 10 -3 5 -1 10 4 10 6 0 11 9 11 20 0
11 9 25 19 32 10 6 17 18 14 25 -3 7 0 13 7 13 6 0 8 5 5 10 -3 6 -1 10 4 10
6 0 11 5 11 11 0 6 9 24 21 40 11 16 17 34 13 40 -4 7 -3 9 3 6 5 -3 17 12 27
33 10 22 22 40 27 40 5 0 9 9 9 20 0 11 5 20 10 20 6 0 10 6 10 14 0 7 10 26
22 42 13 15 23 35 23 44 0 8 7 14 15 12 8 -2 12 0 8 4 -4 4 -2 14 5 22 10 13
9 15 -3 8 -8 -4 -4 2 9 13 13 12 18 21 10 21 -7 0 -3 7 9 16 12 8 20 19 17 24
-3 5 2 16 11 25 9 9 14 19 10 22 -3 3 2 13 12 22 25 24 53 81 45 93 -3 6 -2 8
4 5 8 -5 38 41 33 51 -1 2 7 10 17 19 10 8 12 12 5 8 -7 -3 0 13 16 37 16 24
39 64 52 90 13 26 28 45 32 42 4 -2 5 4 3 15 -2 11 3 22 11 25 9 3 12 10 9 16
-3 5 -2 10 4 10 9 0 20 22 22 45 0 6 7 14 15 18 8 4 14 15 14 23 0 10 5 12 13
8 9 -6 9 -4 -1 8 -10 13 -10 18 -1 24 8 5 9 3 4 -6 -5 -9 -4 -11 3 -6 7 4 12
14 12 22 0 8 4 14 10 14 5 0 9 3 8 8 -3 9 25 72 33 72 3 0 11 16 19 35 8 19
18 35 24 35 5 0 6 3 3 7 -4 3 1 12 11 20 11 10 12 12 2 8 -8 -4 -6 1 4 9 11 9
16 16 12 16 -4 0 2 13 13 29 11 15 18 31 14 35 -3 3 -1 6 5 6 7 0 12 7 12 15
0 8 5 15 11 15 5 0 7 5 4 10 -3 6 -1 10 6 10 7 0 9 3 6 7 -4 3 2 12 13 20 11
8 17 20 14 28 -4 8 -2 15 4 15 9 0 17 18 20 43 0 5 8 14 18 21 9 7 14 18 10
24 -4 7 -3 12 3 12 5 0 13 9 16 20 4 11 11 17 17 14 7 -5 9 -1 5 9 -3 8 0 20
7 26 6 5 18 26 26 46 7 19 17 35 22 35 4 0 8 9 8 20 0 10 6 23 14 27 14 8 16
12 16 34 0 5 5 7 12 3 6 -4 8 -3 4 4 -3 6 -2 13 4 17 6 4 8 10 5 15 -3 4 2 11
11 14 9 3 14 13 11 20 -3 8 1 17 9 20 9 3 12 10 9 16 -3 5 1 10 9 10 10 0 13
6 10 15 -4 8 -1 15 6 15 6 0 9 4 5 9 -3 5 -1 12 5 16 6 4 8 11 4 16 -3 5 0 8
6 7 7 -2 14 6 16 16 1 10 8 22 14 26 6 4 12 16 13 28 0 12 3 19 6 17 2 -3 15
18 29 45 13 28 28 50 33 50 5 0 9 8 9 18 0 9 9 28 20 42 11 14 20 30 20 36 0
5 9 20 20 32 11 12 20 25 19 29 -3 21 2 33 15 33 10 0 13 7 11 20 -2 11 0 18
6 15 5 -4 9 1 9 10 0 8 6 18 14 21 8 3 12 12 9 20 -3 8 0 14 7 14 6 0 8 5 5
10 -3 6 1 13 9 16 9 3 16 13 16 22 0 9 10 27 23 40 12 14 15 21 7 17 -9 -5 -8
0 4 14 11 12 21 28 22 36 1 8 9 22 18 31 14 14 17 20 16 39 0 3 9 15 20 27 11
12 20 28 20 35 0 7 5 13 12 13 6 0 9 3 5 6 -3 4 5 22 18 42 13 19 22 39 19 44
-3 4 2 8 10 8 9 0 13 6 10 13 -3 8 2 20 10 27 9 7 13 16 10 21 -3 5 0 9 5 9 6
0 11 7 11 15 0 9 7 18 15 21 8 4 12 10 9 15 -3 5 0 9 5 9 6 0 10 3 10 8 -3 19
2 33 11 27 6 -3 7 1 4 9 -4 9 -1 16 6 16 7 0 10 7 6 15 -3 8 -1 15 5 15 6 0 7
5 4 10 -4 6 -1 9 7 8 7 -2 12 3 11 9 -2 7 5 13 15 13 13 0 14 2 3 9 -11 7 -10
10 4 18 9 5 17 13 16 16 -1 12 12 42 21 48 5 3 11 15 12 25 2 10 8 18 14 17 6
-1 9 5 8 14 -2 10 7 26 18 36 12 10 14 15 6 11 -8 -5 -5 4 8 20 12 16 19 33
15 39 -3 5 -1 7 5 3 6 -3 15 8 22 28 6 19 15 36 20 38 5 2 10 10 12 18 2 8 10
21 18 28 13 12 13 13 0 7 -9 -4 -8 -1 3 8 10 9 18 18 18 21 -3 25 1 36 14 36
8 0 14 3 14 8 -3 20 2 33 11 27 6 -4 10 -3 9 2 -5 19 14 62 24 56 6 -4 8 0 4
10 -4 11 -1 17 8 17 8 0 12 6 9 13 -2 7 6 25 19 39 19 20 22 29 13 39 -8 9 -8
10 0 6 11 -6 25 13 29 38 0 6 7 9 14 7 7 -1 10 2 6 8 -8 12 19 53 29 43 4 -4
4 0 1 9 -4 9 -1 19 4 23 6 3 9 11 6 16 -4 5 -1 9 4 9 6 0 11 7 11 15 0 9 7 18
15 21 8 4 12 10 9 15 -3 5 0 9 5 9 6 0 11 3 10 8 -2 15 14 52 23 52 6 0 8 7 4
15 -3 9 0 15 9 15 9 0 12 6 8 17 -4 10 -2 14 4 10 6 -4 14 4 17 18 4 14 11 25
16 25 5 0 7 9 5 20 -2 11 0 18 5 15 5 -3 11 4 15 15 4 11 11 17 17 14 7 -4 8
-2 4 5 -4 6 -2 18 4 26 7 8 9 15 4 15 -5 0 -1 5 9 11 9 6 15 14 12 20 -4 5 -1
9 4 9 6 0 11 9 11 21 0 11 5 17 10 14 6 -3 10 1 10 9 0 9 5 16 11 16 5 0 8 4
5 9 -3 5 10 35 29 67 19 32 35 62 35 67 0 4 5 5 12 1 7 -4 8 -3 4 5 -4 6 2 25
14 41 12 17 18 30 13 30 -4 0 0 5 10 11 9 6 15 14 12 20 -4 5 -1 9 5 9 7 0 9
7 6 16 -3 8 -2 12 4 9 6 -3 10 1 10 9 0 9 4 16 10 16 5 0 9 3 8 8 -3 13 25 61
33 56 4 -2 6 4 4 15 -2 11 3 22 12 25 9 4 13 9 10 12 -3 4 1 13 9 21 8 8 12
19 9 24 -4 5 -2 9 3 9 5 0 17 18 27 40 10 22 22 37 28 33 6 -3 7 -1 3 5 -3 6
-2 13 4 17 6 4 8 10 6 14 -3 4 4 17 14 29 11 12 20 28 20 37 0 8 5 15 11 15 5
0 7 5 4 10 -3 6 -2 10 4 10 6 0 13 11 17 25 3 14 11 25 17 25 6 0 7 3 4 7 -4
3 1 12 11 20 11 10 12 12 2 8 -9 -4 -8 -1 3 8 10 9 18 18 18 21 -1 14 14 43
33 65 13 15 15 21 6 17 -8 -4 -6 0 4 8 11 9 16 16 10 16 -5 0 0 7 10 15 11 8
17 15 13 15 -4 0 -1 10 8 23 8 13 12 27 8 30 -3 4 1 7 10 7 10 0 14 5 11 15
-4 8 1 17 10 21 9 3 13 10 10 15 -3 5 0 9 6 9 6 0 8 5 5 10 -3 6 -1 10 5 10 6
0 8 4 5 10 -3 5 -1 10 5 10 6 0 8 5 5 10 -3 6 2 10 12 10 15 0 16 2 3 10 -8 5
-10 10 -4 10 6 0 17 14 24 30 7 17 16 30 21 30 5 0 8 3 8 8 -3 20 2 33 11 27
6 -4 9 -3 8 2 -4 17 14 53 24 47 6 -4 8 -2 5 4 -9 14 3 43 14 36 5 -3 6 2 3
10 -3 9 -1 16 5 16 6 0 11 9 11 21 0 11 4 18 9 15 4 -3 14 12 21 34 7 22 17
37 21 34 5 -3 9 4 9 15 0 12 4 21 9 21 7 0 13 14 21 48 1 4 8 11 16 15 8 5 12
12 9 18 -4 5 -1 9 6 9 7 0 9 3 6 7 -4 3 0 14 9 24 8 9 17 26 19 36 1 10 8 17
15 15 6 -1 9 2 5 8 -3 5 -1 10 5 10 6 0 9 4 5 9 -3 5 -1 12 5 16 6 4 8 10 5
15 -3 4 2 11 11 14 8 3 13 10 9 15 -3 6 2 14 11 19 9 5 16 12 16 15 0 19 12
47 20 47 5 0 6 5 3 10 -3 6 -1 10 4 10 6 0 11 9 11 21 0 11 5 17 10 14 6 -3
10 0 10 9 0 8 6 17 13 19 8 4 8 6 -3 6 -10 1 -8 6 8 17 12 8 22 24 22 35 0 11
6 22 14 25 8 3 12 12 9 20 -3 7 2 17 11 20 9 3 14 10 11 14 -3 4 2 13 10 20 8
7 15 18 15 25 0 7 7 18 15 25 8 7 15 21 15 31 0 11 5 19 10 19 6 0 10 9 10 20
0 11 7 23 15 26 8 4 12 10 9 15 -3 5 0 9 6 9 6 0 8 5 5 10 -3 6 -1 10 5 10 6
0 9 4 6 9 -3 5 5 20 19 35 13 14 21 26 18 26 -3 0 0 7 7 15 6 8 8 20 4 26 -4
7 -3 9 3 6 6 -4 17 1 24 10 10 12 10 14 2 9 -7 -4 -13 -2 -13 3 0 6 4 11 10
11 5 0 12 11 16 25 3 14 10 25 15 25 5 0 9 7 9 15 0 8 4 15 8 15 5 0 14 16 22
35 8 19 18 35 24 35 5 0 7 3 3 6 -3 4 1 13 9 21 8 8 12 19 9 24 -4 5 -1 9 4 9
6 0 11 7 11 15 0 8 5 15 11 15 5 0 8 4 4 9 -3 6 3 14 12 20 10 6 14 11 9 11
-5 0 -3 7 4 15 7 8 9 15 6 15 -4 0 -1 6 6 14 7 8 16 12 20 10 4 -3 5 5 3 16
-2 11 1 20 7 20 6 0 8 3 5 7 -4 3 1 12 11 20 11 10 12 12 2 8 -13 -6 -13 -5 0
7 8 7 21 25 27 41 7 15 17 27 23 27 5 0 9 3 9 8 -1 4 -1 18 0 32 1 18 4 21 10
11 7 -10 11 -5 16 18 3 17 11 31 16 31 5 0 9 7 9 15 0 8 5 15 11 15 5 0 8 4 4
9 -3 5 2 17 11 25 8 9 13 16 9 16 -4 0 1 7 9 16 9 8 14 19 11 24 -3 4 2 11 11
14 9 3 14 12 11 19 -3 8 4 19 14 26 11 6 17 16 13 22 -3 6 2 17 12 25 11 9 13
13 4 9 -10 -4 -9 -2 3 8 9 8 17 19 17 26 0 6 5 11 11 11 5 0 8 4 4 9 -3 5 2
16 10 24 8 9 15 23 15 31 0 9 5 16 10 16 6 0 10 6 10 14 0 8 7 17 16 20 14 5
14 9 3 23 -10 12 -11 15 -1 9 8 -5 16 2 23 23 6 17 15 31 21 31 5 0 6 5 3 10
-3 6 -2 10 2 10 5 0 14 9 21 21 11 17 11 20 0 14 -7 -3 -3 2 10 13 15 14 18
22 10 25 -10 4 -10 6 0 6 6 1 12 8 12 17 0 8 5 12 10 9 6 -3 10 2 10 13 0 10
9 29 20 42 11 13 20 32 20 42 0 11 5 16 10 13 6 -3 10 3 10 14 0 12 5 21 10
21 6 0 9 6 8 13 -2 6 2 11 9 10 7 -2 10 6 8 16 -2 11 3 22 11 25 9 3 12 10 9
16 -3 5 -1 10 4 10 6 0 11 7 11 15 0 8 5 15 11 15 5 0 8 4 4 9 -3 5 0 13 6 16
5 4 8 13 5 21 -3 8 -1 13 3 11 5 -1 10 3 12 8 1 6 9 16 18 23 13 11 13 12 1 7
-12 -5 -12 -4 1 7 14 12 25 32 27 51 1 4 7 14 14 22 27 30 38 44 38 50 0 3 -6
3 -12 0 -7 -4 -5 0 5 8 9 8 17 19 17 26 0 6 4 11 9 11 5 0 12 11 15 25 4 14
11 25 17 25 6 0 8 4 4 10 -3 5 3 18 15 30 11 11 20 23 20 28 2 21 13 52 18 48
3 -3 13 12 23 34 10 22 23 40 28 40 6 0 8 7 5 15 -4 8 -1 15 6 15 6 0 8 5 5
10 -3 5 -1 10 5 10 6 0 8 4 5 10 -3 6 -1 10 4 10 6 0 11 7 11 15 0 8 5 15 10
15 6 0 9 3 8 8 -3 15 15 42 25 35 5 -3 7 -1 4 5 -10 15 3 43 16 35 5 -3 7 -1
3 5 -3 6 -2 13 4 17 5 3 10 15 10 25 0 10 5 22 12 26 7 5 8 3 3 -6 -5 -8 -4
-11 3 -6 6 4 9 13 5 21 -3 8 0 15 6 15 6 0 10 6 9 13 -2 6 3 11 10 9 8 -1 10
2 7 8 -4 6 1 20 11 31 9 10 15 22 11 25 -3 3 2 14 11 24 39 42 43 50 31 50 -7
0 -3 8 7 18 10 9 20 24 22 32 2 8 9 20 16 25 14 11 16 16 16 41 0 8 4 13 9 10
5 -4 12 7 16 24 4 16 11 30 16 30 5 0 9 7 9 15 0 7 8 19 18 24 11 7 12 11 4
11 -10 0 -10 4 2 16 9 8 16 22 16 30 0 8 5 12 10 9 6 -3 10 3 10 14 0 12 4 21
8 21 4 0 14 16 21 35 7 19 17 35 22 35 5 0 9 9 9 20 0 10 9 24 20 30 11 6 17
16 14 25 -4 8 -2 15 4 15 5 0 13 11 16 25 4 14 11 25 16 25 6 0 10 12 10 26 0
14 4 23 8 20 5 -3 14 11 21 30 7 18 17 34 22 34 5 0 9 9 9 20 0 11 3 20 8 20
8 0 38 61 34 73 -1 4 2 7 8 7 5 0 10 7 10 16 0 8 5 12 10 9 6 -3 10 3 10 14 0
12 5 21 11 21 6 0 9 6 6 14 -3 8 1 17 10 20 9 4 13 9 10 12 -3 4 3 15 13 27
11 11 17 24 14 29 -3 4 0 8 6 8 6 0 8 5 5 10 -3 6 -1 10 5 10 6 0 8 5 5 10 -3
6 1 10 9 10 9 0 13 6 10 14 -3 8 3 19 14 25 13 7 18 19 17 36 -2 14 1 23 6 19
11 -6 29 37 21 50 -3 5 0 6 6 2 7 -4 14 3 18 19 3 14 11 25 16 25 6 0 7 8 4
17 -4 10 -4 14 0 10 7 -6 27 24 61 93 9 19 20 37 24 40 3 3 9 15 13 28 4 12
12 22 17 22 6 0 8 4 5 9 -3 5 3 20 14 33 11 14 16 28 13 32 -3 3 2 6 13 7 10
0 14 3 7 6 -8 3 -9 8 -3 16 26 31 60 89 60 103 0 9 5 12 13 8 6 -4 9 -4 5 1
-7 8 19 64 35 76 5 3 8 8 7 10 -4 11 13 38 22 33 5 -3 9 0 7 7 -3 28 1 40 13
33 6 -4 8 -3 4 4 -3 6 1 17 10 26 8 9 12 20 9 26 -3 6 1 13 9 16 9 3 16 14 16
25 0 10 8 23 18 28 9 6 14 11 9 11 -4 0 -1 10 8 23 8 13 12 27 8 32 -5 4 -1 6
7 3 11 -4 16 1 18 15 0 12 8 27 17 33 12 9 13 13 3 17 -9 4 -7 6 4 6 10 1 15
7 12 14 -2 7 4 21 15 31 11 10 18 23 15 27 -3 5 0 9 6 9 6 0 8 5 5 10 -3 6 1
10 10 10 9 0 14 4 11 9 -7 11 25 71 37 71 5 0 5 5 2 11 -4 6 3 21 16 35 12 13
19 24 15 24 -4 0 0 7 8 16 9 8 16 22 16 30 0 8 5 14 10 14 6 0 10 6 10 14 0 8
7 21 15 30 9 8 16 18 16 21 -1 12 13 41 23 47 7 5 6 8 -4 8 -12 1 -11 3 3 11
10 6 14 15 10 22 -4 7 -8 21 -9 32 -3 42 -17 87 -30 92 -8 3 -11 9 -8 14 3 5
0 9 -6 9 -6 0 -8 5 -5 10 3 6 1 10 -4 10 -6 0 -10 3 -10 8 3 19 -2 33 -10 27
-6 -3 -13 10 -17 29 -4 22 -13 38 -25 41 -10 4 -16 12 -12 21 3 7 0 14 -7 14
-6 0 -8 5 -5 10 3 5 1 10 -4 10 -6 0 -11 7 -11 15 0 8 -5 15 -10 15 -6 0 -9 3
-9 8 4 21 -2 32 -13 26 -8 -5 -7 0 2 11 8 10 10 16 3 12 -8 -5 -19 6 -31 30
-36 72 -75 138 -91 151 -9 8 -10 10 -3 7 11 -6 11 -3 0 16 -7 13 -20 30 -28
37 -13 12 -13 13 0 7 10 -4 9 -2 -2 8 -10 8 -18 20 -18 28 0 8 -9 25 -20 39
-11 14 -20 31 -20 38 0 6 -5 12 -11 12 -5 0 -7 5 -4 10 3 6 1 10 -5 10 -6 0
-8 5 -5 10 3 6 1 10 -4 10 -6 0 -11 7 -11 16 0 8 -4 13 -8 10 -5 -3 -9 0 -9 7
0 7 -2 18 -4 26 -5 17 33 24 43 8 4 -7 8 -8 8 -2 0 9 64 13 80 5 3 -1 10 -1
15 0 42 9 55 9 60 0 4 -6 11 -7 17 -4 19 12 73 12 80 1 5 -8 8 -8 8 -2 0 12
39 14 57 2 6 -4 14 -3 17 1 6 10 36 9 54 -2 6 -4 12 -3 12 1 0 5 13 9 30 9 18
1 27 -2 23 -9 -4 -6 -1 -7 8 -2 21 14 59 15 59 2 0 -8 3 -8 9 1 12 19 15 19
36 2 11 -8 16 -10 12 -4 -4 8 2 11 18 10 14 0 25 -5 25 -10 0 -5 7 -2 17 5 20
17 16 17 38 -1 11 -8 16 -10 11 -3 -5 9 0 12 18 11 15 -1 26 -7 26 -13 0 -6 3
-7 8 0 10 14 32 17 32 4 0 -8 4 -8 13 -2 6 5 24 8 40 7 15 -2 27 1 27 6 0 4 8
6 18 4 9 -3 29 6 43 20 15 14 30 22 35 18 4 -4 4 1 1 11 -4 11 -1 17 9 17 8 0
12 5 9 10 -3 6 2 10 12 10 15 0 16 2 3 10 -11 7 -11 10 -2 10 7 0 10 5 7 10
-3 6 -1 10 4 10 6 0 11 7 11 15 0 8 5 15 10 15 6 0 9 3 9 8 -3 19 2 33 11 27
6 -3 10 3 10 14 0 11 11 32 25 46 15 14 20 25 13 25 -10 1 -9 4 2 13 8 7 16
19 18 27 2 8 7 17 12 20 5 3 10 12 12 20 2 8 9 21 16 28 7 8 9 18 6 24 -4 7
-2 8 4 4 11 -6 16 6 13 27 0 4 4 7 10 7 5 0 7 5 4 10 -3 6 1 10 9 10 9 0 16 5
16 11 0 5 -6 7 -12 3 -10 -6 -10 -5 -1 8 7 8 10 17 7 20 -3 3 3 5 13 4 13 -1
18 6 17 26 -1 15 3 25 7 22 8 -5 26 28 27 49 0 5 9 15 19 24 11 9 12 12 3 8
-8 -4 -6 1 4 9 11 9 16 16 10 16 -5 0 -5 3 1 8 9 6 20 25 69 117 6 11 14 22
17 25 4 3 9 15 13 28 4 12 12 22 17 22 6 0 8 4 4 10 -3 5 4 19 15 30 11 11 18
25 15 30 -4 6 -1 10 5 10 6 0 8 5 5 10 -3 6 -1 10 4 10 6 0 11 7 11 15 0 8 5
15 11 15 5 0 7 5 4 10 -3 6 -1 10 5 10 6 0 8 5 5 10 -3 6 1 10 9 10 10 0 13 6
10 15 -4 8 -1 15 6 15 6 0 8 5 5 10 -3 6 -1 10 5 10 6 0 8 5 5 10 -3 6 -2 10
2 10 5 0 14 9 21 21 11 17 11 20 0 14 -7 -3 -5 0 4 8 10 8 15 17 11 20 -3 4 0
7 7 7 7 0 11 3 7 6 -3 4 -1 12 6 20 35 39 37 43 37 70 0 8 5 12 10 9 6 -3 10
2 10 11 0 10 6 25 14 33 8 9 16 23 18 31 2 8 8 18 13 22 6 4 10 11 11 15 1 17
28 63 36 63 5 0 6 5 3 10 -3 6 -1 10 5 10 6 0 8 5 5 10 -3 6 1 13 9 16 9 3 13
10 10 15 -3 5 4 18 15 30 11 12 18 26 15 31 -3 4 0 8 6 8 6 0 9 4 5 9 -3 6 1
13 9 18 8 4 15 11 15 16 0 4 7 20 15 36 9 16 12 32 8 36 -4 3 0 5 8 3 8 -2 14
3 13 10 -2 6 2 12 8 12 5 0 8 4 5 8 -3 5 3 18 14 29 10 12 17 23 14 26 -2 2 2
10 11 17 8 7 15 21 15 31 0 11 5 19 10 19 6 0 10 7 10 16 0 9 5 12 12 8 7 -5
8 -3 3 6 -4 7 -3 15 2 19 6 3 15 20 20 36 6 17 16 29 24 27 8 -2 11 0 7 4 -4
4 -3 13 3 21 6 7 8 13 4 13 -4 0 3 9 16 21 13 11 18 18 12 14 -9 -4 -11 -1 -7
9 3 9 10 16 16 16 5 0 7 4 4 8 -3 5 3 18 12 28 19 20 22 26 22 45 0 5 5 7 12
3 8 -5 9 -2 5 9 -3 10 -2 17 4 17 6 0 7 5 4 10 -3 6 -2 10 3 10 9 0 37 50 34
63 -1 4 3 7 9 7 6 0 8 7 5 16 -3 8 -2 13 2 10 5 -3 17 12 27 32 10 20 26 45
34 55 8 9 12 20 8 23 -8 8 16 33 25 27 4 -2 5 2 2 10 -3 8 2 22 11 31 9 9 13
16 8 16 -4 0 -2 4 6 9 8 5 16 17 17 26 1 9 11 23 21 32 10 8 11 11 4 7 -9 -4
-6 6 8 24 12 18 20 32 16 32 -3 0 0 6 7 14 7 8 18 11 23 8 6 -3 5 1 -2 9 -10
12 -9 18 7 29 10 7 17 17 14 22 -3 4 1 15 8 23 35 39 36 40 44 73 4 12 10 22
14 22 5 0 11 14 15 30 4 17 11 28 16 24 5 -3 10 0 10 5 4 32 20 62 30 55 5 -3
6 1 3 9 -3 8 1 21 9 29 8 8 18 24 21 36 4 13 12 19 18 16 7 -5 9 -1 5 9 -3 10
-2 17 4 17 6 0 7 5 4 10 -3 6 -1 10 6 10 7 0 9 3 6 7 -4 3 1 12 11 20 9 8 11
11 4 8 -11 -6 -11 -3 -1 13 7 12 17 18 23 15 5 -3 6 -1 3 4 -4 6 2 22 13 36
11 14 20 35 20 47 0 11 5 18 10 15 6 -3 10 1 10 9 0 9 4 16 10 16 5 0 7 7 4
15 -4 9 0 15 9 15 11 0 15 7 12 20 -2 11 0 18 4 15 8 -4 24 31 22 48 -1 4 5 7
12 7 8 0 14 7 15 15 1 8 3 22 4 30 1 9 6 14 13 12 6 -3 12 5 13 16 0 12 6 23
12 25 5 2 8 8 4 13 -3 5 0 9 6 9 6 0 8 5 5 10 -3 6 -2 10 3 10 6 0 13 11 16
25 4 14 10 24 14 21 10 -6 8 36 -3 54 -5 9 -4 11 3 6 7 -4 12 -2 12 3 0 6 -5
11 -11 11 -8 0 -8 5 1 15 10 11 10 15 0 15 -6 0 -10 6 -7 13 2 6 -3 18 -12 25
-13 11 -13 12 -1 7 8 -4 4 3 -10 15 -14 12 -19 19 -13 15 9 -4 11 -1 7 9 -3 9
-10 13 -15 10 -5 -3 -9 4 -9 16 0 12 -4 18 -10 15 -6 -3 -7 1 -4 9 3 9 2 16
-3 16 -5 0 -16 16 -23 35 -8 20 -20 41 -27 47 -7 5 -10 14 -7 19 3 5 1 9 -4 9
-6 0 -13 11 -16 25 -4 16 -11 23 -18 19 -7 -5 -8 -3 -3 6 5 8 1 18 -10 27 -11
7 -16 13 -12 13 4 0 1 10 -8 23 -8 13 -12 27 -8 32 5 4 3 5 -3 2 -7 -4 -14 3
-18 18 -4 14 -11 25 -17 25 -6 0 -7 5 -4 10 3 6 1 10 -5 10 -6 0 -9 4 -5 9 3
6 -3 14 -12 20 -10 5 -17 12 -15 15 6 16 0 34 -20 56 -13 14 -24 32 -26 40 -2
8 -7 17 -11 20 -9 6 -25 42 -23 53 1 4 -3 7 -9 7 -5 0 -8 4 -5 9 4 5 2 11 -3
13 -5 1 -11 10 -13 18 -2 8 -11 21 -21 29 -10 7 -16 19 -13 27 3 7 -3 18 -12
23 -9 6 -13 11 -8 11 6 0 1 7 -10 16 -10 8 -12 12 -4 8 10 -5 9 0 -4 14 -11
12 -16 22 -12 22 4 0 0 7 -8 16 -9 8 -14 20 -11 25 4 5 2 9 -4 9 -5 0 -13 9
-16 20 -4 11 -11 18 -16 15 -5 -3 -6 1 -3 9 3 9 1 16 -6 16 -6 0 -8 5 -5 10 3
6 1 10 -5 10 -6 0 -9 4 -6 9 3 5 -1 12 -10 15 -8 3 -13 10 -9 15 3 5 1 12 -5
16 -6 4 -8 11 -5 16 4 5 2 9 -3 9 -5 0 -15 14 -22 30 -7 17 -16 30 -21 30 -5
0 -9 7 -9 15 0 8 -6 15 -12 15 -9 0 -8 4 2 10 11 7 11 10 2 10 -14 0 -43 60
-36 72 3 4 -3 5 -12 1 -13 -5 -16 -3 -11 10 3 9 2 17 -3 17 -6 0 -10 7 -10 15
0 8 -5 15 -11 15 -5 0 -7 5 -4 10 3 6 1 10 -5 10 -7 0 -10 6 -7 14 3 8 -1 17
-9 20 -8 3 -14 12 -14 20 0 8 -8 20 -17 25 -11 6 -13 11 -5 11 7 0 10 5 7 10
-4 6 -11 7 -17 4 -7 -5 -9 -2 -5 8 3 9 -3 25 -13 36 -10 11 -16 23 -13 26 4 3
1 6 -6 6 -7 0 -9 5 -6 10 3 6 2 10 -3 10 -5 0 -16 15 -23 33 -7 17 -19 38 -27
46 -7 7 -11 20 -8 28 3 8 1 11 -4 8 -6 -3 -10 1 -10 9 0 9 -5 16 -11 16 -5 0
-7 5 -4 10 3 6 1 10 -5 10 -7 0 -10 7 -6 15 3 9 0 15 -9 15 -8 0 -12 6 -9 14
3 8 -5 21 -18 30 -12 9 -19 16 -14 16 5 0 1 10 -10 22 -13 14 -14 19 -4 14 8
-4 6 1 -6 11 -11 10 -19 24 -16 31 2 6 -1 12 -8 12 -6 0 -8 5 -5 10 3 6 1 10
-4 10 -6 0 -11 7 -11 15 0 9 -7 18 -15 21 -10 4 -13 13 -10 24 3 11 0 22 -8
27 -16 9 -41 53 -30 53 4 0 -2 7 -13 15 -10 8 -14 15 -9 15 6 0 6 3 0 8 -17
11 -56 83 -50 92 3 4 -4 10 -15 13 -13 3 -18 10 -14 21 3 9 1 16 -6 16 -6 0
-8 5 -5 10 3 6 1 10 -4 10 -9 0 -40 59 -40 76 0 2 -7 11 -15 20 -8 8 -13 21
-9 30 3 9 0 14 -8 12 -8 -2 -13 3 -11 10 1 6 -2 12 -8 12 -5 0 -10 7 -10 15 0
8 -5 15 -11 15 -5 0 -8 4 -5 9 3 4 -3 19 -15 32 -11 12 -17 29 -14 36 2 8 0
11 -5 8 -6 -3 -10 1 -10 9 0 9 -5 16 -11 16 -5 0 -8 4 -4 9 3 6 -2 14 -11 19
-9 5 -15 12 -15 15 3 24 0 37 -9 32 -5 -3 -10 0 -10 8 0 21 -30 77 -42 77 -5
0 -8 7 -4 15 3 8 2 15 -3 15 -10 0 -46 71 -43 83 1 5 -2 6 -7 3 -5 -4 -12 -2
-16 4 -3 5 0 10 7 10 8 1 4 9 -9 19 -13 11 -23 24 -23 31 0 6 -7 18 -16 27 -8
9 -13 22 -10 30 3 8 1 11 -4 8 -6 -3 -10 0 -10 8 0 7 -9 23 -20 35 -23 24 -26
36 -7 27 6 -4 2 2 -10 13 -12 11 -19 22 -16 26 4 3 1 6 -6 6 -7 0 -11 6 -8 14
3 8 -1 17 -9 20 -9 3 -12 10 -9 16 3 5 1 10 -4 10 -6 0 -11 6 -11 13 0 7 -9
23 -20 35 -14 14 -16 22 -8 22 7 1 4 6 -7 13 -11 7 -20 18 -21 25 -2 29 -5 33
-16 26 -6 -4 -8 -3 -4 4 3 6 2 13 -4 17 -6 4 -8 11 -5 16 4 5 2 9 -3 9 -5 0
-12 8 -16 18 -7 21 -28 55 -40 63 -5 4 -5 12 -2 18 4 6 2 11 -3 11 -6 0 -11 7
-11 15 0 8 -4 15 -9 15 -5 0 -14 14 -22 32 -14 34 -74 99 -83 90 -3 -3 -6 0
-6 7 0 7 -4 9 -10 6 -5 -3 -10 -1 -10 4 0 6 -7 11 -15 11 -8 0 -15 -5 -15 -11
0 -6 -7 -3 -16 5 -12 12 -20 13 -35 6 -14 -8 -19 -7 -19 2 0 8 -3 9 -8 3 -10
-14 -45 -16 -54 -2 -6 9 -11 8 -18 -3 -9 -13 -11 -13 -20 0 -5 8 -10 10 -10 4
0 -6 -7 -11 -15 -11 -8 0 -15 4 -15 9 0 5 -6 6 -12 1 -18 -11 -32 -10 -40 2
-5 6 -8 5 -8 -4 0 -11 -3 -11 -17 0 -9 8 -14 9 -10 3 4 -7 -2 -11 -18 -11 -16
0 -22 4 -18 11 4 6 -1 5 -10 -3 -13 -10 -20 -11 -30 -2 -8 6 -16 9 -18 7 -11
-12 -59 -14 -59 -3 0 7 -4 6 -10 -3 -5 -8 -10 -11 -10 -6 0 5 -6 3 -14 -3 -11
-9 -16 -9 -22 0 -5 8 -3 9 6 4 9 -5 11 -4 6 4 -4 6 -13 8 -19 4 -22 -14 -87
-14 -87 -1 0 9 -3 9 -8 2 -4 -5 -25 -10 -47 -10 -22 0 -43 5 -47 10 -5 8 -8 7
-8 -1 0 -14 -42 -13 -52 2 -5 6 -8 2 -8 -9 0 -13 -3 -16 -12 -9 -7 6 -22 9
-33 7 -10 -1 -25 2 -32 8 -9 7 -14 6 -19 -6 -5 -13 -9 -14 -21 -4 -11 9 -16 9
-23 -1 -5 -9 -10 -10 -14 -3 -4 6 -13 9 -21 5 -9 -3 -23 1 -32 8 -11 10 -14
10 -9 2 5 -9 0 -13 -16 -12 -13 0 -37 -1 -55 -3 -17 -2 -30 -1 -27 3 2 4 -3
10 -12 13 -9 4 -13 2 -8 -5z m-13021 -7250 c-5 -7 10 -8 47 -4 66 7 68 7 93 2
11 -2 26 1 34 7 11 8 13 8 7 -1 -4 -8 -1 -13 9 -13 10 0 13 5 9 13 -6 9 -5 9
8 0 8 -7 18 -10 21 -6 4 3 13 1 20 -5 8 -7 17 -9 20 -6 3 4 29 8 57 10 37 2
49 0 43 -9 -5 -9 -4 -9 8 0 8 7 29 10 48 7 19 -3 31 -2 27 4 -3 5 5 7 19 4 14
-2 22 -9 18 -15 -4 -6 -1 -7 7 -2 20 13 140 13 140 1 0 -6 5 -4 10 4 8 12 13
13 29 3 13 -8 22 -9 26 -3 3 6 13 10 21 10 10 0 12 -5 8 -12 -5 -9 -2 -9 9 1
14 11 20 11 34 0 11 -10 14 -10 9 -1 -4 7 -2 12 8 12 8 0 18 -5 21 -10 4 -6
12 -7 18 -3 7 4 20 6 31 4 13 -2 16 1 10 11 -6 10 -5 11 7 2 8 -6 42 -10 76
-9 41 1 60 -3 55 -10 -3 -5 2 -4 11 4 13 10 20 11 31 2 9 -7 17 -8 20 -2 3 5
16 7 28 3 16 -4 19 -2 13 8 -6 10 -4 11 6 4 19 -12 61 -13 76 -2 7 6 15 3 21
-8 7 -12 11 -13 17 -5 5 9 11 9 23 -1 9 -7 13 -8 9 -2 -4 7 11 10 43 10 28 -1
50 -5 50 -10 0 -6 7 -1 16 10 8 10 12 13 9 6 -5 -10 2 -12 35 -7 32 5 40 3 34
-6 -4 -8 -3 -10 5 -5 19 12 61 14 67 4 4 -5 10 -5 17 0 14 12 76 10 96 -2 9
-6 12 -5 8 0 -8 13 126 12 135 -1 5 -6 8 -6 8 1 0 10 21 11 55 4 6 -1 12 -2
15 0 20 7 50 9 46 2 -4 -7 27 -8 44 -2 14 6 37 5 54 -3 14 -7 17 -6 10 5 -6
11 -5 11 9 -1 10 -8 17 -9 17 -3 0 6 9 10 20 9 11 -1 20 -5 20 -10 0 -5 7 -4
15 3 12 10 15 10 15 -1 0 -9 3 -10 8 -3 9 14 42 14 42 0 0 -6 5 -5 12 2 9 9
15 9 27 -1 12 -9 13 -9 7 1 -4 6 -3 12 3 12 5 0 13 -5 16 -10 4 -7 13 -7 24 0
12 6 22 5 31 -3 10 -9 11 -9 6 1 -8 14 10 17 19 2 4 -7 13 -7 24 0 12 6 22 5
31 -3 10 -9 11 -9 6 1 -8 14 10 17 19 2 4 -7 13 -7 24 0 12 6 22 5 31 -3 10
-9 11 -9 6 1 -9 15 10 16 19 2 4 -7 12 -7 18 -2 12 9 51 8 100 -1 16 -3 25 -2
22 4 -4 5 -2 9 4 9 5 0 13 -5 16 -10 4 -6 12 -7 18 -3 18 11 57 12 57 2 0 -7
6 -7 17 0 11 6 24 6 36 -1 14 -7 17 -7 13 1 -4 6 -3 11 3 11 5 0 13 -5 16 -10
4 -6 12 -7 18 -3 20 12 37 12 37 0 0 -8 3 -7 9 2 6 9 11 10 15 2 4 -6 13 -8
19 -4 19 12 37 12 37 1 0 -6 6 -5 15 2 11 9 15 9 15 1 0 -7 5 -9 12 -5 20 12
58 14 58 2 0 -7 4 -7 13 0 8 7 18 7 27 2 8 -5 19 -6 24 -2 17 10 46 10 46 -1
0 -5 7 -4 15 3 12 10 15 10 15 -1 0 -11 2 -11 10 1 8 12 10 12 10 1 0 -11 3
-11 15 -1 12 10 15 10 15 0 0 -10 3 -10 15 0 11 9 15 9 15 1 0 -7 4 -9 10 -6
16 10 50 14 50 7 0 -4 9 -8 20 -8 11 0 20 3 20 6 0 3 9 6 20 6 11 0 20 -4 20
-9 0 -5 7 -4 15 3 11 9 15 9 15 1 0 -7 5 -9 12 -5 16 10 78 10 81 0 2 -5 13
-4 25 3 15 8 22 8 22 1 0 -6 5 -8 13 -3 18 11 37 13 37 3 0 -5 14 -5 30 0 19
5 30 5 30 -1 0 -6 8 -5 20 1 14 8 20 8 20 0 0 -8 6 -8 20 0 12 6 20 7 20 1 0
-10 19 -9 38 2 7 5 12 3 12 -3 0 -7 6 -8 17 -1 10 5 26 5 40 0 16 -6 23 -5 24
4 0 9 2 9 6 0 3 -9 10 -10 24 -3 13 7 19 7 19 1 0 -7 9 -7 25 -1 14 5 25 6 25
1 0 -4 7 -8 15 -8 8 0 15 4 15 9 0 5 8 4 18 -1 10 -5 24 -6 32 -1 7 4 24 4 37
-1 16 -6 23 -5 24 4 0 9 2 9 6 0 3 -9 10 -10 24 -3 10 6 19 7 19 2 0 -5 16 -8
35 -8 19 1 35 4 35 7 0 3 7 6 15 6 8 0 15 -4 15 -9 0 -11 23 -6 32 7 5 6 8 4
8 -5 0 -13 1 -13 10 0 6 9 10 10 10 3 0 -8 9 -9 30 -3 21 6 30 5 31 -3 0 -7 3
-7 6 2 4 11 7 11 13 0 7 -10 11 -10 24 0 9 8 16 9 16 3 0 -6 13 -7 35 -2 21 5
38 4 41 -2 4 -6 10 -5 15 3 5 8 9 9 9 4 0 -12 40 -13 57 -2 7 4 15 2 19 -4 4
-8 9 -7 15 2 5 8 9 9 9 3 0 -12 79 -12 99 1 8 4 17 2 21 -6 7 -10 11 -10 24 0
9 8 16 9 16 4 0 -9 43 -10 75 -3 6 1 12 1 15 0 14 -6 67 -5 82 2 10 5 19 4 23
-2 3 -5 11 -10 16 -10 6 0 7 4 4 10 -4 6 2 7 17 2 27 -9 70 -8 86 2 6 3 13 3
16 -2 6 -10 57 -9 74 1 6 5 12 4 12 0 0 -5 9 -9 20 -10 11 -1 18 2 15 8 -4 5
3 5 18 0 16 -6 28 -6 36 2 8 8 11 8 11 -1 0 -14 21 -12 32 3 5 7 8 6 8 0 0
-12 69 -13 88 -2 6 5 12 4 12 0 0 -5 9 -9 20 -10 11 -1 20 3 20 8 0 6 5 7 11
3 17 -10 109 -12 109 -2 0 5 5 6 12 2 18 -11 68 -13 68 -2 0 5 6 6 13 1 18
-11 71 -10 79 2 5 6 8 6 8 -2 0 -6 8 -9 18 -6 10 2 25 -3 33 -13 8 -10 9 -15
3 -11 -11 6 -27 -19 -39 -61 -4 -12 -11 -20 -16 -17 -8 6 -13 -8 -6 -20 1 -2
-7 -11 -18 -20 -11 -9 -14 -14 -8 -10 7 3 3 -9 -10 -28 -12 -19 -24 -33 -27
-31 -3 1 -7 -7 -7 -18 -1 -12 -6 -24 -11 -27 -5 -3 -15 -21 -23 -38 -8 -18
-17 -33 -21 -33 -5 0 -8 -8 -8 -17 0 -10 -11 -31 -25 -47 -14 -16 -25 -38 -25
-48 0 -10 -7 -21 -15 -24 -8 -4 -15 -13 -15 -21 0 -9 -8 -23 -17 -32 -17 -15
-25 -33 -26 -58 0 -7 -4 -10 -8 -8 -7 5 -23 -24 -21 -37 1 -5 -3 -8 -9 -8 -5
0 -8 -4 -5 -9 4 -5 2 -11 -3 -13 -5 -1 -11 -10 -13 -18 -2 -8 -12 -23 -23 -33
-11 -10 -13 -15 -5 -11 9 4 6 -3 -6 -17 -12 -13 -19 -30 -16 -38 3 -8 0 -11
-7 -7 -10 6 -15 -6 -12 -26 0 -5 -3 -8 -7 -8 -5 0 -17 -18 -27 -40 -10 -22
-22 -37 -27 -34 -5 3 -7 2 -6 -3 4 -17 -14 -53 -24 -47 -7 5 -8 2 -4 -5 5 -7
0 -21 -11 -33 -12 -14 -13 -18 -3 -13 13 8 13 6 1 -8 -7 -9 -17 -14 -22 -11
-5 3 -6 -2 -3 -10 3 -9 1 -16 -5 -16 -6 0 -11 -9 -11 -20 0 -11 -5 -20 -11
-20 -5 0 -7 -4 -4 -10 3 -5 1 -10 -4 -10 -6 0 -11 -7 -11 -16 0 -8 -5 -12 -10
-9 -6 4 -9 3 -8 -2 4 -15 -13 -53 -24 -53 -6 0 -8 -3 -5 -7 4 -3 -1 -12 -11
-20 -10 -9 -11 -11 -2 -7 8 5 3 -8 -12 -28 -15 -20 -29 -42 -30 -49 -2 -8 -10
-20 -18 -27 -13 -12 -13 -13 0 -7 8 4 6 -1 -4 -9 -11 -9 -16 -16 -10 -16 5 0
5 -3 -1 -8 -17 -12 -36 -52 -30 -63 4 -5 3 -8 -2 -7 -4 2 -9 -1 -10 -5 -1 -5
-10 -16 -21 -25 -10 -9 -17 -23 -15 -29 3 -7 -2 -16 -11 -19 -9 -3 -14 -10
-11 -14 3 -5 -5 -19 -17 -31 -13 -12 -16 -18 -9 -14 9 5 5 -5 -8 -23 -12 -18
-19 -32 -15 -32 4 0 -1 -7 -12 -15 -10 -8 -15 -15 -10 -15 6 0 1 -7 -10 -16
-10 -8 -12 -13 -4 -9 8 4 4 -3 -9 -14 -14 -13 -18 -21 -10 -21 9 -1 8 -4 -4
-11 -9 -6 -15 -14 -12 -20 4 -5 2 -9 -3 -9 -9 0 -47 -68 -44 -80 0 -3 -6 -9
-14 -13 -8 -5 -12 -12 -9 -18 4 -5 -1 -12 -9 -15 -9 -3 -16 -14 -16 -25 0 -10
-8 -23 -17 -28 -10 -6 -14 -11 -9 -11 5 0 3 -7 -4 -15 -7 -8 -9 -15 -6 -15 4
0 0 -7 -8 -16 -9 -8 -13 -21 -9 -27 3 -7 3 -9 -2 -5 -12 11 -35 -11 -28 -28 3
-7 -2 -16 -10 -20 -9 -3 -13 -12 -11 -19 3 -7 0 -16 -5 -20 -6 -3 -8 -11 -5
-17 4 -7 2 -8 -4 -4 -10 6 -30 -26 -34 -54 -1 -3 -8 -10 -16 -16 -8 -6 -12
-16 -9 -21 4 -6 -2 -13 -12 -16 -15 -4 -18 -11 -14 -27 4 -15 2 -21 -4 -17 -9
6 -28 -33 -20 -40 1 -1 -5 -8 -15 -15 -9 -7 -18 -22 -20 -33 -2 -11 -10 -19
-16 -18 -7 2 -11 0 -11 -5 4 -22 -2 -53 -9 -48 -4 2 -18 -18 -30 -45 -13 -27
-28 -49 -33 -49 -6 0 -8 -4 -4 -9 3 -6 -3 -14 -12 -20 -11 -6 -13 -11 -5 -11
13 0 11 -4 -25 -44 -7 -8 -9 -16 -6 -20 4 -3 1 -6 -6 -6 -7 0 -9 -4 -6 -10 3
-5 1 -10 -5 -10 -7 0 -9 -7 -6 -16 3 -8 2 -13 -3 -10 -8 5 -23 -17 -25 -37 -1
-4 -6 -11 -13 -15 -6 -4 -15 -20 -18 -35 -4 -15 -11 -27 -16 -27 -5 0 -9 -5
-9 -11 0 -6 -9 -23 -20 -39 -11 -15 -17 -30 -13 -34 3 -3 1 -6 -5 -6 -7 0 -12
-6 -12 -13 0 -7 -9 -23 -19 -34 -11 -12 -17 -24 -13 -27 3 -4 0 -11 -8 -16 -8
-5 -15 -14 -15 -20 0 -6 -6 -14 -13 -19 -8 -5 -14 -12 -14 -17 -1 -21 -18 -54
-28 -54 -6 0 -8 -5 -4 -12 4 -6 0 -16 -8 -22 -8 -6 -17 -15 -19 -21 -2 -5 -7
-9 -11 -8 -4 2 -5 -6 -3 -17 2 -11 0 -20 -4 -20 -5 0 -12 -11 -15 -25 -4 -16
-11 -23 -18 -19 -7 5 -9 0 -6 -14 4 -12 1 -25 -4 -29 -7 -3 -8 -1 -4 5 4 7 5
12 2 12 -2 0 -11 -14 -20 -30 -9 -19 -10 -28 -3 -23 7 4 6 0 -2 -10 -7 -9 -18
-14 -25 -10 -6 3 -8 3 -4 -2 9 -9 -65 -152 -87 -167 -6 -5 -6 -8 -1 -8 6 0 1
-7 -10 -16 -10 -8 -12 -13 -4 -9 8 4 6 -1 -4 -9 -11 -9 -16 -16 -12 -16 4 0
-2 -13 -13 -29 -11 -15 -18 -31 -14 -35 3 -3 1 -6 -5 -6 -7 0 -12 -7 -12 -15
0 -8 -5 -15 -11 -15 -6 0 -8 -7 -5 -16 3 -8 2 -13 -2 -11 -4 3 -16 -7 -26 -21
-11 -14 -14 -22 -8 -18 16 10 15 -2 -2 -19 -7 -8 -17 -11 -21 -7 -4 4 -5 2 -4
-3 5 -18 -11 -53 -28 -59 -13 -5 -13 -9 -2 -23 10 -12 10 -14 2 -9 -8 4 -13 2
-13 -7 0 -8 -7 -18 -16 -21 -9 -3 -14 -12 -11 -20 3 -7 -3 -19 -13 -26 -10 -7
-16 -18 -14 -24 3 -7 -4 -21 -14 -31 -19 -21 -36 -55 -34 -67 1 -5 -3 -8 -8
-8 -6 0 -10 -7 -10 -15 0 -8 -5 -15 -11 -15 -5 0 -7 -4 -4 -10 3 -5 1 -10 -4
-10 -6 0 -11 -7 -11 -15 0 -8 -5 -15 -11 -15 -5 0 -7 -5 -4 -10 3 -6 -1 -13
-9 -16 -9 -3 -14 -10 -11 -14 3 -5 -2 -15 -11 -24 -8 -9 -12 -20 -9 -26 3 -5
1 -10 -4 -10 -6 0 -11 -7 -11 -15 0 -8 -4 -15 -9 -15 -5 0 -13 -10 -17 -22 -3
-12 -13 -28 -20 -36 -8 -7 -12 -18 -9 -23 4 -5 -1 -9 -10 -9 -10 0 -13 -5 -9
-12 4 -6 -1 -17 -11 -25 -11 -7 -15 -13 -11 -13 5 0 3 -6 -3 -13 -6 -8 -12
-23 -14 -35 -2 -12 -7 -25 -12 -29 -4 -5 -5 -3 -1 4 3 6 3 14 -2 17 -4 2 -9
-5 -9 -17 -1 -12 -7 -23 -13 -25 -5 -2 -8 -8 -4 -13 3 -5 0 -9 -6 -9 -6 0 -8
-4 -5 -10 3 -5 1 -10 -4 -10 -6 0 -10 -4 -8 -9 1 -5 -7 -17 -18 -26 -11 -9
-14 -13 -6 -9 7 4 2 -11 -13 -32 -14 -21 -26 -44 -26 -51 0 -7 -4 -13 -10 -13
-5 0 -10 -6 -10 -14 0 -7 -7 -19 -15 -26 -8 -7 -12 -16 -10 -21 3 -4 0 -11 -7
-16 -7 -4 -19 -19 -26 -32 -11 -19 -11 -22 0 -16 7 3 5 0 -4 -8 -10 -8 -18
-20 -18 -26 0 -7 -5 -9 -12 -5 -7 4 -8 3 -4 -4 4 -6 0 -22 -9 -35 -8 -13 -12
-27 -8 -32 5 -4 1 -6 -8 -3 -9 4 -16 0 -17 -8 -1 -8 -3 -20 -4 -28 -1 -8 -6
-14 -11 -13 -5 1 -11 -7 -13 -18 -1 -11 -11 -25 -20 -32 -10 -7 -14 -13 -10
-13 5 0 3 -6 -3 -13 -6 -8 -8 -17 -4 -20 3 -4 -2 -7 -13 -7 -14 0 -16 -2 -6
-9 11 -7 10 -9 -3 -15 -9 -3 -13 -10 -10 -16 3 -6 -1 -13 -9 -16 -9 -3 -13
-10 -10 -15 3 -5 -2 -12 -10 -15 -9 -3 -16 -10 -16 -16 0 -5 6 -6 13 -2 6 4 2
-3 -10 -15 -13 -12 -23 -27 -23 -34 -1 -13 -24 22 -25 38 -1 6 -7 9 -14 7 -7
-1 -10 2 -7 7 4 5 0 16 -8 24 -8 8 -12 17 -9 21 4 3 1 6 -6 6 -7 0 -10 4 -7 8
3 5 -4 18 -14 30 -11 12 -20 31 -20 42 0 12 -4 18 -10 15 -5 -3 -10 1 -10 9 0
9 -5 16 -11 16 -5 0 -7 5 -4 10 3 6 -1 13 -9 16 -9 3 -13 10 -10 15 3 5 -2 16
-10 25 -9 9 -14 20 -11 25 4 5 -1 9 -10 9 -9 0 -14 4 -10 9 3 5 0 15 -7 23 -7
7 -14 19 -16 26 -1 7 -11 23 -21 34 -11 11 -17 27 -14 35 3 7 2 13 -3 11 -5
-2 -11 2 -13 7 -2 6 -12 21 -22 34 -10 13 -16 27 -13 32 3 5 -2 9 -10 9 -8 0
-13 6 -10 13 2 7 -3 22 -13 33 -10 11 -19 26 -21 33 -1 7 -9 20 -17 28 -14 13
-19 28 -16 46 0 4 -6 7 -15 7 -8 0 -13 4 -9 9 3 5 -1 16 -9 24 -8 8 -12 17 -9
21 4 3 0 6 -7 6 -7 0 -11 3 -7 6 3 4 -1 13 -9 21 -8 8 -12 19 -9 24 4 5 1 9
-4 9 -6 0 -11 7 -11 15 0 7 -8 18 -17 24 -10 5 -15 13 -11 16 4 4 -4 19 -17
33 -13 14 -22 29 -19 33 2 4 0 10 -6 14 -6 4 -8 11 -4 16 3 5 0 8 -8 7 -7 -2
-12 3 -11 10 2 6 -2 12 -8 12 -5 0 -7 5 -4 10 3 6 1 10 -4 10 -6 0 -11 9 -11
21 0 11 -4 17 -10 14 -5 -3 -10 3 -10 14 0 11 -10 27 -22 35 -14 10 -17 16 -8
16 10 0 9 3 -4 13 -15 11 -22 28 -25 60 -1 5 -5 5 -11 2 -5 -3 -10 3 -10 15 0
11 -7 23 -15 26 -8 4 -12 10 -9 15 3 5 0 9 -6 9 -6 0 -8 5 -5 10 3 6 1 10 -5
10 -6 0 -8 5 -5 10 3 6 1 10 -4 10 -6 0 -11 7 -11 15 0 8 -4 15 -8 15 -5 0
-14 16 -22 35 -8 19 -18 35 -22 35 -5 0 -7 4 -4 9 3 5 -1 12 -10 15 -8 3 -13
10 -10 15 4 5 -1 16 -9 24 -8 9 -15 20 -15 25 0 6 -5 12 -10 14 -6 2 -12 13
-13 25 0 12 -4 20 -7 18 -3 -2 -12 5 -19 17 -10 16 -10 19 1 13 7 -3 5 0 -4 8
-10 8 -15 17 -11 20 3 4 1 7 -5 7 -7 0 -12 7 -12 15 0 8 -5 15 -11 15 -5 0 -7
5 -4 10 3 6 1 10 -5 10 -6 0 -8 5 -5 10 3 6 1 10 -4 10 -6 0 -11 7 -11 15 0 8
-5 15 -11 15 -5 0 -8 4 -4 9 3 5 -2 16 -10 24 -8 9 -15 20 -15 26 0 6 -4 11
-10 11 -5 0 -10 7 -10 15 0 8 -4 15 -10 15 -5 0 -10 9 -10 20 0 10 -8 23 -17
29 -10 5 -17 11 -15 13 4 4 -10 41 -18 48 -15 12 -50 82 -45 91 4 5 -1 9 -9 9
-9 0 -19 12 -22 27 -4 15 -13 34 -21 41 -7 8 -11 17 -8 22 3 4 -2 10 -10 14
-8 3 -15 12 -15 21 0 8 -5 15 -12 15 -6 0 -9 3 -5 6 3 3 -4 17 -16 31 -12 13
-22 28 -22 31 -1 15 -30 72 -37 72 -5 0 -8 6 -8 14 0 8 -5 16 -10 18 -6 2 -12
13 -13 25 0 12 -5 19 -9 17 -4 -3 -8 2 -8 10 0 9 -5 16 -11 16 -5 0 -7 5 -4
10 3 6 1 10 -6 10 -7 0 -10 3 -6 6 3 4 -1 13 -9 21 -8 9 -18 28 -21 44 -3 16
-9 32 -14 35 -5 3 -6 -3 -3 -13 3 -10 -1 -7 -9 7 -9 14 -13 28 -11 31 2 4 -3
12 -11 19 -8 7 -15 19 -15 27 0 8 -4 12 -9 8 -6 -3 -8 4 -6 15 2 11 0 18 -5
15 -5 -3 -11 4 -15 15 -3 11 -10 20 -15 20 -5 0 -7 7 -4 15 4 8 1 15 -6 15 -6
0 -8 5 -5 10 3 6 -2 10 -11 10 -10 0 -14 3 -11 7 4 3 1 13 -6 21 -10 13 -9 14
2 7 10 -5 12 -4 7 3 -4 7 -15 12 -24 12 -13 0 -14 2 -4 9 11 7 10 9 -3 15 -9
3 -13 10 -10 16 3 5 1 10 -4 10 -6 0 -11 9 -11 20 0 12 -7 20 -17 20 -9 0 -14
3 -10 6 9 9 -22 66 -33 59 -4 -3 -7 6 -5 20 1 15 -3 25 -11 25 -7 0 -16 5 -20
12 -5 7 -3 8 5 3 10 -5 9 -2 0 13 -7 12 -17 19 -21 16 -4 -3 -5 1 -2 9 3 8 -2
21 -10 30 -9 9 -16 20 -16 26 0 6 -5 11 -11 11 -5 0 -8 4 -4 9 3 5 -2 16 -10
24 -8 9 -15 20 -15 25 0 5 -7 15 -15 22 -9 7 -14 18 -11 25 2 6 -5 17 -15 23
-10 7 -19 21 -19 32 0 11 -4 20 -10 20 -5 0 -10 7 -10 15 0 8 -5 15 -11 15 -5
0 -7 5 -4 10 3 6 -1 13 -9 16 -9 3 -16 11 -16 17 0 6 -8 19 -17 30 -10 11 -12
17 -5 13 11 -7 11 -4 0 13 -7 12 -17 21 -21 21 -5 0 -7 6 -4 14 3 8 -1 17 -9
20 -9 3 -13 10 -10 15 3 5 -1 12 -10 15 -8 3 -12 10 -9 16 3 5 1 10 -4 10 -6
0 -11 6 -11 14 0 8 -7 22 -16 30 -8 9 -13 16 -9 16 3 0 -4 10 -15 22 -11 12
-18 28 -16 34 3 7 -2 15 -10 18 -8 3 -14 12 -14 21 0 8 -5 15 -11 15 -5 0 -7
5 -4 10 3 6 1 10 -5 10 -6 0 -8 5 -5 10 3 6 1 10 -4 10 -6 0 -11 7 -11 15 0 8
-5 15 -12 15 -6 0 -8 3 -5 7 4 3 -1 12 -11 20 -10 9 -11 12 -2 7 9 -4 6 3 -6
17 -12 13 -25 34 -29 47 -3 12 -11 20 -16 17 -5 -3 -6 1 -3 9 3 8 -4 24 -15
35 -12 12 -21 28 -21 36 0 8 -4 15 -10 15 -5 0 -10 7 -10 16 0 9 -5 12 -12 8
-7 -4 -10 -4 -6 1 8 8 -19 66 -36 77 -7 5 -6 8 4 8 9 1 6 5 -7 10 -13 5 -23
17 -23 27 0 9 -9 26 -19 37 -11 12 -21 30 -23 41 -1 11 -7 23 -13 27 -5 4 -11
12 -11 18 -1 5 -2 15 -3 20 0 6 -7 10 -14 10 -8 0 -14 7 -15 15 -1 8 -3 22 -4
30 -1 8 -5 12 -9 10 -7 -5 -23 24 -21 38 1 4 -3 7 -9 7 -5 0 -7 5 -4 10 3 6
-1 10 -10 10 -9 0 -13 5 -10 10 3 6 2 10 -4 10 -6 0 -8 7 -5 15 4 8 -1 17 -10
21 -9 3 -13 10 -10 15 3 5 0 9 -7 9 -7 0 -10 3 -6 6 3 4 -1 13 -9 21 -8 8 -12
19 -9 24 4 5 -1 9 -9 9 -10 0 -13 6 -9 17 4 11 3 14 -5 9 -8 -5 -12 0 -12 13
0 12 -4 21 -10 21 -5 0 -10 7 -10 15 0 8 -4 15 -10 15 -5 0 -7 6 -4 14 3 7 -3
16 -13 20 -15 6 -15 8 -3 16 13 8 13 10 -1 10 -18 0 -33 26 -23 41 3 5 0 8 -8
7 -7 -2 -14 7 -16 20 -2 12 -8 22 -13 22 -5 0 -9 7 -9 16 0 9 -5 12 -12 8 -6
-4 -8 -3 -4 4 3 6 -1 17 -9 25 -8 9 -15 23 -15 31 0 9 -5 16 -11 16 -5 0 -7 5
-4 10 3 6 2 10 -4 10 -11 0 -41 56 -41 77 0 8 -4 12 -9 9 -10 -7 -24 22 -16
34 3 5 -4 12 -16 15 -17 6 -19 9 -8 16 11 7 10 9 -3 9 -10 0 -18 3 -17 8 2 15
-14 52 -23 52 -5 0 -6 5 -3 10 3 6 1 10 -4 10 -6 0 -11 7 -11 15 0 9 -7 18
-16 22 -13 5 -13 7 -2 14 9 6 9 9 1 9 -7 0 -17 8 -22 19 -9 17 -5 18 55 17 36
-1 68 2 70 6 3 4 7 8 10 8 3 0 2 -5 -1 -11z"/>
</g>
</svg>
