<svg width="81" height="48" viewBox="0 0 81 48" fill="none" xmlns="http://www.w3.org/2000/svg">
<path d="M9.70654 29.3408C10.1265 29.3408 10.4585 29.2529 10.7026 29.0771C10.9468 28.8916 11.1519 28.5791 11.3179 28.1396L18.4224 9.66797C18.5298 9.375 18.5835 9.13086 18.5835 8.93555C18.5835 8.60352 18.4565 8.33008 18.2026 8.11523C17.9585 7.90039 17.6411 7.79297 17.2505 7.79297C16.6548 7.79297 16.2397 8.10547 16.0054 8.73047L9.75049 25.9277H9.6626L3.40771 8.73047C3.18311 8.10547 2.76318 7.79297 2.14795 7.79297C1.75732 7.79297 1.43994 7.90039 1.1958 8.11523C0.95166 8.32031 0.82959 8.59375 0.82959 8.93555C0.82959 9.15039 0.883301 9.39453 0.990723 9.66797L8.08057 28.125C8.24658 28.5645 8.45166 28.877 8.6958 29.0625C8.94971 29.248 9.28662 29.3408 9.70654 29.3408ZM22.4507 29.3408C22.8315 29.3408 23.1294 29.2285 23.3442 29.0039C23.5688 28.7695 23.6812 28.457 23.6812 28.0664V12.8467H23.7837L30.0532 27.876C30.3657 28.6182 30.8931 28.9893 31.6353 28.9893C32.3677 28.9893 32.895 28.6084 33.2173 27.8467L39.4868 12.8467H39.5894V28.0664C39.5894 28.457 39.6968 28.7695 39.9116 29.0039C40.1362 29.2285 40.439 29.3408 40.8198 29.3408C41.2007 29.3408 41.4985 29.2285 41.7134 29.0039C41.938 28.7695 42.0503 28.457 42.0503 28.0664V9.43359C42.0503 8.93555 41.8989 8.54004 41.5962 8.24707C41.2935 7.94434 40.8931 7.79297 40.395 7.79297C39.9458 7.79297 39.5698 7.90527 39.2671 8.12988C38.9644 8.35449 38.7104 8.71094 38.5054 9.19922L31.6938 25.6348H31.5767L24.7505 9.19922C24.5454 8.71094 24.2964 8.35449 24.0034 8.12988C23.7202 7.90527 23.354 7.79297 22.9048 7.79297C22.397 7.79297 21.9868 7.94434 21.6743 8.24707C21.3716 8.5498 21.2202 8.94531 21.2202 9.43359V28.0664C21.2202 28.457 21.3276 28.7695 21.5425 29.0039C21.7671 29.2285 22.0698 29.3408 22.4507 29.3408ZM47.4702 29.1357H58.2075C58.5786 29.1357 58.8813 29.0283 59.1157 28.8135C59.3501 28.5889 59.4673 28.3008 59.4673 27.9492C59.4673 27.5977 59.3501 27.3145 59.1157 27.0996C58.8813 26.875 58.5786 26.7627 58.2075 26.7627H48.7886V19.4971H57.6802C58.0513 19.4971 58.3491 19.3896 58.5737 19.1748C58.8081 18.9502 58.9253 18.667 58.9253 18.3252C58.9253 17.9736 58.8081 17.6904 58.5737 17.4756C58.3491 17.2607 58.0513 17.1533 57.6802 17.1533H48.7886V10.3711H58.2075C58.5786 10.3711 58.8813 10.2637 59.1157 10.0488C59.3501 9.82422 59.4673 9.53613 59.4673 9.18457C59.4673 8.83301 59.3501 8.5498 59.1157 8.33496C58.8813 8.11035 58.5786 7.99805 58.2075 7.99805H47.4702C47.0698 7.99805 46.7476 8.12012 46.5034 8.36426C46.269 8.6084 46.1519 8.94043 46.1519 9.36035V27.7734C46.1519 28.1934 46.269 28.5254 46.5034 28.7695C46.7476 29.0137 47.0698 29.1357 47.4702 29.1357ZM63.2905 29.3408C63.5347 29.3408 63.7349 29.2871 63.8911 29.1797C64.0474 29.082 64.2231 28.8965 64.4185 28.623L70.0288 20.7129H70.1313L75.7124 28.667C75.8784 28.9111 76.0493 29.082 76.2251 29.1797C76.4009 29.2871 76.6108 29.3408 76.855 29.3408C77.2261 29.3408 77.5435 29.2236 77.8071 28.9893C78.0708 28.7451 78.2026 28.457 78.2026 28.125C78.2026 27.9785 78.1782 27.8369 78.1294 27.7002C78.0806 27.5537 78.0122 27.417 77.9243 27.29L71.772 18.6621V18.5742L78.1147 9.77051C78.2222 9.62402 78.2954 9.48242 78.3345 9.3457C78.3833 9.20898 78.4077 9.07227 78.4077 8.93555C78.4077 8.62305 78.2808 8.35449 78.0269 8.12988C77.7827 7.90527 77.48 7.79297 77.1187 7.79297C76.8745 7.79297 76.6743 7.84668 76.5181 7.9541C76.3618 8.06152 76.186 8.24707 75.9907 8.51074L70.3511 16.4941H70.2485L64.7114 8.56934C64.5063 8.2666 64.3159 8.06152 64.1401 7.9541C63.9741 7.84668 63.7642 7.79297 63.5103 7.79297C63.1294 7.79297 62.8071 7.91504 62.5435 8.15918C62.2798 8.39355 62.1479 8.68164 62.1479 9.02344C62.1479 9.16992 62.1675 9.31152 62.2065 9.44824C62.2554 9.58496 62.3335 9.73145 62.4409 9.8877L68.5347 18.4424V18.5449L62.2944 27.3633C62.1968 27.5 62.1235 27.6416 62.0747 27.7881C62.0259 27.9248 62.0015 28.0615 62.0015 28.1982C62.0015 28.5107 62.1235 28.7793 62.3677 29.0039C62.6216 29.2285 62.9292 29.3408 63.2905 29.3408Z" fill="white"/>
<path d="M37.2349 44.2529C37.3423 44.2529 37.4302 44.2188 37.4985 44.1504C37.5669 44.082 37.6011 43.9868 37.6011 43.8647V37.1191H39.0806C39.1733 37.1191 39.249 37.0923 39.3076 37.0386C39.3662 36.9849 39.3955 36.9092 39.3955 36.8115C39.3955 36.7188 39.3662 36.6455 39.3076 36.5918C39.249 36.5332 39.1733 36.5039 39.0806 36.5039H37.5938V35.4932C37.5938 35.0244 37.6963 34.6924 37.9014 34.4971C38.1113 34.2969 38.4043 34.1943 38.7803 34.1895C38.8633 34.1895 38.9414 34.1919 39.0146 34.1968C39.0928 34.1968 39.1514 34.1943 39.1904 34.1895C39.3418 34.165 39.4175 34.0796 39.4175 33.9331C39.4175 33.8208 39.354 33.7329 39.2271 33.6694C39.1001 33.606 38.9023 33.5742 38.6338 33.5742C38.082 33.5742 37.6475 33.7231 37.3301 34.021C37.0176 34.3188 36.8613 34.7925 36.8613 35.4419V36.5039H36.0264C35.9336 36.5039 35.8579 36.5332 35.7993 36.5918C35.7407 36.6455 35.7114 36.7188 35.7114 36.8115C35.7114 36.9092 35.7407 36.9849 35.7993 37.0386C35.8579 37.0923 35.9336 37.1191 36.0264 37.1191H36.8613V43.8647C36.8613 43.9868 36.8955 44.082 36.9639 44.1504C37.0322 44.2188 37.1226 44.2529 37.2349 44.2529ZM40.7725 34.7314C40.9141 34.7314 41.0361 34.6826 41.1387 34.585C41.2461 34.4824 41.2998 34.3579 41.2998 34.2114C41.2998 34.0649 41.2461 33.9429 41.1387 33.8452C41.0361 33.7476 40.9141 33.6987 40.7725 33.6987C40.6309 33.6987 40.5063 33.7476 40.3989 33.8452C40.2964 33.9429 40.2451 34.0649 40.2451 34.2114C40.2451 34.3579 40.2964 34.4824 40.3989 34.585C40.5063 34.6826 40.6309 34.7314 40.7725 34.7314ZM40.7725 44.2529C40.8799 44.2529 40.9678 44.2163 41.0361 44.1431C41.1045 44.0747 41.1387 43.9795 41.1387 43.8574V36.7749C41.1387 36.6528 41.1045 36.5576 41.0361 36.4893C40.9678 36.416 40.8799 36.3794 40.7725 36.3794C40.6602 36.3794 40.5698 36.416 40.5015 36.4893C40.4331 36.5576 40.3989 36.6528 40.3989 36.7749V43.8574C40.3989 43.9795 40.4331 44.0747 40.5015 44.1431C40.5698 44.2163 40.6602 44.2529 40.7725 44.2529ZM43.1162 44.2529C43.2236 44.2529 43.3115 44.2163 43.3799 44.1431C43.4482 44.0747 43.4824 43.9795 43.4824 43.8574V39.5947C43.4824 39.0869 43.5825 38.6426 43.7827 38.2617C43.9829 37.876 44.2612 37.5757 44.6177 37.3608C44.979 37.1411 45.4014 37.0312 45.8848 37.0312C46.5537 37.0312 47.0908 37.2314 47.4961 37.6318C47.9014 38.0322 48.104 38.5889 48.104 39.3018V43.8574C48.104 43.9795 48.1382 44.0747 48.2065 44.1431C48.2749 44.2163 48.3628 44.2529 48.4702 44.2529C48.5776 44.2529 48.6655 44.2163 48.7339 44.1431C48.8022 44.0747 48.8364 43.9795 48.8364 43.8574V39.1919C48.8364 38.6157 48.7217 38.1177 48.4922 37.6978C48.2676 37.2729 47.9478 36.9482 47.5327 36.7236C47.1226 36.4941 46.6416 36.3794 46.0898 36.3794C45.4404 36.3794 44.8862 36.5356 44.4272 36.8481C43.9731 37.1606 43.6533 37.5806 43.4678 38.1079H43.4458V36.7529C43.4458 36.6406 43.4116 36.5503 43.3433 36.4819C43.2798 36.4136 43.1968 36.3794 43.0942 36.3794C42.9917 36.3794 42.9062 36.4136 42.8379 36.4819C42.7744 36.5503 42.7427 36.6406 42.7427 36.7529V43.8574C42.7427 43.9795 42.7769 44.0747 42.8452 44.1431C42.9185 44.2163 43.0088 44.2529 43.1162 44.2529ZM52.6597 44.2529C53.0698 44.2529 53.458 44.1821 53.8242 44.0405C54.1953 43.8989 54.52 43.7012 54.7983 43.4473C55.0767 43.1885 55.2793 42.8931 55.4062 42.561H55.4282C55.4282 42.7808 55.4282 43.0029 55.4282 43.2275C55.4282 43.4473 55.4282 43.667 55.4282 43.8867C55.4282 43.999 55.46 44.0869 55.5234 44.1504C55.5918 44.2188 55.6772 44.2529 55.7798 44.2529C55.8872 44.2529 55.9727 44.2188 56.0361 44.1504C56.1045 44.082 56.1387 43.9893 56.1387 43.8721V38.9575C56.1387 38.4253 56.0264 37.9688 55.8018 37.5879C55.5771 37.2021 55.2573 36.9043 54.8423 36.6943C54.4321 36.4844 53.939 36.3794 53.3628 36.3794C52.6499 36.3794 52.0469 36.5332 51.5537 36.8408C51.0654 37.1484 50.7334 37.5488 50.5576 38.042C50.4893 38.2178 50.4551 38.3691 50.4551 38.4961C50.4551 38.5986 50.4844 38.6792 50.543 38.7378C50.6064 38.7964 50.6846 38.8257 50.7773 38.8257C50.9287 38.8257 51.0361 38.7524 51.0996 38.606C51.2607 38.0591 51.5317 37.6587 51.9126 37.4048C52.2983 37.146 52.7769 37.0166 53.3481 37.0166C53.9927 37.0166 54.4956 37.1948 54.8569 37.5513C55.2183 37.9028 55.3989 38.3911 55.3989 39.0161V39.6826L52.8574 39.8584C51.9639 39.917 51.2852 40.1367 50.8213 40.5176C50.3574 40.8984 50.1255 41.4136 50.1255 42.063C50.1255 42.4927 50.2329 42.8735 50.4478 43.2056C50.6675 43.5327 50.9653 43.7891 51.3413 43.9746C51.7222 44.1602 52.1616 44.2529 52.6597 44.2529ZM52.8062 43.6304C52.2446 43.6304 51.7808 43.4839 51.4146 43.1909C51.0532 42.8931 50.8726 42.5049 50.8726 42.0264C50.8726 41.5723 51.0508 41.2061 51.4072 40.9277C51.7637 40.6445 52.2812 40.4761 52.96 40.4224L55.3989 40.2466V41.3013C55.3989 41.7358 55.2817 42.1289 55.0474 42.4805C54.8179 42.832 54.5054 43.1128 54.1099 43.3228C53.7192 43.5278 53.2847 43.6304 52.8062 43.6304ZM58.0283 44.2529C58.1357 44.2529 58.2236 44.2163 58.292 44.1431C58.3604 44.0747 58.3945 43.9795 58.3945 43.8574V39.5947C58.3945 39.0869 58.4946 38.6426 58.6948 38.2617C58.895 37.876 59.1733 37.5757 59.5298 37.3608C59.8911 37.1411 60.3135 37.0312 60.7969 37.0312C61.4658 37.0312 62.0029 37.2314 62.4082 37.6318C62.8135 38.0322 63.0161 38.5889 63.0161 39.3018V43.8574C63.0161 43.9795 63.0503 44.0747 63.1187 44.1431C63.187 44.2163 63.2749 44.2529 63.3823 44.2529C63.4897 44.2529 63.5776 44.2163 63.646 44.1431C63.7144 44.0747 63.7485 43.9795 63.7485 43.8574V39.1919C63.7485 38.6157 63.6338 38.1177 63.4043 37.6978C63.1797 37.2729 62.8599 36.9482 62.4448 36.7236C62.0347 36.4941 61.5537 36.3794 61.002 36.3794C60.3525 36.3794 59.7983 36.5356 59.3394 36.8481C58.8853 37.1606 58.5654 37.5806 58.3799 38.1079H58.3579V36.7529C58.3579 36.6406 58.3237 36.5503 58.2554 36.4819C58.1919 36.4136 58.1089 36.3794 58.0063 36.3794C57.9038 36.3794 57.8184 36.4136 57.75 36.4819C57.6865 36.5503 57.6548 36.6406 57.6548 36.7529V43.8574C57.6548 43.9795 57.689 44.0747 57.7573 44.1431C57.8306 44.2163 57.9209 44.2529 58.0283 44.2529ZM68.3408 44.2603C68.8145 44.2603 69.2515 44.1797 69.6519 44.0186C70.0571 43.8525 70.4014 43.623 70.6846 43.3301C70.9727 43.0371 71.1729 42.7002 71.2852 42.3193C71.2998 42.2705 71.3096 42.2266 71.3145 42.1875C71.3242 42.1484 71.3291 42.1143 71.3291 42.085C71.3291 41.9824 71.2998 41.9019 71.2412 41.8433C71.1826 41.7847 71.1045 41.7554 71.0068 41.7554C70.9287 41.7554 70.8628 41.7749 70.8091 41.814C70.7554 41.853 70.7065 41.9189 70.6626 42.0117C70.5015 42.5293 70.2085 42.9272 69.7837 43.2056C69.3638 43.479 68.8804 43.6157 68.3335 43.6157C67.5083 43.6157 66.854 43.3203 66.3706 42.7295C65.8921 42.1338 65.6528 41.3306 65.6528 40.3198C65.6528 39.3091 65.8921 38.5059 66.3706 37.9102C66.854 37.3145 67.5059 37.0166 68.3262 37.0166C68.873 37.0166 69.3564 37.1582 69.7764 37.4414C70.2012 37.7246 70.499 38.1348 70.6699 38.6719C70.709 38.7598 70.7529 38.8257 70.8018 38.8696C70.8555 38.9087 70.9263 38.9282 71.0142 38.9282C71.1118 38.9282 71.1875 38.8989 71.2412 38.8403C71.2998 38.7817 71.3291 38.7036 71.3291 38.606C71.3291 38.5376 71.3169 38.4595 71.2925 38.3716C71.1802 37.9712 70.9775 37.6221 70.6846 37.3242C70.3965 37.0264 70.0474 36.7944 69.6372 36.6284C69.2319 36.4624 68.79 36.3794 68.3115 36.3794C67.623 36.3794 67.0225 36.5405 66.5098 36.8628C66.002 37.1851 65.6064 37.6416 65.3232 38.2324C65.0449 38.8232 64.9058 39.5239 64.9058 40.3345C64.9058 41.1353 65.0449 41.8311 65.3232 42.4219C65.6064 43.0078 66.0044 43.4619 66.5171 43.7842C67.0347 44.1016 67.6426 44.2603 68.3408 44.2603ZM75.6797 44.2603C76.4121 44.2603 77.0469 44.0942 77.584 43.7622C78.1211 43.4253 78.4849 42.9736 78.6753 42.4072C78.7144 42.3096 78.7339 42.229 78.7339 42.1655C78.7339 42.0679 78.7021 41.9922 78.6387 41.9385C78.5801 41.8799 78.502 41.8506 78.4043 41.8506C78.3408 41.8506 78.2871 41.8677 78.2432 41.9019C78.1992 41.9312 78.1577 41.9751 78.1187 42.0337C77.9233 42.5464 77.6133 42.9419 77.1885 43.2202C76.7637 43.4937 76.251 43.6304 75.6504 43.6304C74.8301 43.6304 74.1733 43.3521 73.6802 42.7954C73.187 42.2388 72.9404 41.4624 72.9404 40.4663C72.9404 40.4663 72.9404 40.4639 72.9404 40.459H78.4189C78.5654 40.459 78.6777 40.4199 78.7559 40.3418C78.8389 40.2588 78.8804 40.144 78.8804 39.9976C78.8804 39.2798 78.7412 38.6499 78.4629 38.1079C78.1895 37.5659 77.8037 37.1436 77.3057 36.8408C76.8125 36.5332 76.2363 36.3794 75.5771 36.3794C74.8984 36.3794 74.3027 36.543 73.79 36.8701C73.2822 37.1924 72.8892 37.6514 72.6108 38.2471C72.3325 38.8428 72.1934 39.5459 72.1934 40.3564C72.1934 41.582 72.5059 42.5391 73.1309 43.2275C73.7559 43.916 74.6055 44.2603 75.6797 44.2603ZM72.9478 39.8804C72.9771 39.3042 73.104 38.8013 73.3286 38.3716C73.5581 37.9419 73.8657 37.6074 74.2515 37.3682C74.6372 37.1289 75.0791 37.0093 75.5771 37.0093C76.085 37.0093 76.5293 37.1289 76.9102 37.3682C77.291 37.6074 77.5889 37.9443 77.8037 38.3789C78.0234 38.8086 78.1357 39.3091 78.1406 39.8804H72.9478Z" fill="white"/>
</svg>
