<?xml version="1.0" standalone="no"?>
<!DOCTYPE svg PUBLIC "-//W3C//DTD SVG 20010904//EN"
 "http://www.w3.org/TR/2001/REC-SVG-20010904/DTD/svg10.dtd">
<svg version="1.0" xmlns="http://www.w3.org/2000/svg"
 width="260.000000pt" height="241.000000pt" viewBox="0 0 260.000000 241.000000"
 preserveAspectRatio="xMidYMid meet">

<g transform="translate(0.000000,241.000000) scale(0.100000,-0.100000)"
fill="#000000" stroke="none">
<path d="M0 1205 l0 -1205 1300 0 1300 0 0 1205 0 1205 -1300 0 -1300 0 0
-1205z m1239 737 c19 -11 25 -12 32 -1 6 11 14 11 44 0 53 -19 83 -20 96 -5
13 16 33 19 24 4 -3 -5 0 -7 9 -4 8 3 26 -2 40 -11 19 -13 37 -16 65 -11 24 4
55 0 81 -9 35 -12 46 -13 74 -1 37 16 41 14 130 -51 127 -94 222 -236 247
-371 14 -71 7 -199 -16 -274 -9 -32 -31 -80 -50 -107 l-34 -49 67 -28 c82 -35
196 -143 232 -219 130 -281 -10 -583 -312 -669 -132 -38 -276 -3 -414 99 -10
7 -20 6 -31 -2 -99 -70 -214 -113 -304 -113 -65 0 -188 37 -246 73 -103 65
-199 205 -223 325 -13 69 -13 168 1 194 9 16 8 19 -2 13 -7 -5 -46 -10 -88
-12 -151 -8 -176 -11 -202 -18 -16 -4 -30 -2 -33 4 -4 6 -17 11 -30 11 -26 0
-56 59 -101 200 -50 157 -66 231 -91 410 -25 188 -14 296 53 500 6 17 6 17 24
-65 7 -33 16 -64 20 -70 4 -5 9 -26 12 -45 6 -42 24 -90 41 -110 8 -8 19 -32
27 -52 8 -24 19 -38 30 -38 9 0 22 -7 29 -15 14 -17 45 -21 34 -4 -5 8 -1 8
14 0 11 -6 39 -11 61 -11 57 0 159 -28 211 -59 25 -14 59 -26 75 -27 17 0 38
-4 47 -8 13 -6 24 3 47 36 16 24 38 52 47 63 18 19 18 19 25 -5 15 -50 1 198
-15 270 -25 116 -29 148 -21 167 5 10 9 31 9 48 1 28 4 30 54 38 33 6 64 5 83
-2 34 -12 58 -5 78 22 7 10 16 15 20 11 3 -5 17 -15 30 -22z"/>
<path d="M1461 1629 c-63 -11 -136 -48 -195 -101 -52 -45 -99 -138 -116 -229
-11 -58 -11 -75 4 -135 10 -38 29 -88 43 -112 13 -24 23 -45 21 -46 -1 -2 -32
-9 -68 -16 -36 -7 -87 -24 -114 -38 -67 -33 -146 -115 -182 -187 -27 -55 -29
-68 -29 -170 0 -97 3 -116 26 -165 55 -115 155 -195 284 -227 58 -14 78 -15
139 -4 94 16 162 48 221 105 27 25 51 46 54 46 4 0 15 -11 25 -25 32 -42 117
-91 191 -108 86 -21 98 -21 177 -1 106 26 134 42 204 114 39 40 56 68 83 135
19 46 28 128 19 173 -23 116 -41 153 -109 223 -36 38 -71 69 -77 69 -6 0 -17
6 -24 13 -7 7 -50 21 -95 32 -46 11 -83 22 -83 26 0 3 13 32 29 65 45 93 57
161 41 236 -15 71 -41 134 -67 165 -10 12 -27 33 -37 48 -30 41 -143 102 -210
114 -67 12 -79 12 -155 0z m155 -170 c27 -44 54 -88 59 -97 6 -10 23 -39 38
-65 15 -26 26 -51 23 -56 -3 -5 -20 -14 -38 -22 -18 -7 -41 -20 -51 -29 -10
-8 -20 -14 -23 -12 -3 2 -21 -9 -41 -24 l-36 -27 -71 38 c-39 21 -83 46 -98
57 -28 19 -28 19 -9 46 22 33 103 161 142 225 16 26 35 47 42 47 8 0 36 -36
63 -81z m-186 -289 c28 -16 53 -30 56 -30 3 0 19 -9 35 -20 27 -20 30 -20 61
-4 18 9 57 32 85 51 29 19 57 33 63 31 15 -5 -162 -258 -180 -258 -8 0 -32 29
-107 130 -26 36 -50 67 -54 70 -7 6 -29 46 -29 54 0 12 21 5 70 -24z m-172
-212 c-3 -8 -33 -16 -73 -20 -70 -7 -89 -14 -158 -56 -64 -38 -31 -42 42 -5
41 21 90 38 118 40 69 7 154 -13 200 -46 30 -21 47 -27 72 -23 24 3 37 -1 52
-16 34 -37 15 -60 -22 -26 -26 23 -32 0 -8 -31 17 -21 19 -31 12 -48 -19 -41
-33 -137 -23 -162 5 -14 10 -40 12 -60 1 -19 6 -35 11 -35 4 0 6 -4 2 -9 -3
-5 -1 -12 5 -16 5 -3 -2 -16 -18 -30 -29 -25 -23 -47 8 -27 58 36 52 -6 -7
-58 -79 -69 -176 -110 -265 -110 -60 0 -182 41 -227 78 -50 40 -104 114 -124
170 -23 62 -23 191 0 252 45 122 138 204 268 236 68 17 128 18 123 2z m792
-202 l0 -64 -65 6 c-60 4 -65 3 -65 -15 0 -18 9 -21 70 -27 39 -4 70 -11 70
-17 0 -5 8 -9 19 -9 10 0 24 -7 31 -15 10 -12 7 -19 -14 -39 -27 -24 -54 -33
-133 -43 l-43 -5 0 -88 c0 -54 -4 -92 -11 -96 -19 -11 -92 -6 -100 8 -5 7 -9
53 -9 101 0 58 -4 86 -10 82 -18 -11 -150 18 -171 38 -24 22 -25 46 -1 53 9 3
26 10 37 14 18 8 84 20 128 23 9 1 17 9 17 19 0 11 -7 17 -17 16 -10 -1 -39 0
-65 0 -45 2 -47 3 -54 37 -3 19 -3 46 0 60 l6 25 190 0 190 0 0 -64z"/>
<path d="M930 783 c-73 -106 -73 -256 -2 -365 34 -52 61 -52 29 0 -75 120 -75
260 -1 358 20 28 22 44 5 44 -3 0 -17 -17 -31 -37z"/>
<path d="M1002 343 c2 -9 28 -30 58 -47 52 -29 61 -31 160 -31 103 0 107 1
163 35 31 19 57 40 57 47 0 15 -16 17 -25 3 -12 -19 -99 -57 -147 -64 -73 -11
-142 3 -205 40 -64 39 -66 40 -61 17z"/>
<path d="M1731 621 c-65 -7 -78 -26 -24 -34 21 -3 52 -8 69 -12 30 -7 31 -6
26 24 -2 17 -7 30 -11 29 -3 -1 -30 -4 -60 -7z"/>
<path d="M1918 598 l-5 -29 46 7 c25 4 56 10 68 13 38 10 12 28 -49 33 -56 4
-56 4 -60 -24z"/>
</g>
</svg>
