<?xml version="1.0" standalone="no"?>
<!DOCTYPE svg PUBLIC "-//W3C//DTD SVG 20010904//EN"
 "http://www.w3.org/TR/2001/REC-SVG-20010904/DTD/svg10.dtd">
<svg version="1.0" xmlns="http://www.w3.org/2000/svg"
 width="400.000000pt" height="400.000000pt" viewBox="0 0 400.000000 400.000000"
 preserveAspectRatio="xMidYMid meet">

<g transform="translate(0.000000,400.000000) scale(0.100000,-0.100000)"
fill="#000000" stroke="none">
<path d="M1745 3984 c-1004 -136 -1745 -978 -1745 -1984 0 -462 165 -921 455
-1270 190 -228 420 -407 688 -535 677 -324 1477 -238 2082 224 85 64 256 232
328 321 485 600 583 1425 252 2117 -101 212 -205 361 -365 527 -328 340 -726
540 -1193 601 -142 18 -365 18 -502 -1z m400 -314 c402 -38 753 -201 1034
-480 504 -500 638 -1252 340 -1898 -131 -285 -374 -557 -641 -721 -465 -283
-1044 -325 -1539 -112 -436 189 -779 560 -929 1008 -267 800 105 1681 863
2044 279 133 575 187 872 159z"/>
<path d="M1720 3620 c-144 -26 -263 -62 -388 -118 -485 -218 -829 -646 -944
-1172 -20 -92 -23 -134 -23 -330 0 -200 3 -237 23 -330 68 -302 199 -558 398
-778 278 -307 687 -505 1092 -529 l102 -6 0 161 0 161 -247 195 -248 196 -312
0 c-240 0 -313 3 -313 12 0 7 41 83 90 170 50 87 90 161 90 165 -1 5 -43 41
-95 82 l-95 74 1 426 0 426 564 445 564 445 1 163 0 162 -77 -1 c-43 0 -125
-9 -183 -19z"/>
<path d="M2020 3479 l0 -164 532 -420 c292 -231 547 -433 565 -449 l33 -28 0
-422 0 -423 -95 -74 c-52 -41 -94 -78 -95 -83 0 -5 41 -79 90 -165 50 -86 90
-162 90 -169 0 -9 -70 -12 -313 -12 l-313 0 -247 -196 -247 -195 0 -161 0
-161 103 6 c56 3 148 15 204 26 642 131 1144 632 1284 1279 30 140 37 418 15
569 -40 270 -144 522 -308 745 -81 111 -251 277 -368 360 -235 167 -547 279
-817 295 l-113 6 0 -164z"/>
<path d="M1461 2865 c-293 -233 -540 -430 -548 -438 -13 -12 17 -39 233 -211
l248 -196 47 82 c27 46 160 278 296 515 165 288 253 432 263 430 11 -2 338
-555 573 -969 l32 -57 235 185 c129 102 241 191 248 198 11 11 -81 89 -537
450 -302 240 -551 436 -553 435 -2 0 -243 -191 -537 -424z"/>
<path d="M1711 2506 c-156 -272 -284 -498 -285 -503 0 -4 134 -114 297 -243
l297 -234 0 -213 0 -213 536 0 c436 0 535 2 532 13 -4 18 -1082 1886 -1088
1886 -3 0 -133 -222 -289 -493z"/>
<path d="M880 1982 l0 -390 188 -149 c103 -82 297 -237 432 -343 135 -107 298
-236 363 -287 l117 -93 0 397 0 398 -537 425 c-295 234 -543 426 -550 428 -11
3 -13 -70 -13 -386z"/>
<path d="M2859 2181 l-237 -189 155 -268 c85 -148 157 -271 159 -273 2 -2 44
29 94 69 l90 72 0 389 c0 305 -3 389 -12 388 -7 0 -119 -85 -249 -188z"/>
<path d="M990 1258 c-41 -72 -76 -137 -78 -145 -3 -10 46 -13 258 -13 151 0
260 4 258 9 -4 12 -344 281 -355 281 -4 0 -42 -60 -83 -132z"/>
<path d="M2020 900 c0 -93 3 -170 6 -170 7 0 413 320 420 331 3 5 -89 9 -210
9 l-216 0 0 -170z"/>
</g>
</svg>
