<svg width="120" height="120" viewBox="0 0 120 120" fill="none" xmlns="http://www.w3.org/2000/svg">
<circle cx="60" cy="60" r="60" fill="#EDF0F4"/>
<path fill-rule="evenodd" clip-rule="evenodd" d="M59.9998 15C61.519 15 63.0202 15.0753 64.5007 15.2223V71.3733L31.033 33.3854V94.438C21.2292 86.1837 15 73.8191 15 60.0001C15 35.1471 35.1471 15 59.9998 15ZM105 60.0001C105 39.1532 90.8243 21.6174 71.5864 16.5058V89.8174L38.6063 52.1959V99.599C44.9693 103.044 52.2561 105 59.9998 105C84.8528 105 105 84.8526 105 60.0001ZM77.9318 57.3103C77.6969 58.8599 78.1554 60.2017 79.1598 61.0693C80.1228 61.9009 81.4202 62.1497 82.6073 61.9121C83.7665 61.6795 84.5765 60.9658 85.1565 60.2327C85.6736 59.5797 86.0939 58.7974 86.4435 58.1467C86.4741 58.0897 86.5043 58.0336 86.5335 57.9788C86.9354 57.2338 87.2526 56.6829 87.6005 56.3046C87.9078 55.9703 88.1423 55.8754 88.4051 55.8754C89.585 55.8754 90.0683 56.2475 90.2888 56.5384C90.5493 56.882 90.674 57.4185 90.606 58.0622C90.507 59.0045 89.5535 59.7458 88.5779 59.7458V62.4458C90.6339 62.4458 93.018 60.9415 93.2911 58.3449C93.4036 57.2777 93.2497 55.9751 92.4406 54.9073C91.591 53.7869 90.2127 53.1754 88.4051 53.1754C87.1743 53.1754 86.2676 53.7654 85.6133 54.4767C84.9995 55.144 84.5337 55.9994 84.1575 56.6971L84.0954 56.8119C83.7129 57.5216 83.4015 58.0998 83.0397 58.5569C82.677 59.0151 82.3742 59.205 82.0767 59.2646C81.584 59.3634 81.1677 59.2356 80.9247 59.0259C80.7236 58.8521 80.4842 58.4878 80.6016 57.7152C80.7078 57.0128 81.0498 56.6646 81.4269 56.4504C81.8612 56.2039 82.3701 56.1317 82.6428 56.1317V53.4317C82.0448 53.4317 81.0422 53.564 80.0936 54.1025C79.0887 54.6733 78.1775 55.6907 77.9318 57.3103ZM79.4136 41.2957C78.3989 42.6381 78.0528 44.2164 77.9363 45.5424C77.8526 46.4936 77.8836 47.4722 77.9048 48.1448V48.145C77.9124 48.3758 77.9183 48.5706 77.9183 48.7159V50.0659H79.2683H91.821H92.95L93.1498 48.9545C93.3708 47.7237 93.364 46.0278 93.0103 44.4104C92.6629 42.8218 91.9227 41.0515 90.453 39.9774C88.8749 38.8241 86.5808 38.5729 84.6219 38.8062C82.6865 39.0367 80.54 39.8066 79.4136 41.2957ZM90.5961 47.3659H80.5854C80.5742 46.8771 80.5751 46.3557 80.6259 45.7789C80.7218 44.6918 80.9868 43.6918 81.5673 42.9242C82.0367 42.3034 83.2859 41.6844 84.941 41.4873C86.5727 41.2929 88.0635 41.5754 88.86 42.1573C89.5548 42.665 90.0849 43.671 90.3729 44.9872C90.5516 45.8045 90.6141 46.6419 90.5961 47.3659ZM90.3716 66.4836C91.7702 67.3004 92.7961 68.7939 92.7961 71.075C92.7961 73.3529 91.7747 74.8586 90.3986 75.7059C89.1404 76.4808 87.6954 76.6446 86.7149 76.5758H78.6126V73.8758H86.7657H86.8202L86.8742 73.8803C87.4533 73.9271 88.3164 73.8177 88.9829 73.4069C89.5571 73.0532 90.0962 72.42 90.0962 71.075C90.0962 69.7322 89.5616 69.1368 89.0099 68.8151C88.356 68.433 87.5001 68.3489 86.9169 68.4146L86.8413 68.4231H86.7657H78.6126V65.7231H86.6951C87.6716 65.6277 89.1107 65.747 90.3716 66.4836Z" fill="url(#paint0_radial_207_505)"/>
<defs>
<radialGradient id="paint0_radial_207_505" cx="0" cy="0" r="1" gradientUnits="userSpaceOnUse" gradientTransform="translate(59.9998 60.0001) scale(44.9999 45)">
<stop stop-color="#6573AB"/>
<stop offset="1" stop-color="#57628F"/>
</radialGradient>
</defs>
</svg>
