<svg width="21" height="21" viewBox="0 0 21 21" fill="none" xmlns="http://www.w3.org/2000/svg">
<path d="M20.6007 13.4192C19.265 18.777 13.8384 22.0377 8.47995 20.7016C3.12376 19.3659 -0.136888 13.939 1.19942 8.58161C2.53456 3.22322 7.96114 -0.0376759 13.3179 1.29805C18.676 2.63377 21.9364 8.06128 20.6006 13.4193L20.6006 13.4192H20.6007Z" fill="#23292F"/>
<path d="M15.819 5.16602H17.8372L13.6371 9.32462C12.1161 10.8298 9.65008 10.8298 8.12797 9.32462L3.92627 5.16602H5.94612L9.13707 8.32506C10.1045 9.27851 11.6582 9.27851 12.6256 8.32506L15.819 5.16602Z" fill="white"/>
<path d="M5.91997 16.7297H3.90039L8.12773 12.5454C9.64875 11.0402 12.1148 11.0402 13.6369 12.5454L17.8642 16.7297H15.846L12.6278 13.545C11.6604 12.5915 10.1067 12.5915 9.13929 13.545L5.91997 16.7297Z" fill="white"/>
</svg>
