<svg width="120" height="120" viewBox="0 0 120 120" fill="none" xmlns="http://www.w3.org/2000/svg">
<path d="M60 0C93.1401 0 120 26.8653 120 60C120 93.1401 93.1401 120 60 120C26.8653 120 0 93.1374 0 60C0 26.8653 26.8653 0 60 0Z" fill="#F5AC37"/>
<path fill-rule="evenodd" clip-rule="evenodd" d="M31.4258 93.0753V93.2994L31.415 93.3075V93.3453H57.4405C60.3863 93.3858 63.3212 93.1509 66.2156 92.6325C69.2639 92.0358 72.234 91.0962 75.0663 89.8218C76.2944 89.253 77.4727 88.5655 78.6614 87.872C78.9624 87.6964 79.264 87.5204 79.5672 87.3459C80.9659 86.3496 82.3051 85.2696 83.5795 84.122C87.0679 80.9684 89.768 77.0345 91.4555 72.6469C91.5689 72.1555 92.0495 71.8396 92.5436 71.9341H99.6311C100.195 71.9341 100.382 71.7451 100.382 71.1079V66.5692C100.42 66.1345 100.42 65.6944 100.382 65.2597C100.382 65.1461 100.411 65.0328 100.44 64.9197C100.498 64.6941 100.556 64.4692 100.382 64.2444H94.4606C93.7451 64.2444 93.7451 64.1688 93.7451 63.5316C93.9503 61.2474 93.9503 58.9551 93.7451 56.6709C93.7073 55.9959 93.8585 55.9959 94.3823 55.9959H99.5582C100.16 55.9959 100.384 55.8447 100.384 55.2453V49.0946C100.366 48.6872 100.356 48.4806 100.248 48.376C100.137 48.2684 99.9219 48.2684 99.4853 48.2684H92.7731C92.2493 48.3575 91.7471 48.0038 91.6526 47.48C90.8831 45.4685 89.9029 43.5433 88.723 41.7424C87.535 39.9658 86.1958 38.2972 84.7108 36.7555C82.7371 34.7845 80.5204 33.0726 78.1119 31.6551C74.4804 29.5464 70.5087 28.0695 66.3749 27.3054C64.3688 26.9355 62.3411 26.7114 60.2999 26.6304H32.1764C31.4258 26.6304 31.4258 26.7816 31.4258 27.381V47.5934C31.4258 48.3062 31.2746 48.3062 30.713 48.3062H22.6507C22.0513 48.3062 22.0513 48.4169 22.0513 48.83V55.4289C22.0513 56.0283 22.2376 56.0283 22.6885 56.0283H30.8264C31.4258 56.0283 31.4258 56.139 31.4258 56.5899V63.6396C31.4258 64.2768 31.2368 64.2768 30.7508 64.2768H22.0513V71.4022C22.0513 72.0016 22.2376 72.0016 22.6885 72.0016H30.8264C31.4258 72.0016 31.4258 72.0745 31.4258 72.5632V81.3761V84.338V93.0753ZM83.215 47.6636C83.2798 47.831 83.2798 48.0173 83.215 48.1874H83.3959C83.3203 48.4115 82.945 48.4871 82.945 48.4871H39.6716C38.9588 48.4871 38.9588 48.3359 38.9588 47.7743V34.4631C38.9588 33.9744 39.0344 33.7503 39.596 33.7503H59.7328C61.8767 33.7314 64.0151 33.9555 66.1076 34.4253C70.2549 35.4082 74.1132 37.363 77.3586 40.1251C78.0066 40.6084 78.5844 41.1781 79.0839 41.8126C80.1424 42.8629 81.0712 44.032 81.8596 45.3011C82.3834 46.0436 82.8343 46.8347 83.215 47.6636ZM85.0105 64.2363H62.2115H39.8606C39.4047 64.2363 39.1799 64.2363 39.0692 64.124C38.9615 64.0148 38.9615 63.7995 38.9615 63.375V56.7006C38.9615 56.1741 39.1127 55.9878 39.6743 55.9878H85.0483C85.537 55.9878 85.7611 56.1741 85.7611 56.625C85.9474 58.947 85.9474 61.2798 85.7611 63.5991C85.726 64.2363 85.4965 64.2363 85.0105 64.2363ZM83.215 72.0367C82.5778 71.9665 81.9352 71.9665 81.298 72.0367H39.7121C39.1505 72.0367 38.9615 72.0367 38.9615 72.7873V85.8015C38.9615 86.4009 38.9615 86.5521 39.7121 86.5521H58.912C59.83 86.6223 60.7481 86.5575 61.6472 86.3658C64.4336 86.166 67.1741 85.5612 69.7877 84.5648C70.7382 84.2354 71.6562 83.8061 72.5229 83.2904H72.7848C77.2857 80.9495 80.9416 77.2721 83.2474 72.7576C83.2474 72.7576 83.5093 72.1906 83.215 72.0421V72.0367Z" fill="#FEFEFD"/>
</svg>
