<svg width="120" height="120" viewBox="0 0 120 120" fill="none" xmlns="http://www.w3.org/2000/svg">
<circle cx="60" cy="60" r="60" fill="url(#paint0_linear_207_409)"/>
<path d="M86.2575 83.9072L65.9689 34.8557C64.8245 32.3196 63.1235 31.0825 60.8812 31.0825H59.0874C56.8452 31.0825 55.1441 32.3196 53.9998 34.8557L45.1699 56.2268H38.4895C36.4946 56.2423 34.8709 57.8505 34.8555 59.8608V59.9072C34.8709 61.902 36.4946 63.5258 38.4895 63.5412H42.0771L33.6493 83.9072C33.4946 84.3557 33.4019 84.8196 33.4019 85.299C33.4019 86.4433 33.7575 87.3402 34.3915 88.0361C35.0256 88.7319 35.9379 89.0721 37.0823 89.0721C37.84 89.0567 38.5668 88.8247 39.1699 88.3763C39.8194 87.9278 40.2678 87.2783 40.6235 86.5361L49.9019 63.5258H56.3348C58.3297 63.5103 59.9534 61.902 59.9689 59.8917V59.799C59.9534 57.8041 58.3297 56.1804 56.3348 56.1649H52.9019L59.9843 38.5206L79.2833 86.5206C79.639 87.2629 80.0874 87.9124 80.7369 88.3608C81.34 88.8093 82.0823 89.0412 82.8245 89.0567C83.9689 89.0567 84.8658 88.7165 85.5153 88.0206C86.1647 87.3247 86.5049 86.4278 86.5049 85.2835C86.5204 84.8196 86.4431 84.3402 86.2575 83.9072Z" fill="white"/>
<defs>
<linearGradient id="paint0_linear_207_409" x1="67.1751" y1="-22.2813" x2="-22.1049" y2="52.8387" gradientUnits="userSpaceOnUse">
<stop stop-color="#B6509E"/>
<stop offset="1" stop-color="#2EBAC6"/>
</linearGradient>
</defs>
</svg>
