<svg width="120" height="120" viewBox="0 0 120 120" fill="none" xmlns="http://www.w3.org/2000/svg">
<circle cx="60" cy="60" r="60" fill="#7866D5"/>
<path d="M84.288 30.8044C86.3191 31.0582 88.4347 31.2275 90.4658 31.566C94.4432 32.3276 95.7972 34.3587 95.1202 38.4207C94.9509 39.944 93.7662 41.1288 92.2429 41.3826C91.312 41.5519 90.2965 41.6365 89.3656 41.5519C76.1639 41.5519 63.0469 41.6365 49.8452 41.6365C47.8988 41.6365 45.8677 41.8058 43.9213 42.1443C37.4051 43.1598 34.8663 45.8678 34.3586 52.4687C34.1047 55.5152 34.1047 55.5152 37.2358 55.5152H89.7041C90.2119 55.5152 90.7196 55.5152 91.2274 55.5152C92.0736 55.5152 92.8353 55.7691 93.5969 56.1922C95.9665 57.7155 95.3741 60.1697 95.2894 62.3699C95.2048 64.1471 94.1047 65.1626 92.2429 65.5011C91.4813 65.6704 90.7196 65.6704 89.8734 65.6704C71.9326 65.6704 53.9918 65.6704 36.0511 65.6704C34.1047 65.6704 34.1047 65.6704 34.2739 67.6168C34.3586 69.3939 34.5278 71.1711 34.9509 72.9482C35.7972 76.164 37.7436 78.195 41.044 79.1259C44.5983 80.1414 48.3219 80.3107 51.9608 80.3953C64.7394 80.3953 77.6026 80.3953 90.4658 80.3953C92.0737 80.3953 93.5969 80.5646 94.6124 82.0879C96.2203 84.6266 95.3741 87.9271 92.8353 89.535C92.4968 89.7888 92.1583 89.9581 91.7351 90.0427C88.9425 90.9736 86.0652 91.1429 83.1033 91.2275C71.0017 91.4814 58.9848 91.4814 46.9679 91.2275C43.2443 91.1429 39.5208 90.7197 35.8818 89.9581C27.3346 88.1809 23.0186 83.7804 21.58 75.1485C21.2415 73.2021 21.0722 71.1711 20.8184 69.14V53.3996C20.9876 51.8763 21.1569 50.2684 21.3261 48.7451C22.4263 39.0131 26.8268 34.1894 36.3896 31.9891C39.7746 31.2275 43.3289 31.0582 46.714 30.7197L84.288 30.8044Z" fill="white"/>
<path fill-rule="evenodd" clip-rule="evenodd" d="M46.8831 92.7506C52.8915 92.8352 58.9 92.9198 64.9931 92.9198C68.0503 92.9198 71.1075 92.8985 74.154 92.8773C77.1793 92.8562 80.194 92.8352 83.1877 92.8352C85.8958 92.7506 89.1116 92.5813 92.2427 91.5658C92.7505 91.3966 93.2582 91.1427 93.6814 90.8888C95.2893 89.8733 96.3894 88.35 96.8126 86.5729C97.2357 84.7957 96.9818 82.9339 95.9663 81.326C94.443 78.8719 91.8196 78.8719 90.5502 78.8719H82.0876C72.1863 78.8719 62.0312 78.8719 52.0453 78.7873C48.8295 78.7873 45.1059 78.618 41.467 77.6025C38.759 76.8409 37.1511 75.233 36.474 72.6095C36.0509 70.917 35.8817 69.2245 35.797 67.4473V67.3627V67.1088H36.1355H89.8732C90.7195 67.1088 91.5657 67.1088 92.4966 66.9396C95.12 66.4318 96.5587 64.8239 96.7279 62.4544C96.7279 62.3275 96.7491 62.1794 96.7702 62.0313C96.7914 61.8832 96.8126 61.7351 96.8126 61.6081L96.816 61.5662C96.9851 59.5388 97.2159 56.7717 94.3584 54.9227C93.4275 54.4149 92.3274 54.0764 91.2272 54.0764H37.2357H35.797C35.797 53.8745 35.8163 53.6533 35.8365 53.422C35.8585 53.1686 35.8817 52.9032 35.8817 52.6378C36.3894 46.7139 38.3358 44.5983 44.175 43.6674C46.0368 43.3289 47.9832 43.1596 49.845 43.1596C62.9621 43.1596 76.1637 43.075 89.2808 42.9904C90.381 42.9904 91.3965 42.9057 92.412 42.7365C94.6969 42.398 96.3894 40.6208 96.6433 38.5052C97.4896 33.5969 95.6278 30.8888 90.8041 29.9579C89.6717 29.7063 88.586 29.5949 87.5123 29.4848C87.1418 29.4468 86.7727 29.409 86.4035 29.3655C85.8111 29.3655 85.1341 29.2809 84.5417 29.1963H84.4571H46.7984H46.6292L44.0904 29.4502C41.467 29.704 38.8436 29.9579 36.1355 30.5503C25.8958 32.8352 20.9874 38.1667 19.8027 48.5757C19.7628 49.0541 19.7042 49.5326 19.6444 50.0198C19.5774 50.5669 19.5089 51.125 19.4642 51.7069L19.2949 53.2301V69.1399V69.3091C19.3795 69.9861 19.4642 70.5785 19.5488 71.1709C19.6334 72.5249 19.8027 73.9636 20.0566 75.4022C21.5798 84.5418 26.3189 89.4502 35.5432 91.3966C39.2667 92.2428 43.0749 92.666 46.8831 92.7506ZM22.5107 70.8324C22.5107 70.24 22.4261 69.6476 22.3415 69.0552V53.5686L22.5107 52.13C22.5555 51.5482 22.6239 50.99 22.691 50.443C22.7507 49.9557 22.8094 49.4773 22.8492 48.9988C23.8647 39.8592 27.7575 35.5433 36.6433 33.343C38.8209 32.8349 40.9362 32.6381 43.1495 32.4321C43.5166 32.398 43.8864 32.3636 44.2597 32.3275L46.7984 32.0736H84.2032C84.7956 32.0736 85.4726 32.1582 86.065 32.2428C87.419 32.3275 88.7731 32.4967 90.1271 32.7506C93.3429 33.4276 94.1891 34.5277 93.5968 37.9128C93.5121 38.7591 92.8351 39.4361 91.9889 39.5207C91.1426 39.6899 90.2963 39.6899 89.3654 39.6899C82.7646 39.6899 76.1849 39.7111 69.6052 39.7323C63.0255 39.7534 56.4458 39.7746 49.845 39.7746C47.7293 39.8592 45.6983 40.0284 43.6673 40.367C36.474 41.4671 33.4275 44.7675 32.8351 52.0454C32.8262 52.2319 32.8164 52.4119 32.8069 52.5857C32.7262 54.0675 32.6701 55.0961 33.4275 55.8536C34.2738 56.6998 35.3739 56.6998 37.2357 56.6998H91.3965C91.9042 56.6998 92.4966 56.8691 92.9197 57.1229C94.1045 57.8846 94.1045 58.9001 93.9353 61.0158C93.9353 61.185 93.9141 61.3331 93.893 61.4812C93.8718 61.6293 93.8506 61.7774 93.8506 61.9466C93.766 62.7929 93.4275 63.3853 92.0735 63.6392C91.3965 63.8084 90.6348 63.8084 89.9578 63.8084H36.1355C34.9508 63.8084 34.0199 63.8084 33.3429 64.5701C32.687 65.3079 32.7459 66.1251 32.8272 67.2525C32.8298 67.2889 32.8325 67.3257 32.8351 67.3627V67.4473C32.8351 69.3091 33.089 71.2555 33.5121 73.1173C34.443 76.9255 36.8126 79.3796 40.6207 80.3952C44.5982 81.5799 48.5756 81.7492 51.9606 81.7492C61.9465 81.8338 72.1863 81.8338 82.003 81.8338H90.4656C92.0735 81.8338 92.7505 82.0877 93.2583 82.8493C93.8506 83.7802 94.0199 84.7957 93.766 85.8112C93.5121 86.8268 92.8351 87.673 91.9889 88.2654C91.8619 88.3077 91.735 88.3712 91.608 88.4347C91.4811 88.4981 91.3542 88.5616 91.2272 88.6039C88.5192 89.4502 85.5573 89.6194 83.1031 89.704C71.0862 89.9579 58.9 89.9579 46.9677 89.704C43.3288 89.6194 39.6898 89.1963 36.1355 88.4347C28.1807 86.7421 24.3725 82.8493 23.0185 74.8945L22.5107 70.8324Z" fill="white"/>
</svg>
