<svg width="120" height="120" viewBox="0 0 120 120" fill="none" xmlns="http://www.w3.org/2000/svg">
<circle cx="60" cy="60" r="60" fill="#EDF0F4"/>
<path d="M56.0005 59.5211L81.0005 73.8411C81.4096 74.087 81.9195 74.0929 82.3342 73.8566C82.7488 73.6202 83.0036 73.1784 83.0005 72.7011V46.3211C83.0065 45.8429 82.7514 45.3994 82.335 45.1641C81.9186 44.9288 81.407 44.9392 81.0005 45.1911L56.0005 59.5211Z" fill="#31CB9E"/>
<path d="M80.4705 38.8513L63.3805 26.2813C63.0211 26.0054 62.548 25.9265 62.1186 26.071C61.6893 26.2155 61.36 26.5643 61.2405 27.0013L55.0005 55.0013L80.3205 41.0013C80.7123 40.7997 80.9704 40.4081 81.0011 39.9685C81.0317 39.5289 80.8305 39.1053 80.4705 38.8513" fill="#31CB9E"/>
<path d="M63.3605 92.7515L80.4705 80.1815C80.8353 79.925 81.0404 79.4972 81.0118 79.0522C80.9833 78.6072 80.7251 78.2091 80.3305 78.0015L55.0005 64.0015L61.2405 92.0015C61.3456 92.4434 61.666 92.8028 62.093 92.9579C62.5199 93.1129 62.9962 93.0429 63.3605 92.7715" fill="#31CB9E"/>
<path d="M49.5004 59.0014L56.0004 28.6014C56.1019 28.0861 55.8809 27.5607 55.4416 27.2729C55.0022 26.9851 54.4322 26.9924 54.0004 27.2914L37.3504 40.0614C36.4958 40.7171 35.9964 41.7343 36.0004 42.8114V75.2114C35.9838 76.3026 36.4845 77.3373 37.3504 78.0014L53.9204 90.7314C54.3522 91.0304 54.9222 91.0377 55.3616 90.75C55.8009 90.4622 56.0219 89.9367 55.9204 89.4214L49.5004 59.0014Z" fill="#31CB9E"/>
</svg>
