<svg width="120" height="120" viewBox="0 0 120 120" fill="none" xmlns="http://www.w3.org/2000/svg">
<circle cx="60" cy="60" r="60" fill="#EDF0F4"/>
<path d="M36.2672 29L98 70.6821L82.7328 93L21 50.9897L36.2672 29Z" fill="url(#paint0_linear_207_586)"/>
<path d="M98.6704 70.7665C93.3938 78.4693 75.5852 75.4552 58.7659 63.3986C41.6168 51.6769 32.3827 35.9363 37.3296 28.2335C42.6062 20.5307 60.4148 23.5448 77.2341 35.6014C94.3832 46.9882 103.617 63.0637 98.6704 70.7665Z" fill="url(#paint1_linear_207_586)"/>
<path d="M82.6642 92.7941C77.3706 100.447 59.5049 97.4522 42.6318 85.4743C25.7586 73.4963 16.164 58.1912 21.4576 50.2059C26.7511 42.5533 44.6168 45.5478 61.49 57.5257C78.3632 69.5037 87.6269 85.1415 82.6642 92.7941Z" fill="url(#paint2_linear_207_586)"/>
<path d="M97.7547 70.4192V70.4192L82.4792 92.9047V92.9047C77.166 100.51 59.234 97.2034 42.2981 85.63C38.9774 83.3153 35.9887 81.0006 33 78.3552C35.3245 78.0246 38.3132 76.7019 41.3019 73.3952C46.6151 67.7738 49.2717 66.4511 51.5962 66.7818C53.9208 66.7818 56.5774 69.0965 60.8943 74.7179C65.2113 80.3393 71.1887 81.9926 74.8415 79.0166C75.1736 78.6859 75.5057 78.6859 75.8377 78.3552C78.8264 76.0405 79.8226 75.0485 85.4679 64.4671C86.7962 61.8217 91.4453 57.523 97.7547 59.507C99.4151 63.8058 99.4151 67.4431 97.7547 70.4192Z" fill="#0E0F23"/>
<path fill-rule="evenodd" clip-rule="evenodd" d="M94.9489 69.5884C90.3291 76.2285 74.1597 72.9085 58.6502 61.9522C42.8108 50.996 33.5712 37.0517 38.191 30.4116C42.8108 23.7715 58.9802 27.0915 74.4897 38.0478C89.9991 49.004 99.2387 62.9483 94.9489 69.5884ZM80.4294 59.6282C78.1195 62.9483 70.1998 61.2882 62.2801 55.9761C54.6904 50.664 50.0705 43.6919 52.3805 40.3718C54.6904 37.0517 62.6101 38.7118 70.5298 44.0239C78.1195 49.336 82.7394 56.3081 80.4294 59.6282Z" fill="white"/>
<path d="M34.8879 35.3918C34.8879 35.1148 34.5879 34.8377 34.2879 35.1148C33.9879 35.3918 33.6879 35.3918 33.6879 35.6689C33.9879 36.5 34.2879 37.0541 34.2879 37.6082C34.2879 37.8852 34.5879 38.1623 34.8879 37.8852C35.1879 37.8852 35.4879 37.6082 35.1879 37.3311C35.1879 36.777 35.1879 36.223 34.8879 35.3918Z" fill="white"/>
<path d="M36.9786 40.4723C36.9786 40.1383 36.6524 39.8044 36.3262 40.1383C36 40.4723 36 40.4723 36 40.8063C39.5881 49.1553 47.0906 58.1723 56.8764 64.8516C57.2026 65.1855 57.5288 64.8516 57.855 64.8516C58.1812 64.5176 57.855 64.1836 57.855 63.8497C47.743 57.1704 40.5667 48.4874 36.9786 40.4723Z" fill="white"/>
<path d="M76.6154 73.6C76.3077 73.6 76 73.6 76 73.9C76 74.2 76 74.5 76.3077 74.5C77.2308 74.8 78.4615 75.1 79.3846 75.4C79.6923 75.4 80 75.4 80 75.1C80 74.8 80 74.5 79.6923 74.5C78.7692 74.2 77.5385 73.9 76.6154 73.6Z" fill="white"/>
<path d="M82.6429 74.6879C82.3214 74.6879 82 74.9879 82 75.2879C82 75.5879 82.3214 75.8879 82.6429 75.8879C85.2143 76.1879 88.1071 76.4879 90.3571 76.1879C90.6786 76.1879 91 75.8879 91 75.5879C91 75.2879 90.6786 74.9879 90.3571 74.9879C87.7857 75.2879 85.2143 74.9879 82.6429 74.6879Z" fill="white"/>
<defs>
<linearGradient id="paint0_linear_207_586" x1="23.3546" y1="28.1613" x2="31.9625" y2="70.4718" gradientUnits="userSpaceOnUse">
<stop stop-color="#03B8FF"/>
<stop offset="1" stop-color="#FA52A0"/>
</linearGradient>
<linearGradient id="paint1_linear_207_586" x1="32.7489" y1="24.0702" x2="40.6163" y2="67.2729" gradientUnits="userSpaceOnUse">
<stop stop-color="#03B8FF"/>
<stop offset="1" stop-color="#FA52A0"/>
</linearGradient>
<linearGradient id="paint2_linear_207_586" x1="11.9408" y1="30.0348" x2="19.8361" y2="72.9705" gradientUnits="userSpaceOnUse">
<stop stop-color="#03B8FF"/>
<stop offset="1" stop-color="#FA52A0"/>
</linearGradient>
</defs>
</svg>
