<svg width="120" height="120" viewBox="0 0 120 120" fill="none" xmlns="http://www.w3.org/2000/svg">
<circle cx="60" cy="60" r="60" fill="url(#paint0_linear_207_498)"/>
<path fill-rule="evenodd" clip-rule="evenodd" d="M80.9537 32.4973C76.6373 32.4973 72.9328 34.2338 69.8402 37.6903L51.8302 59.7024L40.2371 73.859C39.7409 74.4378 39.0133 74.7851 38.2525 74.7851H22.2272C22.1114 74.7686 21.9956 74.8182 21.9129 74.9174C21.8468 75.0001 21.8137 75.0993 21.8137 75.2151V86.0144C21.7972 86.1302 21.8302 86.2625 21.9129 86.3617C21.9791 86.4444 22.1114 86.5106 22.2272 86.494H39.129C43.4455 86.494 47.15 84.741 50.2426 81.2515L60.0662 69.2614L69.8898 81.2515C72.9659 84.741 76.6373 86.494 80.9537 86.494H97.8225C97.9383 86.5106 98.0541 86.461 98.1368 86.3617C98.2029 86.279 98.236 86.1798 98.236 86.064V75.2647C98.2525 75.1489 98.2029 75.0166 98.1368 74.9174C98.0706 74.8347 97.9383 74.7686 97.8225 74.7851H81.7972C81.0695 74.8016 80.3584 74.4709 79.8788 73.9251L68.021 59.4543L79.8291 45.0828C80.3253 44.4874 81.053 44.1401 81.8137 44.1567H97.8391C97.9548 44.1732 98.0706 44.1236 98.1533 44.0244C98.2194 43.9417 98.2525 43.8424 98.2525 43.7267V32.9273C98.2691 32.795 98.236 32.6793 98.1533 32.5966C98.0706 32.5304 97.9548 32.4808 97.8391 32.4973H80.9537ZM38.2525 44.1567C39.0298 44.1567 39.7575 44.4874 40.2371 45.0828L46.3231 52.5414L54.344 42.7675L50.2261 37.7399C47.1169 34.2504 43.4289 32.4973 39.1621 32.4973H22.2272C22.0949 32.4808 21.9791 32.5304 21.8799 32.6297C21.7972 32.7123 21.7476 32.8116 21.7476 32.9273V43.7267C21.7476 43.8424 21.7972 43.9417 21.8799 44.0244C21.9791 44.107 22.0949 44.1567 22.2272 44.1567H38.2525Z" fill="#00D1FF"/>
<defs>
<linearGradient id="paint0_linear_207_498" x1="44.1317" y1="-0.000347299" x2="44.1317" y2="31.7527" gradientUnits="userSpaceOnUse">
<stop stop-color="#090220"/>
<stop offset="1" stop-color="#170659"/>
</linearGradient>
</defs>
</svg>
