<svg width="21" height="21" viewBox="0 0 21 21" fill="none" xmlns="http://www.w3.org/2000/svg">
<path d="M10.0273 20.3219C15.569 20.3219 20.0273 15.8673 20.0273 10.3303C20.0273 4.7932 15.569 0.338623 10.0273 0.338623C4.48564 0.338623 0.0273438 4.7932 0.0273438 10.3303C0.0273438 15.8673 4.48564 20.3219 10.0273 20.3219Z" fill="#2775CA"/>
<path d="M12.7771 11.9123C12.7771 10.4552 11.9021 9.95563 10.1521 9.7475C8.90215 9.58094 8.65215 9.24792 8.65215 8.66501C8.65215 8.08209 9.06885 7.70751 9.90215 7.70751C10.6521 7.70751 11.0688 7.9573 11.2771 8.58178C11.3188 8.70667 11.4438 8.7899 11.5688 8.7899H12.2354C12.4021 8.7899 12.5271 8.66501 12.5271 8.49855V8.45688C12.3604 7.54095 11.6104 6.83324 10.6521 6.75001V5.75085C10.6521 5.58429 10.5271 5.45939 10.3188 5.41772H9.69385C9.52715 5.41772 9.40215 5.54262 9.36045 5.75085V6.70834C8.11045 6.8749 7.31885 7.70751 7.31885 8.74834C7.31885 10.1222 8.15215 10.6633 9.90215 10.8716C11.0688 11.0797 11.4438 11.3295 11.4438 11.9956C11.4438 12.6618 10.8604 13.1197 10.0688 13.1197C8.98545 13.1197 8.61045 12.6617 8.48545 12.0372C8.44385 11.8707 8.31885 11.7874 8.19385 11.7874H7.48545C7.31885 11.7874 7.19385 11.9123 7.19385 12.0788V12.1205C7.36045 13.1612 8.02715 13.9106 9.40215 14.1188V15.118C9.40215 15.2845 9.52715 15.4094 9.73545 15.451H10.3604C10.5271 15.451 10.6521 15.3261 10.6938 15.118V14.1188C11.9438 13.9106 12.7771 13.0363 12.7771 11.9123V11.9123Z" fill="white"/>
<path fill-rule="evenodd" clip-rule="evenodd" d="M4.19388 8.29031C2.98548 11.496 4.65218 15.118 7.90218 16.2836C8.02718 16.367 8.15218 16.5334 8.15218 16.6583V17.2412C8.15218 17.3245 8.15218 17.3661 8.11048 17.4077C8.06888 17.5742 7.90218 17.6575 7.73548 17.5742C5.40218 16.8249 3.61048 15.0347 2.86048 12.7033C1.61048 8.74833 3.77718 4.54345 7.73548 3.29449C7.77718 3.25293 7.86048 3.25293 7.90218 3.25293C8.06888 3.29449 8.15218 3.41939 8.15218 3.58595V4.16876C8.15218 4.37699 8.06888 4.50188 7.90218 4.58511C6.19388 5.20959 4.81888 6.54178 4.19388 8.29031ZM11.9438 3.4611C11.9854 3.29454 12.1521 3.21131 12.3188 3.29454C14.6104 4.04392 16.4438 5.83412 17.1938 8.20713C18.4438 12.1621 16.2771 16.367 12.3188 17.616C12.2771 17.6575 12.1938 17.6575 12.1521 17.6575C11.9854 17.616 11.9021 17.4911 11.9021 17.3245V16.7417C11.9021 16.5335 11.9854 16.4086 12.1521 16.3253C13.8604 15.7009 15.2354 14.3687 15.8604 12.6201C17.0688 9.41442 15.4021 5.79245 12.1521 4.62683C12.0271 4.5435 11.9021 4.37704 11.9021 4.21048V3.62766C11.9021 3.54433 11.9021 3.50277 11.9438 3.4611Z" fill="white"/>
</svg>
