<svg width="120" height="120" viewBox="0 0 120 120" fill="none" xmlns="http://www.w3.org/2000/svg">
<circle cx="60" cy="60" r="60" fill="url(#paint0_linear_207_462)"/>
<path d="M42.5098 39V84H80.0098L42.5098 39Z" fill="url(#paint1_linear_207_462)"/>
<path d="M5.00977 84H42.5098V39L5.00977 84Z" fill="white"/>
<path d="M12 96C15.42 100.53 19.47 104.58 24 108H96C100.53 104.58 104.58 100.53 108 96H12Z" fill="#FC9965"/>
<path d="M24 108C34.02 115.53 46.5 120 60 120C73.5 120 85.98 115.53 96 108H24Z" fill="#FF2D55"/>
<path d="M80.4902 63V96H108L80.4902 63Z" fill="url(#paint2_linear_207_462)"/>
<path d="M80.4898 84H5.00977C6.86977 88.29 9.23977 92.31 11.9998 96H80.5198V84H80.4898V84Z" fill="#FFBC5B"/>
<path d="M53.0098 96H80.4898V63L53.0098 96Z" fill="white"/>
<circle cx="80.4902" cy="39" r="15" fill="#FFC95B"/>
<circle cx="42.5098" cy="22.5" r="7.5" fill="#FFC95B"/>
<defs>
<linearGradient id="paint0_linear_207_462" x1="60" y1="-24.852" x2="-24.852" y2="60" gradientUnits="userSpaceOnUse">
<stop stop-color="#FF2D55"/>
<stop offset="1" stop-color="#FFBC5B"/>
</linearGradient>
<linearGradient id="paint1_linear_207_462" x1="42.497" y1="39" x2="42.497" y2="84" gradientUnits="userSpaceOnUse">
<stop stop-color="#A524B3"/>
<stop offset="1" stop-color="#FF2D55"/>
</linearGradient>
<linearGradient id="paint2_linear_207_462" x1="80.4809" y1="63" x2="80.4809" y2="96" gradientUnits="userSpaceOnUse">
<stop stop-color="#A524B3"/>
<stop offset="1" stop-color="#FF2D55"/>
</linearGradient>
</defs>
</svg>
