<svg width="120" height="120" viewBox="0 0 120 120" fill="none" xmlns="http://www.w3.org/2000/svg">
<path fill-rule="evenodd" clip-rule="evenodd" d="M60 0C93.132 0 120 26.868 120 60C120 93.132 93.132 120 60 120C26.868 120 0 93.132 0 60C0 26.868 26.868 0 60 0Z" fill="#006AE3"/>
<path d="M57.5283 85.296V35.376H62.9643V85.296H57.5283V85.296Z" fill="white"/>
<path d="M85.2004 52.0081L68.4124 56.4601L64.6684 39.0361L69.6604 37.9081L71.6284 46.1641C71.6284 46.1641 76.1644 38.7241 70.1164 31.0201C66.5524 27.0601 64.8604 26.8921 60.8644 26.2681C57.3484 25.7641 49.1764 26.9521 46.7404 36.4921C45.7084 42.6361 46.8724 47.1841 54.7924 53.1361L54.3484 59.7601C54.3484 59.7601 45.5044 53.5321 43.2244 49.1641C41.4604 45.7081 38.4364 38.8801 43.8964 29.3761C46.8364 24.6241 52.6324 20.0641 62.8444 20.5441C67.9804 20.7601 80.5204 27.0361 78.5764 41.7001C78.2404 44.4481 76.8124 48.1081 76.8124 48.1081L83.7004 46.5721L85.2004 52.0081Z" fill="white"/>
<path d="M75.6119 91.0682C72.5399 95.7362 66.6239 100.14 56.4359 99.3962C51.2999 99.0482 38.9399 92.4362 41.2679 77.8322C41.6759 75.0962 43.1999 71.4842 43.1999 71.4842L36.2759 72.8282L34.9199 67.3682L51.8279 63.3602L55.1159 80.8802L50.0879 81.8762L48.3359 73.5602C48.3359 73.5602 43.6079 80.8682 49.4399 88.7402C52.8959 92.7962 54.5759 93.0002 58.5719 93.7322C62.0639 94.3322 70.2719 93.3482 72.9599 83.8802C74.1479 77.7722 73.1039 73.1882 65.3519 67.0202L65.9759 60.4082C65.9759 60.4082 74.6519 66.8642 76.8119 71.2922C78.4679 74.8082 81.3119 81.7202 75.6119 91.0682V91.0682Z" fill="white"/>
</svg>
