<svg width="120" height="120" viewBox="0 0 120 120" fill="none" xmlns="http://www.w3.org/2000/svg">
<circle cx="60" cy="60" r="60" fill="url(#paint0_linear_207_480)"/>
<path fill-rule="evenodd" clip-rule="evenodd" d="M33.9216 34.9478L40.2549 31.5826L41 33.0783L64.098 19.6174L62.6078 18.4957L60.7451 17.3739L60 17L22 39.0609V39.8087L32.8039 33.8261L33.9216 34.9478ZM33.9216 49.1565L52.1765 38.313L52.9216 39.8087L76.3922 26.3478L74.5294 25.2261L72.6667 24.4783L71.9216 24.1043L22 52.8957V53.6435L32.8039 47.6609L33.9216 49.1565ZM58.1373 42.0522L33.9216 55.887L32.8039 54.3913L22 60.7478V59.6261L77.8824 27.4696L78.6275 27.8435L80.4902 28.9652L82.3529 29.713L58.8824 43.1739L58.1373 42.0522ZM33.9216 62.6174L64.098 45.4174L64.8431 46.5391L88.3137 33.4522L86.451 32.3304L84.5882 31.2087L83.8431 30.8348L22 66.7304V67.4783L32.8039 61.4957L33.9216 62.6174ZM70.0588 48.7826L33.9216 69.7217L32.8039 68.2261L22 74.5826V73.4609L89.8039 34.2L90.9216 34.9478L92.4118 35.6957L94.2745 36.8174L70.8039 50.2783L70.0588 48.7826ZM96.5098 38.313L95.7647 37.5652L22 80.5652V81.313L32.8039 75.3304L33.9216 76.8261L70.0588 55.513L70.8039 57.0087L98 41.6783V39.0609L96.5098 38.313ZM32.8039 82.0609L26.8431 85.8L25.7255 85.0522L98 43.5478V48.4087L70.8039 64.113L70.0588 62.6174L33.549 83.5565L32.8039 82.0609ZM70.0588 69.7217L70.8039 71.2174L98 55.1391V50.2783L31.6863 88.7913L32.8039 89.1652L38.7647 85.4261L39.8824 86.9217L70.0588 69.7217ZM45.098 89.1652L38.7647 92.5304L37.6471 92.1565L98 57.3826V62.2435L70.8039 77.9478L70.0588 76.4522L45.8431 90.6609L45.098 89.1652ZM44.7255 95.8957L51.0588 92.5304L51.8039 94.0261L70.0588 83.5565L70.8039 85.0522L98 69.3478V64.113L43.6078 95.5217L44.7255 95.8957ZM50.6863 99.6348L49.5686 98.887L98 71.2174V76.0783L70.8039 91.7826L70.0588 90.287L57.7647 97.3913L57.0196 95.8957L50.6863 99.6348ZM56.6471 103L62.6078 99.2609L63.7255 100.757L70.0588 97.3913L70.8039 98.887L98 83.1826V77.9478L55.902 102.626L56.6471 103ZM68.5686 21.8609L70.4314 22.9826L46.9608 36.4435L46.2157 34.9478L33.9216 42.0522L32.8039 40.5565L22 46.913V45.7913L65.9608 20.3652L66.7059 21.113L68.5686 21.8609Z" fill="white"/>
<defs>
<linearGradient id="paint0_linear_207_480" x1="0" y1="120" x2="120" y2="120" gradientUnits="userSpaceOnUse">
<stop stop-color="#001C3A"/>
<stop offset="0.6" stop-color="#001E3D"/>
<stop offset="0.7" stop-color="#001F3F"/>
<stop offset="1" stop-color="#002042"/>
</linearGradient>
</defs>
</svg>
