<svg width="120" height="120" viewBox="0 0 120 120" fill="none" xmlns="http://www.w3.org/2000/svg">
<circle cx="60" cy="60" r="60" fill="#2B2E7F"/>
<path d="M64.1263 71.135V49.1285H67.1097C76.4328 49.1285 79.0432 40.1768 79.0432 40.1768H54.0574C42.1239 40.1768 40.2593 49.1285 40.2593 49.1285H54.8033V82.3247C54.4303 82.3247 64.1263 79.3407 64.1263 71.135Z" fill="white"/>
<path d="M91.3494 88.2924C99.5537 79.7136 102.91 67.405 99.9266 55.8423C98.4349 49.8744 95.0786 44.2796 90.6036 39.8037C90.2306 39.4307 89.8577 39.0577 89.4848 38.6847L89.1119 38.3117C88.7389 37.9387 88.366 37.9387 88.366 37.5657L87.9931 37.1927L87.2473 36.4468H86.1285C85.7556 36.0738 85.3826 36.0738 85.0097 35.7008L84.2639 35.3278C83.891 35.3278 83.891 34.9548 83.518 34.9548L82.7722 34.5818C83.1451 34.2088 82.7722 33.8358 82.3993 33.8358L81.6534 33.4628C81.2805 33.4628 81.2805 33.0898 80.9076 33.0898H80.5346C81.6534 33.8358 82.3993 34.2088 83.1451 34.9548C95.8245 47.6365 96.1974 68.1509 83.518 81.2056C83.518 81.2056 83.518 81.2056 83.1451 81.5786C66.7365 97.9902 40.259 97.9902 23.8504 81.5786C23.1046 80.8326 22.7317 80.4596 21.9858 79.7136L21.6129 79.3406C21.24 78.9677 20.8671 78.5947 20.4941 78.2217C22.7317 82.3246 25.3421 86.0545 28.6984 89.4114C45.8529 106.196 73.4491 106.196 90.6036 89.4114C90.9765 88.6654 90.9765 88.6654 91.3494 88.2924V88.2924Z" fill="white"/>
<path d="M39.1404 83.8167C38.3946 83.0707 37.6487 82.6977 36.9029 81.9518C24.2235 69.2701 23.8506 48.3826 36.5299 35.701C36.5299 35.701 36.5299 35.701 36.9029 35.328C53.3115 18.9164 79.7889 18.9164 96.1975 35.328C97.3163 36.4469 98.4351 37.5659 99.5538 39.0579C97.3163 34.955 94.7058 31.2251 91.3495 27.8682C74.1951 10.7106 46.5989 10.7106 29.4444 27.8682C29.0715 28.2412 29.0715 28.2412 28.6986 28.6141C17.5109 40.5498 15.6463 58.0804 24.9694 71.508C28.3257 76.7299 33.5466 81.2058 39.1404 83.8167Z" fill="white"/>
</svg>
