<svg width="21" height="21" viewBox="0 0 21 21" fill="none" xmlns="http://www.w3.org/2000/svg">
<path d="M20.1611 12.9698C18.8254 18.3276 13.3988 21.5882 8.04038 20.2521C2.68419 18.9164 -0.576463 13.4895 0.759846 8.13213C2.09498 2.77374 7.52157 -0.487154 12.8783 0.848569C18.2364 2.18429 21.497 7.61171 20.1611 12.9698Z" fill="#F58600"/>
<path fill-rule="evenodd" clip-rule="evenodd" d="M15.2199 9.30921C15.4189 7.97827 14.4057 7.26285 13.0201 6.78559L13.4696 4.98272L12.3721 4.70926L11.9346 6.46466C11.646 6.3927 11.3497 6.3249 11.0553 6.25768L11.496 4.4907L10.3992 4.21724L9.94949 6.01952C9.71074 5.96516 9.47624 5.91143 9.24873 5.85482L9.25 5.84915L7.73658 5.47123L7.44465 6.64338C7.44465 6.64338 8.25887 6.83002 8.24171 6.84151C8.68612 6.95243 8.76649 7.24662 8.75314 7.4798L8.24112 9.53368C8.27172 9.54146 8.31142 9.5527 8.35522 9.5703L8.32332 9.56234C8.29625 9.55556 8.26811 9.54852 8.23922 9.5416L7.52154 12.4188C7.46723 12.5538 7.32938 12.7565 7.01867 12.6795C7.02966 12.6954 6.22102 12.4804 6.22102 12.4804L5.67615 13.7367L7.10431 14.0927C7.26064 14.1319 7.41513 14.1722 7.56804 14.2121L7.56824 14.2121L7.56835 14.2121C7.67522 14.24 7.78132 14.2676 7.88676 14.2946L7.43262 16.1181L8.52881 16.3916L8.97855 14.5874C9.27801 14.6687 9.56863 14.7437 9.85314 14.8144L9.40492 16.6101L10.5024 16.8835L10.9565 15.0634C12.8279 15.4176 14.2351 15.2748 14.8273 13.5821C15.3046 12.2193 14.8036 11.4332 13.8191 10.9206C14.5361 10.7553 15.0763 10.2836 15.2203 9.30935L15.2199 9.30911L15.2199 9.30921ZM12.7126 12.8253C12.4014 14.0756 10.4443 13.5587 9.54887 13.3222L9.54883 13.3222C9.4683 13.3009 9.39636 13.2819 9.33497 13.2666L9.93762 10.8508C10.0124 10.8695 10.1039 10.89 10.2075 10.9132C11.1337 11.1211 13.0314 11.547 12.7127 12.8253H12.7126ZM10.3932 9.79197C11.1397 9.9912 12.7683 10.4258 13.0519 9.28944H13.052C13.3417 8.1272 11.7589 7.77679 10.986 7.60565C10.899 7.5864 10.8223 7.56941 10.7596 7.5538L10.2133 9.74485C10.2648 9.75771 10.3254 9.77387 10.3932 9.79197Z" fill="white"/>
</svg>
